<svg xmlns="http://www.w3.org/2000/svg" xmlns:xlink="http://www.w3.org/1999/xlink" version="1.1" id="1" width="100%" height="100%" viewBox="-6 -6 902 966">
<desc>
XCircuit Version 3.7
File "1.ps" Page 2
</desc>
<g stroke="black">
<path d="M704,656 L640,656 640,560 704,560 " fill="none" stroke-width="4" stroke-linejoin="bevel" stroke-linecap="round" stroke="#000000"/>
<ellipse cx="760" cy="608" rx="8" ry="8" fill="none" stroke-width="4" stroke-linejoin="bevel" stroke-linecap="round" stroke="#000000"/>
<path d="M704,656 A48,48 0 0,0 704,560 " fill="none" stroke-width="4" stroke-linejoin="bevel" stroke-linecap="round" stroke="#000000"/>
<path d="M640,640 L608,640 " fill="none" stroke-width="4" stroke-linejoin="bevel" stroke-linecap="round" stroke="#000000"/>
<path d="M640,576 L608,576 " fill="none" stroke-width="4" stroke-linejoin="bevel" stroke-linecap="round" stroke="#000000"/>
<path d="M768,608 L800,608 " fill="none" stroke-width="4" stroke-linejoin="bevel" stroke-linecap="round" stroke="#000000"/>
<path d="M704,400 L640,400 640,304 704,304 " fill="none" stroke-width="4" stroke-linejoin="bevel" stroke-linecap="round" stroke="#000000"/>
<ellipse cx="760" cy="352" rx="8" ry="8" fill="none" stroke-width="4" stroke-linejoin="bevel" stroke-linecap="round" stroke="#000000"/>
<path d="M704,400 A48,48 0 0,0 704,304 " fill="none" stroke-width="4" stroke-linejoin="bevel" stroke-linecap="round" stroke="#000000"/>
<path d="M640,384 L608,384 " fill="none" stroke-width="4" stroke-linejoin="bevel" stroke-linecap="round" stroke="#000000"/>
<path d="M640,320 L608,320 " fill="none" stroke-width="4" stroke-linejoin="bevel" stroke-linecap="round" stroke="#000000"/>
<path d="M768,352 L800,352 " fill="none" stroke-width="4" stroke-linejoin="bevel" stroke-linecap="round" stroke="#000000"/>
<path d="M800,352 L832,352 " fill="none" stroke-width="4" stroke-linejoin="bevel" stroke-linecap="round" stroke="#000000"/>
<path d="M800,608 L832,608 " fill="none" stroke-width="4" stroke-linejoin="bevel" stroke-linecap="round" stroke="#000000"/>
<path d="M800,608 L800,544 576,416 576,384 608,384 " fill="none" stroke-width="4" stroke-linejoin="bevel" stroke-linecap="round" stroke="#000000"/>
<path d="M608,576 L576,576 576,544 800,416 800,352 " fill="none" stroke-width="4" stroke-linejoin="bevel" stroke-linecap="round" stroke="#000000"/>
<ellipse cx="800" cy="352" rx="6" ry="6" fill="#000000" stroke="none"/>
<ellipse cx="800" cy="608" rx="6" ry="6" fill="#000000" stroke="none"/>
<ellipse cx="848" cy="352" rx="6" ry="6" fill="none" stroke-width="4" stroke-linejoin="bevel" stroke-linecap="round" stroke="#000000"/>
<path d="M832,352 L842,352 " fill="none" stroke-width="4" stroke-linejoin="bevel" stroke-linecap="round" stroke="#000000"/>
<ellipse cx="848" cy="608" rx="6" ry="6" fill="none" stroke-width="4" stroke-linejoin="bevel" stroke-linecap="round" stroke="#000000"/>
<path d="M832,608 L842,608 " fill="none" stroke-width="4" stroke-linejoin="bevel" stroke-linecap="round" stroke="#000000"/>
<g transform="matrix(   1    0   -0    1 848 608)" fill="#000000">
<text stroke="none" font-family="Helvetica" font-size="40"><tspan x="10" y="13">Q</tspan>
</text>
<line stroke-width="2" stroke-linecap="square" x1="10" y1="-20" x2="40" y2="-20"/></g>
<path d="M416,688 L352,688 352,592 416,592 " fill="none" stroke-width="4" stroke-linejoin="bevel" stroke-linecap="round" stroke="#000000"/>
<ellipse cx="472" cy="640" rx="8" ry="8" fill="none" stroke-width="4" stroke-linejoin="bevel" stroke-linecap="round" stroke="#000000"/>
<path d="M416,688 A48,48 0 0,0 416,592 " fill="none" stroke-width="4" stroke-linejoin="bevel" stroke-linecap="round" stroke="#000000"/>
<path d="M352,640 L320,640 " fill="none" stroke-width="4" stroke-linejoin="bevel" stroke-linecap="round" stroke="#000000"/>
<path d="M352,608 L320,608 " fill="none" stroke-width="4" stroke-linejoin="bevel" stroke-linecap="round" stroke="#000000"/>
<path d="M480,640 L512,640 " fill="none" stroke-width="4" stroke-linejoin="bevel" stroke-linecap="round" stroke="#000000"/>
<path d="M352,672 L320,672 " fill="none" stroke-width="4" stroke-linejoin="bevel" stroke-linecap="round" stroke="#000000"/>
<path d="M416,368 L352,368 352,272 416,272 " fill="none" stroke-width="4" stroke-linejoin="bevel" stroke-linecap="round" stroke="#000000"/>
<ellipse cx="472" cy="320" rx="8" ry="8" fill="none" stroke-width="4" stroke-linejoin="bevel" stroke-linecap="round" stroke="#000000"/>
<path d="M416,368 A48,48 0 0,0 416,272 " fill="none" stroke-width="4" stroke-linejoin="bevel" stroke-linecap="round" stroke="#000000"/>
<path d="M352,352 L320,352 " fill="none" stroke-width="4" stroke-linejoin="bevel" stroke-linecap="round" stroke="#000000"/>
<path d="M352,288 L320,288 " fill="none" stroke-width="4" stroke-linejoin="bevel" stroke-linecap="round" stroke="#000000"/>
<path d="M480,320 L512,320 " fill="none" stroke-width="4" stroke-linejoin="bevel" stroke-linecap="round" stroke="#000000"/>
<path d="M416,112 L352,112 352,16 416,16 " fill="none" stroke-width="4" stroke-linejoin="bevel" stroke-linecap="round" stroke="#000000"/>
<ellipse cx="472" cy="64" rx="8" ry="8" fill="none" stroke-width="4" stroke-linejoin="bevel" stroke-linecap="round" stroke="#000000"/>
<path d="M416,112 A48,48 0 0,0 416,16 " fill="none" stroke-width="4" stroke-linejoin="bevel" stroke-linecap="round" stroke="#000000"/>
<path d="M352,96 L320,96 " fill="none" stroke-width="4" stroke-linejoin="bevel" stroke-linecap="round" stroke="#000000"/>
<path d="M352,32 L320,32 " fill="none" stroke-width="4" stroke-linejoin="bevel" stroke-linecap="round" stroke="#000000"/>
<path d="M480,64 L512,64 " fill="none" stroke-width="4" stroke-linejoin="bevel" stroke-linecap="round" stroke="#000000"/>
<path d="M512,320 L512,256 288,128 288,96 320,96 " fill="none" stroke-width="4" stroke-linejoin="bevel" stroke-linecap="round" stroke="#000000"/>
<path d="M320,288 L288,288 288,256 512,128 512,64 " fill="none" stroke-width="4" stroke-linejoin="bevel" stroke-linecap="round" stroke="#000000"/>
<ellipse cx="512" cy="320" rx="6" ry="6" fill="#000000" stroke="none"/>
<path d="M416,944 L352,944 352,848 416,848 " fill="none" stroke-width="4" stroke-linejoin="bevel" stroke-linecap="round" stroke="#000000"/>
<ellipse cx="472" cy="896" rx="8" ry="8" fill="none" stroke-width="4" stroke-linejoin="bevel" stroke-linecap="round" stroke="#000000"/>
<path d="M416,944 A48,48 0 0,0 416,848 " fill="none" stroke-width="4" stroke-linejoin="bevel" stroke-linecap="round" stroke="#000000"/>
<path d="M352,928 L320,928 " fill="none" stroke-width="4" stroke-linejoin="bevel" stroke-linecap="round" stroke="#000000"/>
<path d="M352,864 L320,864 " fill="none" stroke-width="4" stroke-linejoin="bevel" stroke-linecap="round" stroke="#000000"/>
<path d="M480,896 L512,896 " fill="none" stroke-width="4" stroke-linejoin="bevel" stroke-linecap="round" stroke="#000000"/>
<path d="M512,896 L512,832 288,704 288,672 320,672 " fill="none" stroke-width="4" stroke-linejoin="bevel" stroke-linecap="round" stroke="#000000"/>
<path d="M320,864 L288,864 288,832 512,704 512,640 " fill="none" stroke-width="4" stroke-linejoin="bevel" stroke-linecap="round" stroke="#000000"/>
<ellipse cx="512" cy="640" rx="6" ry="6" fill="#000000" stroke="none"/>
<path d="M512,320 L608,320 " fill="none" stroke-width="4" stroke-linejoin="bevel" stroke-linecap="round" stroke="#000000"/>
<path d="M512,320 L512,416 288,544 288,608 320,608 " fill="none" stroke-width="4" stroke-linejoin="bevel" stroke-linecap="round" stroke="#000000"/>
<path d="M512,640 L608,640 " fill="none" stroke-width="4" stroke-linejoin="bevel" stroke-linecap="round" stroke="#000000"/>
<ellipse cx="288" cy="672" rx="6" ry="6" fill="#000000" stroke="none"/>
<path d="M288,672 L224,672 224,32 320,32 " fill="none" stroke-width="4" stroke-linejoin="bevel" stroke-linecap="round" stroke="#000000"/>
<path d="M320,352 L160,352 160,640 320,640 " fill="none" stroke-width="4" stroke-linejoin="bevel" stroke-linecap="round" stroke="#000000"/>
<ellipse cx="160" cy="480" rx="6" ry="6" fill="#000000" stroke="none"/>
<path d="M160,480 L128,480 " fill="none" stroke-width="4" stroke-linejoin="bevel" stroke-linecap="round" stroke="#000000"/>
<path d="M320,928 L128,928 " fill="none" stroke-width="4" stroke-linejoin="bevel" stroke-linecap="round" stroke="#000000"/>
<ellipse cx="112" cy="480" rx="6" ry="6" fill="none" stroke-width="4" stroke-linejoin="bevel" stroke-linecap="round" stroke="#000000"/>
<path d="M128,480 L118,480 " fill="none" stroke-width="4" stroke-linejoin="bevel" stroke-linecap="round" stroke="#000000"/>
<ellipse cx="112" cy="928" rx="6" ry="6" fill="none" stroke-width="4" stroke-linejoin="bevel" stroke-linecap="round" stroke="#000000"/>
<path d="M128,928 L118,928 " fill="none" stroke-width="4" stroke-linejoin="bevel" stroke-linecap="round" stroke="#000000"/>
<g transform="matrix(   1    0   -0    1 112 480)" fill="#000000">
<text stroke="none" font-family="Helvetica" font-size="40"><tspan x="-107" y="13">Clock</tspan>
</text></g>
<g transform="matrix(   1    0   -0    1 112 928)" fill="#000000">
<text stroke="none" font-family="Helvetica" font-size="40"><tspan x="-96" y="13">Data</tspan>
</text></g>
<g transform="matrix(   1    0   -0    1 848 352)" fill="#000000">
<text stroke="none" font-family="Helvetica" font-size="40"><tspan x="10" y="13">Q</tspan>
</text></g>
<path visibility="hidden" d="M0,0 L0,960 896,960 896,0 z" fill="none" stroke-width="2" stroke-linejoin="bevel" stroke-linecap="round" stroke="#adff2f"/>
</g>
</svg>