%TF.GenerationSoftware,KiCad,Pcbnew,5.1.7*%
%TF.CreationDate,2020-11-18T18:26:48+01:00*%
%TF.ProjectId,8bitCpu,38626974-4370-4752-9e6b-696361645f70,rev?*%
%TF.SameCoordinates,Original*%
%TF.FileFunction,Soldermask,Bot*%
%TF.FilePolarity,Negative*%
%FSLAX46Y46*%
G04 Gerber Fmt 4.6, Leading zero omitted, Abs format (unit mm)*
G04 Created by KiCad (PCBNEW 5.1.7) date 2020-11-18 18:26:48*
%MOMM*%
%LPD*%
G01*
G04 APERTURE LIST*
%ADD10C,3.200000*%
%ADD11C,1.600000*%
G04 APERTURE END LIST*
D10*
%TO.C,REF\u002A\u002A*%
X212090000Y-38100000D03*
%TD*%
%TO.C,REF\u002A\u002A*%
X212090000Y-96520000D03*
%TD*%
%TO.C,REF\u002A\u002A*%
X49530000Y-96520000D03*
%TD*%
%TO.C,REF\u002A\u002A*%
X49530000Y-38100000D03*
%TD*%
D11*
%TO.C,REF\u002A\u002A*%
X50800000Y-88900000D03*
X53340000Y-88900000D03*
X55880000Y-88900000D03*
X58420000Y-88900000D03*
X60960000Y-88900000D03*
X63500000Y-88900000D03*
X66040000Y-88900000D03*
X68580000Y-88900000D03*
X71120000Y-88900000D03*
X73660000Y-88900000D03*
X76200000Y-88900000D03*
X78740000Y-88900000D03*
X81280000Y-88900000D03*
X83820000Y-88900000D03*
X86360000Y-88900000D03*
X88900000Y-88900000D03*
X91440000Y-88900000D03*
X93980000Y-88900000D03*
X96520000Y-88900000D03*
X99060000Y-88900000D03*
X101600000Y-88900000D03*
X104140000Y-88900000D03*
X106680000Y-88900000D03*
X109220000Y-88900000D03*
X111760000Y-88900000D03*
X114300000Y-88900000D03*
X116840000Y-88900000D03*
X119380000Y-88900000D03*
X121920000Y-88900000D03*
X124460000Y-88900000D03*
X127000000Y-88900000D03*
X129540000Y-88900000D03*
X132080000Y-88900000D03*
X134620000Y-88900000D03*
X137160000Y-88900000D03*
X139700000Y-88900000D03*
X142240000Y-88900000D03*
X144780000Y-88900000D03*
X147320000Y-88900000D03*
X149860000Y-88900000D03*
X152400000Y-88900000D03*
X154940000Y-88900000D03*
X157480000Y-88900000D03*
X160020000Y-88900000D03*
X162560000Y-88900000D03*
X165100000Y-88900000D03*
X167640000Y-88900000D03*
X170180000Y-88900000D03*
X172720000Y-88900000D03*
X175260000Y-88900000D03*
X177800000Y-88900000D03*
X180340000Y-88900000D03*
X182880000Y-88900000D03*
X185420000Y-88900000D03*
X187960000Y-88900000D03*
X190500000Y-88900000D03*
X193040000Y-88900000D03*
X195580000Y-88900000D03*
X198120000Y-88900000D03*
X200660000Y-88900000D03*
X203200000Y-88900000D03*
X205740000Y-88900000D03*
X208280000Y-88900000D03*
X210820000Y-88900000D03*
%TD*%
%TO.C,REF\u002A\u002A*%
X210820000Y-91440000D03*
X208280000Y-91440000D03*
X205740000Y-91440000D03*
X203200000Y-91440000D03*
X200660000Y-91440000D03*
X198120000Y-91440000D03*
X195580000Y-91440000D03*
X193040000Y-91440000D03*
X190500000Y-91440000D03*
X187960000Y-91440000D03*
X185420000Y-91440000D03*
X182880000Y-91440000D03*
X180340000Y-91440000D03*
X177800000Y-91440000D03*
X175260000Y-91440000D03*
X172720000Y-91440000D03*
X170180000Y-91440000D03*
X167640000Y-91440000D03*
X165100000Y-91440000D03*
X162560000Y-91440000D03*
X160020000Y-91440000D03*
X157480000Y-91440000D03*
X154940000Y-91440000D03*
X152400000Y-91440000D03*
X149860000Y-91440000D03*
X147320000Y-91440000D03*
X144780000Y-91440000D03*
X142240000Y-91440000D03*
X139700000Y-91440000D03*
X137160000Y-91440000D03*
X134620000Y-91440000D03*
X132080000Y-91440000D03*
X129540000Y-91440000D03*
X127000000Y-91440000D03*
X124460000Y-91440000D03*
X121920000Y-91440000D03*
X119380000Y-91440000D03*
X116840000Y-91440000D03*
X114300000Y-91440000D03*
X111760000Y-91440000D03*
X109220000Y-91440000D03*
X106680000Y-91440000D03*
X104140000Y-91440000D03*
X101600000Y-91440000D03*
X99060000Y-91440000D03*
X96520000Y-91440000D03*
X93980000Y-91440000D03*
X91440000Y-91440000D03*
X88900000Y-91440000D03*
X86360000Y-91440000D03*
X83820000Y-91440000D03*
X81280000Y-91440000D03*
X78740000Y-91440000D03*
X76200000Y-91440000D03*
X73660000Y-91440000D03*
X71120000Y-91440000D03*
X68580000Y-91440000D03*
X66040000Y-91440000D03*
X63500000Y-91440000D03*
X60960000Y-91440000D03*
X58420000Y-91440000D03*
X55880000Y-91440000D03*
X53340000Y-91440000D03*
X50800000Y-91440000D03*
%TD*%
%TO.C,REF\u002A\u002A*%
X50800000Y-45720000D03*
X53340000Y-45720000D03*
X55880000Y-45720000D03*
X58420000Y-45720000D03*
X60960000Y-45720000D03*
X63500000Y-45720000D03*
X66040000Y-45720000D03*
X68580000Y-45720000D03*
X71120000Y-45720000D03*
X73660000Y-45720000D03*
X76200000Y-45720000D03*
X78740000Y-45720000D03*
X81280000Y-45720000D03*
X83820000Y-45720000D03*
X86360000Y-45720000D03*
X88900000Y-45720000D03*
X91440000Y-45720000D03*
X93980000Y-45720000D03*
X96520000Y-45720000D03*
X99060000Y-45720000D03*
X101600000Y-45720000D03*
X104140000Y-45720000D03*
X106680000Y-45720000D03*
X109220000Y-45720000D03*
X111760000Y-45720000D03*
X114300000Y-45720000D03*
X116840000Y-45720000D03*
X119380000Y-45720000D03*
X121920000Y-45720000D03*
X124460000Y-45720000D03*
X127000000Y-45720000D03*
X129540000Y-45720000D03*
X132080000Y-45720000D03*
X134620000Y-45720000D03*
X137160000Y-45720000D03*
X139700000Y-45720000D03*
X142240000Y-45720000D03*
X144780000Y-45720000D03*
X147320000Y-45720000D03*
X149860000Y-45720000D03*
X152400000Y-45720000D03*
X154940000Y-45720000D03*
X157480000Y-45720000D03*
X160020000Y-45720000D03*
X162560000Y-45720000D03*
X165100000Y-45720000D03*
X167640000Y-45720000D03*
X170180000Y-45720000D03*
X172720000Y-45720000D03*
X175260000Y-45720000D03*
X177800000Y-45720000D03*
X180340000Y-45720000D03*
X182880000Y-45720000D03*
X185420000Y-45720000D03*
X187960000Y-45720000D03*
X190500000Y-45720000D03*
X193040000Y-45720000D03*
X195580000Y-45720000D03*
X198120000Y-45720000D03*
X200660000Y-45720000D03*
X203200000Y-45720000D03*
X205740000Y-45720000D03*
X208280000Y-45720000D03*
X210820000Y-45720000D03*
%TD*%
%TO.C,REF\u002A\u002A*%
X50800000Y-81280000D03*
X50800000Y-78740000D03*
X50800000Y-76200000D03*
X50800000Y-73660000D03*
X50800000Y-71120000D03*
%TD*%
%TO.C,REF\u002A\u002A*%
X53340000Y-81280000D03*
X53340000Y-78740000D03*
X53340000Y-76200000D03*
X53340000Y-73660000D03*
X53340000Y-71120000D03*
%TD*%
%TO.C,REF\u002A\u002A*%
X55880000Y-81280000D03*
X55880000Y-78740000D03*
X55880000Y-76200000D03*
X55880000Y-73660000D03*
X55880000Y-71120000D03*
%TD*%
%TO.C,REF\u002A\u002A*%
X58420000Y-81280000D03*
X58420000Y-78740000D03*
X58420000Y-76200000D03*
X58420000Y-73660000D03*
X58420000Y-71120000D03*
%TD*%
%TO.C,REF\u002A\u002A*%
X60960000Y-81280000D03*
X60960000Y-78740000D03*
X60960000Y-76200000D03*
X60960000Y-73660000D03*
X60960000Y-71120000D03*
%TD*%
%TO.C,REF\u002A\u002A*%
X63500000Y-81280000D03*
X63500000Y-78740000D03*
X63500000Y-76200000D03*
X63500000Y-73660000D03*
X63500000Y-71120000D03*
%TD*%
%TO.C,REF\u002A\u002A*%
X66040000Y-81280000D03*
X66040000Y-78740000D03*
X66040000Y-76200000D03*
X66040000Y-73660000D03*
X66040000Y-71120000D03*
%TD*%
%TO.C,REF\u002A\u002A*%
X68580000Y-81280000D03*
X68580000Y-78740000D03*
X68580000Y-76200000D03*
X68580000Y-73660000D03*
X68580000Y-71120000D03*
%TD*%
%TO.C,REF\u002A\u002A*%
X83820000Y-81280000D03*
X83820000Y-78740000D03*
X83820000Y-76200000D03*
X83820000Y-73660000D03*
X83820000Y-71120000D03*
%TD*%
%TO.C,REF\u002A\u002A*%
X81280000Y-81280000D03*
X81280000Y-78740000D03*
X81280000Y-76200000D03*
X81280000Y-73660000D03*
X81280000Y-71120000D03*
%TD*%
%TO.C,REF\u002A\u002A*%
X86360000Y-81280000D03*
X86360000Y-78740000D03*
X86360000Y-76200000D03*
X86360000Y-73660000D03*
X86360000Y-71120000D03*
%TD*%
%TO.C,REF\u002A\u002A*%
X76200000Y-81280000D03*
X76200000Y-78740000D03*
X76200000Y-76200000D03*
X76200000Y-73660000D03*
X76200000Y-71120000D03*
%TD*%
%TO.C,REF\u002A\u002A*%
X71120000Y-81280000D03*
X71120000Y-78740000D03*
X71120000Y-76200000D03*
X71120000Y-73660000D03*
X71120000Y-71120000D03*
%TD*%
%TO.C,REF\u002A\u002A*%
X78740000Y-81280000D03*
X78740000Y-78740000D03*
X78740000Y-76200000D03*
X78740000Y-73660000D03*
X78740000Y-71120000D03*
%TD*%
%TO.C,REF\u002A\u002A*%
X88900000Y-81280000D03*
X88900000Y-78740000D03*
X88900000Y-76200000D03*
X88900000Y-73660000D03*
X88900000Y-71120000D03*
%TD*%
%TO.C,REF\u002A\u002A*%
X73660000Y-81280000D03*
X73660000Y-78740000D03*
X73660000Y-76200000D03*
X73660000Y-73660000D03*
X73660000Y-71120000D03*
%TD*%
%TO.C,REF\u002A\u002A*%
X104140000Y-81280000D03*
X104140000Y-78740000D03*
X104140000Y-76200000D03*
X104140000Y-73660000D03*
X104140000Y-71120000D03*
%TD*%
%TO.C,REF\u002A\u002A*%
X124460000Y-81280000D03*
X124460000Y-78740000D03*
X124460000Y-76200000D03*
X124460000Y-73660000D03*
X124460000Y-71120000D03*
%TD*%
%TO.C,REF\u002A\u002A*%
X101600000Y-81280000D03*
X101600000Y-78740000D03*
X101600000Y-76200000D03*
X101600000Y-73660000D03*
X101600000Y-71120000D03*
%TD*%
%TO.C,REF\u002A\u002A*%
X119380000Y-81280000D03*
X119380000Y-78740000D03*
X119380000Y-76200000D03*
X119380000Y-73660000D03*
X119380000Y-71120000D03*
%TD*%
%TO.C,REF\u002A\u002A*%
X106680000Y-81280000D03*
X106680000Y-78740000D03*
X106680000Y-76200000D03*
X106680000Y-73660000D03*
X106680000Y-71120000D03*
%TD*%
%TO.C,REF\u002A\u002A*%
X116840000Y-81280000D03*
X116840000Y-78740000D03*
X116840000Y-76200000D03*
X116840000Y-73660000D03*
X116840000Y-71120000D03*
%TD*%
%TO.C,REF\u002A\u002A*%
X111760000Y-81280000D03*
X111760000Y-78740000D03*
X111760000Y-76200000D03*
X111760000Y-73660000D03*
X111760000Y-71120000D03*
%TD*%
%TO.C,REF\u002A\u002A*%
X121920000Y-81280000D03*
X121920000Y-78740000D03*
X121920000Y-76200000D03*
X121920000Y-73660000D03*
X121920000Y-71120000D03*
%TD*%
%TO.C,REF\u002A\u002A*%
X96520000Y-81280000D03*
X96520000Y-78740000D03*
X96520000Y-76200000D03*
X96520000Y-73660000D03*
X96520000Y-71120000D03*
%TD*%
%TO.C,REF\u002A\u002A*%
X127000000Y-81280000D03*
X127000000Y-78740000D03*
X127000000Y-76200000D03*
X127000000Y-73660000D03*
X127000000Y-71120000D03*
%TD*%
%TO.C,REF\u002A\u002A*%
X129540000Y-81280000D03*
X129540000Y-78740000D03*
X129540000Y-76200000D03*
X129540000Y-73660000D03*
X129540000Y-71120000D03*
%TD*%
%TO.C,REF\u002A\u002A*%
X91440000Y-81280000D03*
X91440000Y-78740000D03*
X91440000Y-76200000D03*
X91440000Y-73660000D03*
X91440000Y-71120000D03*
%TD*%
%TO.C,REF\u002A\u002A*%
X99060000Y-81280000D03*
X99060000Y-78740000D03*
X99060000Y-76200000D03*
X99060000Y-73660000D03*
X99060000Y-71120000D03*
%TD*%
%TO.C,REF\u002A\u002A*%
X114300000Y-81280000D03*
X114300000Y-78740000D03*
X114300000Y-76200000D03*
X114300000Y-73660000D03*
X114300000Y-71120000D03*
%TD*%
%TO.C,REF\u002A\u002A*%
X109220000Y-81280000D03*
X109220000Y-78740000D03*
X109220000Y-76200000D03*
X109220000Y-73660000D03*
X109220000Y-71120000D03*
%TD*%
%TO.C,REF\u002A\u002A*%
X93980000Y-81280000D03*
X93980000Y-78740000D03*
X93980000Y-76200000D03*
X93980000Y-73660000D03*
X93980000Y-71120000D03*
%TD*%
%TO.C,REF\u002A\u002A*%
X144780000Y-81280000D03*
X144780000Y-78740000D03*
X144780000Y-76200000D03*
X144780000Y-73660000D03*
X144780000Y-71120000D03*
%TD*%
%TO.C,REF\u002A\u002A*%
X165100000Y-81280000D03*
X165100000Y-78740000D03*
X165100000Y-76200000D03*
X165100000Y-73660000D03*
X165100000Y-71120000D03*
%TD*%
%TO.C,REF\u002A\u002A*%
X142240000Y-81280000D03*
X142240000Y-78740000D03*
X142240000Y-76200000D03*
X142240000Y-73660000D03*
X142240000Y-71120000D03*
%TD*%
%TO.C,REF\u002A\u002A*%
X160020000Y-81280000D03*
X160020000Y-78740000D03*
X160020000Y-76200000D03*
X160020000Y-73660000D03*
X160020000Y-71120000D03*
%TD*%
%TO.C,REF\u002A\u002A*%
X147320000Y-81280000D03*
X147320000Y-78740000D03*
X147320000Y-76200000D03*
X147320000Y-73660000D03*
X147320000Y-71120000D03*
%TD*%
%TO.C,REF\u002A\u002A*%
X157480000Y-81280000D03*
X157480000Y-78740000D03*
X157480000Y-76200000D03*
X157480000Y-73660000D03*
X157480000Y-71120000D03*
%TD*%
%TO.C,REF\u002A\u002A*%
X152400000Y-81280000D03*
X152400000Y-78740000D03*
X152400000Y-76200000D03*
X152400000Y-73660000D03*
X152400000Y-71120000D03*
%TD*%
%TO.C,REF\u002A\u002A*%
X162560000Y-81280000D03*
X162560000Y-78740000D03*
X162560000Y-76200000D03*
X162560000Y-73660000D03*
X162560000Y-71120000D03*
%TD*%
%TO.C,REF\u002A\u002A*%
X137160000Y-81280000D03*
X137160000Y-78740000D03*
X137160000Y-76200000D03*
X137160000Y-73660000D03*
X137160000Y-71120000D03*
%TD*%
%TO.C,REF\u002A\u002A*%
X167640000Y-81280000D03*
X167640000Y-78740000D03*
X167640000Y-76200000D03*
X167640000Y-73660000D03*
X167640000Y-71120000D03*
%TD*%
%TO.C,REF\u002A\u002A*%
X170180000Y-81280000D03*
X170180000Y-78740000D03*
X170180000Y-76200000D03*
X170180000Y-73660000D03*
X170180000Y-71120000D03*
%TD*%
%TO.C,REF\u002A\u002A*%
X132080000Y-81280000D03*
X132080000Y-78740000D03*
X132080000Y-76200000D03*
X132080000Y-73660000D03*
X132080000Y-71120000D03*
%TD*%
%TO.C,REF\u002A\u002A*%
X139700000Y-81280000D03*
X139700000Y-78740000D03*
X139700000Y-76200000D03*
X139700000Y-73660000D03*
X139700000Y-71120000D03*
%TD*%
%TO.C,REF\u002A\u002A*%
X154940000Y-81280000D03*
X154940000Y-78740000D03*
X154940000Y-76200000D03*
X154940000Y-73660000D03*
X154940000Y-71120000D03*
%TD*%
%TO.C,REF\u002A\u002A*%
X149860000Y-81280000D03*
X149860000Y-78740000D03*
X149860000Y-76200000D03*
X149860000Y-73660000D03*
X149860000Y-71120000D03*
%TD*%
%TO.C,REF\u002A\u002A*%
X134620000Y-81280000D03*
X134620000Y-78740000D03*
X134620000Y-76200000D03*
X134620000Y-73660000D03*
X134620000Y-71120000D03*
%TD*%
%TO.C,REF\u002A\u002A*%
X185420000Y-81280000D03*
X185420000Y-78740000D03*
X185420000Y-76200000D03*
X185420000Y-73660000D03*
X185420000Y-71120000D03*
%TD*%
%TO.C,REF\u002A\u002A*%
X205740000Y-81280000D03*
X205740000Y-78740000D03*
X205740000Y-76200000D03*
X205740000Y-73660000D03*
X205740000Y-71120000D03*
%TD*%
%TO.C,REF\u002A\u002A*%
X182880000Y-81280000D03*
X182880000Y-78740000D03*
X182880000Y-76200000D03*
X182880000Y-73660000D03*
X182880000Y-71120000D03*
%TD*%
%TO.C,REF\u002A\u002A*%
X200660000Y-81280000D03*
X200660000Y-78740000D03*
X200660000Y-76200000D03*
X200660000Y-73660000D03*
X200660000Y-71120000D03*
%TD*%
%TO.C,REF\u002A\u002A*%
X187960000Y-81280000D03*
X187960000Y-78740000D03*
X187960000Y-76200000D03*
X187960000Y-73660000D03*
X187960000Y-71120000D03*
%TD*%
%TO.C,REF\u002A\u002A*%
X198120000Y-81280000D03*
X198120000Y-78740000D03*
X198120000Y-76200000D03*
X198120000Y-73660000D03*
X198120000Y-71120000D03*
%TD*%
%TO.C,REF\u002A\u002A*%
X193040000Y-81280000D03*
X193040000Y-78740000D03*
X193040000Y-76200000D03*
X193040000Y-73660000D03*
X193040000Y-71120000D03*
%TD*%
%TO.C,REF\u002A\u002A*%
X203200000Y-81280000D03*
X203200000Y-78740000D03*
X203200000Y-76200000D03*
X203200000Y-73660000D03*
X203200000Y-71120000D03*
%TD*%
%TO.C,REF\u002A\u002A*%
X177800000Y-81280000D03*
X177800000Y-78740000D03*
X177800000Y-76200000D03*
X177800000Y-73660000D03*
X177800000Y-71120000D03*
%TD*%
%TO.C,REF\u002A\u002A*%
X208280000Y-81280000D03*
X208280000Y-78740000D03*
X208280000Y-76200000D03*
X208280000Y-73660000D03*
X208280000Y-71120000D03*
%TD*%
%TO.C,REF\u002A\u002A*%
X210820000Y-81280000D03*
X210820000Y-78740000D03*
X210820000Y-76200000D03*
X210820000Y-73660000D03*
X210820000Y-71120000D03*
%TD*%
%TO.C,REF\u002A\u002A*%
X172720000Y-81280000D03*
X172720000Y-78740000D03*
X172720000Y-76200000D03*
X172720000Y-73660000D03*
X172720000Y-71120000D03*
%TD*%
%TO.C,REF\u002A\u002A*%
X180340000Y-81280000D03*
X180340000Y-78740000D03*
X180340000Y-76200000D03*
X180340000Y-73660000D03*
X180340000Y-71120000D03*
%TD*%
%TO.C,REF\u002A\u002A*%
X195580000Y-81280000D03*
X195580000Y-78740000D03*
X195580000Y-76200000D03*
X195580000Y-73660000D03*
X195580000Y-71120000D03*
%TD*%
%TO.C,REF\u002A\u002A*%
X190500000Y-81280000D03*
X190500000Y-78740000D03*
X190500000Y-76200000D03*
X190500000Y-73660000D03*
X190500000Y-71120000D03*
%TD*%
%TO.C,REF\u002A\u002A*%
X175260000Y-81280000D03*
X175260000Y-78740000D03*
X175260000Y-76200000D03*
X175260000Y-73660000D03*
X175260000Y-71120000D03*
%TD*%
%TO.C,REF\u002A\u002A*%
X106680000Y-53340000D03*
X106680000Y-55880000D03*
X106680000Y-58420000D03*
X106680000Y-60960000D03*
X106680000Y-63500000D03*
%TD*%
%TO.C,REF\u002A\u002A*%
X198120000Y-53340000D03*
X198120000Y-55880000D03*
X198120000Y-58420000D03*
X198120000Y-60960000D03*
X198120000Y-63500000D03*
%TD*%
%TO.C,REF\u002A\u002A*%
X177800000Y-53340000D03*
X177800000Y-55880000D03*
X177800000Y-58420000D03*
X177800000Y-60960000D03*
X177800000Y-63500000D03*
%TD*%
%TO.C,REF\u002A\u002A*%
X121920000Y-53340000D03*
X121920000Y-55880000D03*
X121920000Y-58420000D03*
X121920000Y-60960000D03*
X121920000Y-63500000D03*
%TD*%
%TO.C,REF\u002A\u002A*%
X165100000Y-53340000D03*
X165100000Y-55880000D03*
X165100000Y-58420000D03*
X165100000Y-60960000D03*
X165100000Y-63500000D03*
%TD*%
%TO.C,REF\u002A\u002A*%
X124460000Y-53340000D03*
X124460000Y-55880000D03*
X124460000Y-58420000D03*
X124460000Y-60960000D03*
X124460000Y-63500000D03*
%TD*%
%TO.C,REF\u002A\u002A*%
X101600000Y-53340000D03*
X101600000Y-55880000D03*
X101600000Y-58420000D03*
X101600000Y-60960000D03*
X101600000Y-63500000D03*
%TD*%
%TO.C,REF\u002A\u002A*%
X114300000Y-53340000D03*
X114300000Y-55880000D03*
X114300000Y-58420000D03*
X114300000Y-60960000D03*
X114300000Y-63500000D03*
%TD*%
%TO.C,REF\u002A\u002A*%
X66040000Y-53340000D03*
X66040000Y-55880000D03*
X66040000Y-58420000D03*
X66040000Y-60960000D03*
X66040000Y-63500000D03*
%TD*%
%TO.C,REF\u002A\u002A*%
X116840000Y-53340000D03*
X116840000Y-55880000D03*
X116840000Y-58420000D03*
X116840000Y-60960000D03*
X116840000Y-63500000D03*
%TD*%
%TO.C,REF\u002A\u002A*%
X83820000Y-53340000D03*
X83820000Y-55880000D03*
X83820000Y-58420000D03*
X83820000Y-60960000D03*
X83820000Y-63500000D03*
%TD*%
%TO.C,REF\u002A\u002A*%
X127000000Y-53340000D03*
X127000000Y-55880000D03*
X127000000Y-58420000D03*
X127000000Y-60960000D03*
X127000000Y-63500000D03*
%TD*%
%TO.C,REF\u002A\u002A*%
X63500000Y-53340000D03*
X63500000Y-55880000D03*
X63500000Y-58420000D03*
X63500000Y-60960000D03*
X63500000Y-63500000D03*
%TD*%
%TO.C,REF\u002A\u002A*%
X91440000Y-53340000D03*
X91440000Y-55880000D03*
X91440000Y-58420000D03*
X91440000Y-60960000D03*
X91440000Y-63500000D03*
%TD*%
%TO.C,REF\u002A\u002A*%
X76200000Y-53340000D03*
X76200000Y-55880000D03*
X76200000Y-58420000D03*
X76200000Y-60960000D03*
X76200000Y-63500000D03*
%TD*%
%TO.C,REF\u002A\u002A*%
X68580000Y-53340000D03*
X68580000Y-55880000D03*
X68580000Y-58420000D03*
X68580000Y-60960000D03*
X68580000Y-63500000D03*
%TD*%
%TO.C,REF\u002A\u002A*%
X58420000Y-53340000D03*
X58420000Y-55880000D03*
X58420000Y-58420000D03*
X58420000Y-60960000D03*
X58420000Y-63500000D03*
%TD*%
%TO.C,REF\u002A\u002A*%
X200660000Y-53340000D03*
X200660000Y-55880000D03*
X200660000Y-58420000D03*
X200660000Y-60960000D03*
X200660000Y-63500000D03*
%TD*%
%TO.C,REF\u002A\u002A*%
X81280000Y-53340000D03*
X81280000Y-55880000D03*
X81280000Y-58420000D03*
X81280000Y-60960000D03*
X81280000Y-63500000D03*
%TD*%
%TO.C,REF\u002A\u002A*%
X109220000Y-53340000D03*
X109220000Y-55880000D03*
X109220000Y-58420000D03*
X109220000Y-60960000D03*
X109220000Y-63500000D03*
%TD*%
%TO.C,REF\u002A\u002A*%
X73660000Y-53340000D03*
X73660000Y-55880000D03*
X73660000Y-58420000D03*
X73660000Y-60960000D03*
X73660000Y-63500000D03*
%TD*%
%TO.C,REF\u002A\u002A*%
X86360000Y-53340000D03*
X86360000Y-55880000D03*
X86360000Y-58420000D03*
X86360000Y-60960000D03*
X86360000Y-63500000D03*
%TD*%
%TO.C,REF\u002A\u002A*%
X55880000Y-53340000D03*
X55880000Y-55880000D03*
X55880000Y-58420000D03*
X55880000Y-60960000D03*
X55880000Y-63500000D03*
%TD*%
%TO.C,REF\u002A\u002A*%
X182880000Y-53340000D03*
X182880000Y-55880000D03*
X182880000Y-58420000D03*
X182880000Y-60960000D03*
X182880000Y-63500000D03*
%TD*%
%TO.C,REF\u002A\u002A*%
X53340000Y-53340000D03*
X53340000Y-55880000D03*
X53340000Y-58420000D03*
X53340000Y-60960000D03*
X53340000Y-63500000D03*
%TD*%
%TO.C,REF\u002A\u002A*%
X104140000Y-53340000D03*
X104140000Y-55880000D03*
X104140000Y-58420000D03*
X104140000Y-60960000D03*
X104140000Y-63500000D03*
%TD*%
%TO.C,REF\u002A\u002A*%
X195580000Y-53340000D03*
X195580000Y-55880000D03*
X195580000Y-58420000D03*
X195580000Y-60960000D03*
X195580000Y-63500000D03*
%TD*%
%TO.C,REF\u002A\u002A*%
X119380000Y-53340000D03*
X119380000Y-55880000D03*
X119380000Y-58420000D03*
X119380000Y-60960000D03*
X119380000Y-63500000D03*
%TD*%
%TO.C,REF\u002A\u002A*%
X185420000Y-53340000D03*
X185420000Y-55880000D03*
X185420000Y-58420000D03*
X185420000Y-60960000D03*
X185420000Y-63500000D03*
%TD*%
%TO.C,REF\u002A\u002A*%
X93980000Y-53340000D03*
X93980000Y-55880000D03*
X93980000Y-58420000D03*
X93980000Y-60960000D03*
X93980000Y-63500000D03*
%TD*%
%TO.C,REF\u002A\u002A*%
X190500000Y-53340000D03*
X190500000Y-55880000D03*
X190500000Y-58420000D03*
X190500000Y-60960000D03*
X190500000Y-63500000D03*
%TD*%
%TO.C,REF\u002A\u002A*%
X180340000Y-53340000D03*
X180340000Y-55880000D03*
X180340000Y-58420000D03*
X180340000Y-60960000D03*
X180340000Y-63500000D03*
%TD*%
%TO.C,REF\u002A\u002A*%
X205740000Y-53340000D03*
X205740000Y-55880000D03*
X205740000Y-58420000D03*
X205740000Y-60960000D03*
X205740000Y-63500000D03*
%TD*%
%TO.C,REF\u002A\u002A*%
X88900000Y-53340000D03*
X88900000Y-55880000D03*
X88900000Y-58420000D03*
X88900000Y-60960000D03*
X88900000Y-63500000D03*
%TD*%
%TO.C,REF\u002A\u002A*%
X129540000Y-53340000D03*
X129540000Y-55880000D03*
X129540000Y-58420000D03*
X129540000Y-60960000D03*
X129540000Y-63500000D03*
%TD*%
%TO.C,REF\u002A\u002A*%
X60960000Y-53340000D03*
X60960000Y-55880000D03*
X60960000Y-58420000D03*
X60960000Y-60960000D03*
X60960000Y-63500000D03*
%TD*%
%TO.C,REF\u002A\u002A*%
X142240000Y-53340000D03*
X142240000Y-55880000D03*
X142240000Y-58420000D03*
X142240000Y-60960000D03*
X142240000Y-63500000D03*
%TD*%
%TO.C,REF\u002A\u002A*%
X160020000Y-53340000D03*
X160020000Y-55880000D03*
X160020000Y-58420000D03*
X160020000Y-60960000D03*
X160020000Y-63500000D03*
%TD*%
%TO.C,REF\u002A\u002A*%
X50800000Y-53340000D03*
X50800000Y-55880000D03*
X50800000Y-58420000D03*
X50800000Y-60960000D03*
X50800000Y-63500000D03*
%TD*%
%TO.C,REF\u002A\u002A*%
X152400000Y-53340000D03*
X152400000Y-55880000D03*
X152400000Y-58420000D03*
X152400000Y-60960000D03*
X152400000Y-63500000D03*
%TD*%
%TO.C,REF\u002A\u002A*%
X71120000Y-53340000D03*
X71120000Y-55880000D03*
X71120000Y-58420000D03*
X71120000Y-60960000D03*
X71120000Y-63500000D03*
%TD*%
%TO.C,REF\u002A\u002A*%
X111760000Y-53340000D03*
X111760000Y-55880000D03*
X111760000Y-58420000D03*
X111760000Y-60960000D03*
X111760000Y-63500000D03*
%TD*%
%TO.C,REF\u002A\u002A*%
X132080000Y-53340000D03*
X132080000Y-55880000D03*
X132080000Y-58420000D03*
X132080000Y-60960000D03*
X132080000Y-63500000D03*
%TD*%
%TO.C,REF\u002A\u002A*%
X175260000Y-53340000D03*
X175260000Y-55880000D03*
X175260000Y-58420000D03*
X175260000Y-60960000D03*
X175260000Y-63500000D03*
%TD*%
%TO.C,REF\u002A\u002A*%
X172720000Y-53340000D03*
X172720000Y-55880000D03*
X172720000Y-58420000D03*
X172720000Y-60960000D03*
X172720000Y-63500000D03*
%TD*%
%TO.C,REF\u002A\u002A*%
X170180000Y-53340000D03*
X170180000Y-55880000D03*
X170180000Y-58420000D03*
X170180000Y-60960000D03*
X170180000Y-63500000D03*
%TD*%
%TO.C,REF\u002A\u002A*%
X78740000Y-53340000D03*
X78740000Y-55880000D03*
X78740000Y-58420000D03*
X78740000Y-60960000D03*
X78740000Y-63500000D03*
%TD*%
%TO.C,REF\u002A\u002A*%
X210820000Y-53340000D03*
X210820000Y-55880000D03*
X210820000Y-58420000D03*
X210820000Y-60960000D03*
X210820000Y-63500000D03*
%TD*%
%TO.C,REF\u002A\u002A*%
X137160000Y-53340000D03*
X137160000Y-55880000D03*
X137160000Y-58420000D03*
X137160000Y-60960000D03*
X137160000Y-63500000D03*
%TD*%
%TO.C,REF\u002A\u002A*%
X134620000Y-53340000D03*
X134620000Y-55880000D03*
X134620000Y-58420000D03*
X134620000Y-60960000D03*
X134620000Y-63500000D03*
%TD*%
%TO.C,REF\u002A\u002A*%
X149860000Y-53340000D03*
X149860000Y-55880000D03*
X149860000Y-58420000D03*
X149860000Y-60960000D03*
X149860000Y-63500000D03*
%TD*%
%TO.C,REF\u002A\u002A*%
X162560000Y-53340000D03*
X162560000Y-55880000D03*
X162560000Y-58420000D03*
X162560000Y-60960000D03*
X162560000Y-63500000D03*
%TD*%
%TO.C,REF\u002A\u002A*%
X147320000Y-53340000D03*
X147320000Y-55880000D03*
X147320000Y-58420000D03*
X147320000Y-60960000D03*
X147320000Y-63500000D03*
%TD*%
%TO.C,REF\u002A\u002A*%
X139700000Y-53340000D03*
X139700000Y-55880000D03*
X139700000Y-58420000D03*
X139700000Y-60960000D03*
X139700000Y-63500000D03*
%TD*%
%TO.C,REF\u002A\u002A*%
X203200000Y-53340000D03*
X203200000Y-55880000D03*
X203200000Y-58420000D03*
X203200000Y-60960000D03*
X203200000Y-63500000D03*
%TD*%
%TO.C,REF\u002A\u002A*%
X187960000Y-53340000D03*
X187960000Y-55880000D03*
X187960000Y-58420000D03*
X187960000Y-60960000D03*
X187960000Y-63500000D03*
%TD*%
%TO.C,REF\u002A\u002A*%
X193040000Y-53340000D03*
X193040000Y-55880000D03*
X193040000Y-58420000D03*
X193040000Y-60960000D03*
X193040000Y-63500000D03*
%TD*%
%TO.C,REF\u002A\u002A*%
X144780000Y-53340000D03*
X144780000Y-55880000D03*
X144780000Y-58420000D03*
X144780000Y-60960000D03*
X144780000Y-63500000D03*
%TD*%
%TO.C,REF\u002A\u002A*%
X154940000Y-53340000D03*
X154940000Y-55880000D03*
X154940000Y-58420000D03*
X154940000Y-60960000D03*
X154940000Y-63500000D03*
%TD*%
%TO.C,REF\u002A\u002A*%
X167640000Y-53340000D03*
X167640000Y-55880000D03*
X167640000Y-58420000D03*
X167640000Y-60960000D03*
X167640000Y-63500000D03*
%TD*%
%TO.C,REF\u002A\u002A*%
X96520000Y-53340000D03*
X96520000Y-55880000D03*
X96520000Y-58420000D03*
X96520000Y-60960000D03*
X96520000Y-63500000D03*
%TD*%
%TO.C,REF\u002A\u002A*%
X99060000Y-53340000D03*
X99060000Y-55880000D03*
X99060000Y-58420000D03*
X99060000Y-60960000D03*
X99060000Y-63500000D03*
%TD*%
%TO.C,REF\u002A\u002A*%
X157480000Y-53340000D03*
X157480000Y-55880000D03*
X157480000Y-58420000D03*
X157480000Y-60960000D03*
X157480000Y-63500000D03*
%TD*%
%TO.C,REF\u002A\u002A*%
X208280000Y-53340000D03*
X208280000Y-55880000D03*
X208280000Y-58420000D03*
X208280000Y-60960000D03*
X208280000Y-63500000D03*
%TD*%
%TO.C,REF\u002A\u002A*%
X210820000Y-43180000D03*
X208280000Y-43180000D03*
X205740000Y-43180000D03*
X203200000Y-43180000D03*
X200660000Y-43180000D03*
X198120000Y-43180000D03*
X195580000Y-43180000D03*
X193040000Y-43180000D03*
X190500000Y-43180000D03*
X187960000Y-43180000D03*
X185420000Y-43180000D03*
X182880000Y-43180000D03*
X180340000Y-43180000D03*
X177800000Y-43180000D03*
X175260000Y-43180000D03*
X172720000Y-43180000D03*
X170180000Y-43180000D03*
X167640000Y-43180000D03*
X165100000Y-43180000D03*
X162560000Y-43180000D03*
X160020000Y-43180000D03*
X157480000Y-43180000D03*
X154940000Y-43180000D03*
X152400000Y-43180000D03*
X149860000Y-43180000D03*
X147320000Y-43180000D03*
X144780000Y-43180000D03*
X142240000Y-43180000D03*
X139700000Y-43180000D03*
X137160000Y-43180000D03*
X134620000Y-43180000D03*
X132080000Y-43180000D03*
X129540000Y-43180000D03*
X127000000Y-43180000D03*
X124460000Y-43180000D03*
X121920000Y-43180000D03*
X119380000Y-43180000D03*
X116840000Y-43180000D03*
X114300000Y-43180000D03*
X111760000Y-43180000D03*
X109220000Y-43180000D03*
X106680000Y-43180000D03*
X104140000Y-43180000D03*
X101600000Y-43180000D03*
X99060000Y-43180000D03*
X96520000Y-43180000D03*
X93980000Y-43180000D03*
X91440000Y-43180000D03*
X88900000Y-43180000D03*
X86360000Y-43180000D03*
X83820000Y-43180000D03*
X81280000Y-43180000D03*
X78740000Y-43180000D03*
X76200000Y-43180000D03*
X73660000Y-43180000D03*
X71120000Y-43180000D03*
X68580000Y-43180000D03*
X66040000Y-43180000D03*
X63500000Y-43180000D03*
X60960000Y-43180000D03*
X58420000Y-43180000D03*
X55880000Y-43180000D03*
X53340000Y-43180000D03*
X50800000Y-43180000D03*
%TD*%
M02*
