%TF.GenerationSoftware,KiCad,Pcbnew,5.1.7*%
%TF.CreationDate,2020-11-18T18:26:48+01:00*%
%TF.ProjectId,8bitCpu,38626974-4370-4752-9e6b-696361645f70,rev?*%
%TF.SameCoordinates,Original*%
%TF.FileFunction,Copper,L2,Bot*%
%TF.FilePolarity,Positive*%
%FSLAX46Y46*%
G04 Gerber Fmt 4.6, Leading zero omitted, Abs format (unit mm)*
G04 Created by KiCad (PCBNEW 5.1.7) date 2020-11-18 18:26:48*
%MOMM*%
%LPD*%
G01*
G04 APERTURE LIST*
%TA.AperFunction,ComponentPad*%
%ADD10C,1.600000*%
%TD*%
%TA.AperFunction,Conductor*%
%ADD11C,0.500000*%
%TD*%
%TA.AperFunction,Conductor*%
%ADD12C,1.500000*%
%TD*%
%TA.AperFunction,Conductor*%
%ADD13C,1.000000*%
%TD*%
G04 APERTURE END LIST*
D10*
%TO.P,REF\u002A\u002A,1*%
%TO.N,N/C*%
X50800000Y-88900000D03*
%TO.P,REF\u002A\u002A,2*%
X53340000Y-88900000D03*
%TO.P,REF\u002A\u002A,3*%
X55880000Y-88900000D03*
%TO.P,REF\u002A\u002A,4*%
X58420000Y-88900000D03*
%TO.P,REF\u002A\u002A,5*%
X60960000Y-88900000D03*
%TO.P,REF\u002A\u002A,6*%
X63500000Y-88900000D03*
%TO.P,REF\u002A\u002A,7*%
X66040000Y-88900000D03*
%TO.P,REF\u002A\u002A,8*%
X68580000Y-88900000D03*
%TO.P,REF\u002A\u002A,9*%
X71120000Y-88900000D03*
%TO.P,REF\u002A\u002A,10*%
X73660000Y-88900000D03*
%TO.P,REF\u002A\u002A,11*%
X76200000Y-88900000D03*
%TO.P,REF\u002A\u002A,12*%
X78740000Y-88900000D03*
%TO.P,REF\u002A\u002A,13*%
X81280000Y-88900000D03*
%TO.P,REF\u002A\u002A,14*%
X83820000Y-88900000D03*
%TO.P,REF\u002A\u002A,15*%
X86360000Y-88900000D03*
%TO.P,REF\u002A\u002A,16*%
X88900000Y-88900000D03*
%TO.P,REF\u002A\u002A,17*%
X91440000Y-88900000D03*
%TO.P,REF\u002A\u002A,18*%
X93980000Y-88900000D03*
%TO.P,REF\u002A\u002A,19*%
X96520000Y-88900000D03*
%TO.P,REF\u002A\u002A,20*%
X99060000Y-88900000D03*
%TO.P,REF\u002A\u002A,21*%
X101600000Y-88900000D03*
%TO.P,REF\u002A\u002A,22*%
X104140000Y-88900000D03*
%TO.P,REF\u002A\u002A,23*%
X106680000Y-88900000D03*
%TO.P,REF\u002A\u002A,24*%
X109220000Y-88900000D03*
%TO.P,REF\u002A\u002A,25*%
X111760000Y-88900000D03*
%TO.P,REF\u002A\u002A,26*%
X114300000Y-88900000D03*
%TO.P,REF\u002A\u002A,27*%
X116840000Y-88900000D03*
%TO.P,REF\u002A\u002A,28*%
X119380000Y-88900000D03*
%TO.P,REF\u002A\u002A,29*%
X121920000Y-88900000D03*
%TO.P,REF\u002A\u002A,30*%
X124460000Y-88900000D03*
%TO.P,REF\u002A\u002A,31*%
X127000000Y-88900000D03*
%TO.P,REF\u002A\u002A,32*%
X129540000Y-88900000D03*
%TO.P,REF\u002A\u002A,33*%
X132080000Y-88900000D03*
%TO.P,REF\u002A\u002A,34*%
X134620000Y-88900000D03*
%TO.P,REF\u002A\u002A,35*%
X137160000Y-88900000D03*
%TO.P,REF\u002A\u002A,36*%
X139700000Y-88900000D03*
%TO.P,REF\u002A\u002A,37*%
X142240000Y-88900000D03*
%TO.P,REF\u002A\u002A,38*%
X144780000Y-88900000D03*
%TO.P,REF\u002A\u002A,39*%
X147320000Y-88900000D03*
%TO.P,REF\u002A\u002A,40*%
X149860000Y-88900000D03*
%TO.P,REF\u002A\u002A,41*%
X152400000Y-88900000D03*
%TO.P,REF\u002A\u002A,42*%
X154940000Y-88900000D03*
%TO.P,REF\u002A\u002A,43*%
X157480000Y-88900000D03*
%TO.P,REF\u002A\u002A,44*%
X160020000Y-88900000D03*
%TO.P,REF\u002A\u002A,45*%
X162560000Y-88900000D03*
%TO.P,REF\u002A\u002A,46*%
X165100000Y-88900000D03*
%TO.P,REF\u002A\u002A,47*%
X167640000Y-88900000D03*
%TO.P,REF\u002A\u002A,48*%
X170180000Y-88900000D03*
%TO.P,REF\u002A\u002A,49*%
X172720000Y-88900000D03*
%TO.P,REF\u002A\u002A,50*%
X175260000Y-88900000D03*
%TO.P,REF\u002A\u002A,51*%
X177800000Y-88900000D03*
%TO.P,REF\u002A\u002A,52*%
X180340000Y-88900000D03*
%TO.P,REF\u002A\u002A,53*%
X182880000Y-88900000D03*
%TO.P,REF\u002A\u002A,54*%
X185420000Y-88900000D03*
%TO.P,REF\u002A\u002A,55*%
X187960000Y-88900000D03*
%TO.P,REF\u002A\u002A,56*%
X190500000Y-88900000D03*
%TO.P,REF\u002A\u002A,57*%
X193040000Y-88900000D03*
%TO.P,REF\u002A\u002A,58*%
X195580000Y-88900000D03*
%TO.P,REF\u002A\u002A,59*%
X198120000Y-88900000D03*
%TO.P,REF\u002A\u002A,60*%
X200660000Y-88900000D03*
%TO.P,REF\u002A\u002A,61*%
X203200000Y-88900000D03*
%TO.P,REF\u002A\u002A,62*%
X205740000Y-88900000D03*
%TO.P,REF\u002A\u002A,63*%
X208280000Y-88900000D03*
%TO.P,REF\u002A\u002A,64*%
X210820000Y-88900000D03*
%TD*%
%TO.P,REF\u002A\u002A,64*%
%TO.N,N/C*%
X210820000Y-91440000D03*
%TO.P,REF\u002A\u002A,63*%
X208280000Y-91440000D03*
%TO.P,REF\u002A\u002A,62*%
X205740000Y-91440000D03*
%TO.P,REF\u002A\u002A,61*%
X203200000Y-91440000D03*
%TO.P,REF\u002A\u002A,60*%
X200660000Y-91440000D03*
%TO.P,REF\u002A\u002A,59*%
X198120000Y-91440000D03*
%TO.P,REF\u002A\u002A,58*%
X195580000Y-91440000D03*
%TO.P,REF\u002A\u002A,57*%
X193040000Y-91440000D03*
%TO.P,REF\u002A\u002A,56*%
X190500000Y-91440000D03*
%TO.P,REF\u002A\u002A,55*%
X187960000Y-91440000D03*
%TO.P,REF\u002A\u002A,54*%
X185420000Y-91440000D03*
%TO.P,REF\u002A\u002A,53*%
X182880000Y-91440000D03*
%TO.P,REF\u002A\u002A,52*%
X180340000Y-91440000D03*
%TO.P,REF\u002A\u002A,51*%
X177800000Y-91440000D03*
%TO.P,REF\u002A\u002A,50*%
X175260000Y-91440000D03*
%TO.P,REF\u002A\u002A,49*%
X172720000Y-91440000D03*
%TO.P,REF\u002A\u002A,48*%
X170180000Y-91440000D03*
%TO.P,REF\u002A\u002A,47*%
X167640000Y-91440000D03*
%TO.P,REF\u002A\u002A,46*%
X165100000Y-91440000D03*
%TO.P,REF\u002A\u002A,45*%
X162560000Y-91440000D03*
%TO.P,REF\u002A\u002A,44*%
X160020000Y-91440000D03*
%TO.P,REF\u002A\u002A,43*%
X157480000Y-91440000D03*
%TO.P,REF\u002A\u002A,42*%
X154940000Y-91440000D03*
%TO.P,REF\u002A\u002A,41*%
X152400000Y-91440000D03*
%TO.P,REF\u002A\u002A,40*%
X149860000Y-91440000D03*
%TO.P,REF\u002A\u002A,39*%
X147320000Y-91440000D03*
%TO.P,REF\u002A\u002A,38*%
X144780000Y-91440000D03*
%TO.P,REF\u002A\u002A,37*%
X142240000Y-91440000D03*
%TO.P,REF\u002A\u002A,36*%
X139700000Y-91440000D03*
%TO.P,REF\u002A\u002A,35*%
X137160000Y-91440000D03*
%TO.P,REF\u002A\u002A,34*%
X134620000Y-91440000D03*
%TO.P,REF\u002A\u002A,33*%
X132080000Y-91440000D03*
%TO.P,REF\u002A\u002A,32*%
X129540000Y-91440000D03*
%TO.P,REF\u002A\u002A,31*%
X127000000Y-91440000D03*
%TO.P,REF\u002A\u002A,30*%
X124460000Y-91440000D03*
%TO.P,REF\u002A\u002A,29*%
X121920000Y-91440000D03*
%TO.P,REF\u002A\u002A,28*%
X119380000Y-91440000D03*
%TO.P,REF\u002A\u002A,27*%
X116840000Y-91440000D03*
%TO.P,REF\u002A\u002A,26*%
X114300000Y-91440000D03*
%TO.P,REF\u002A\u002A,25*%
X111760000Y-91440000D03*
%TO.P,REF\u002A\u002A,24*%
X109220000Y-91440000D03*
%TO.P,REF\u002A\u002A,23*%
X106680000Y-91440000D03*
%TO.P,REF\u002A\u002A,22*%
X104140000Y-91440000D03*
%TO.P,REF\u002A\u002A,21*%
X101600000Y-91440000D03*
%TO.P,REF\u002A\u002A,20*%
X99060000Y-91440000D03*
%TO.P,REF\u002A\u002A,19*%
X96520000Y-91440000D03*
%TO.P,REF\u002A\u002A,18*%
X93980000Y-91440000D03*
%TO.P,REF\u002A\u002A,17*%
X91440000Y-91440000D03*
%TO.P,REF\u002A\u002A,16*%
X88900000Y-91440000D03*
%TO.P,REF\u002A\u002A,15*%
X86360000Y-91440000D03*
%TO.P,REF\u002A\u002A,14*%
X83820000Y-91440000D03*
%TO.P,REF\u002A\u002A,13*%
X81280000Y-91440000D03*
%TO.P,REF\u002A\u002A,12*%
X78740000Y-91440000D03*
%TO.P,REF\u002A\u002A,11*%
X76200000Y-91440000D03*
%TO.P,REF\u002A\u002A,10*%
X73660000Y-91440000D03*
%TO.P,REF\u002A\u002A,9*%
X71120000Y-91440000D03*
%TO.P,REF\u002A\u002A,8*%
X68580000Y-91440000D03*
%TO.P,REF\u002A\u002A,7*%
X66040000Y-91440000D03*
%TO.P,REF\u002A\u002A,6*%
X63500000Y-91440000D03*
%TO.P,REF\u002A\u002A,5*%
X60960000Y-91440000D03*
%TO.P,REF\u002A\u002A,4*%
X58420000Y-91440000D03*
%TO.P,REF\u002A\u002A,3*%
X55880000Y-91440000D03*
%TO.P,REF\u002A\u002A,2*%
X53340000Y-91440000D03*
%TO.P,REF\u002A\u002A,1*%
X50800000Y-91440000D03*
%TD*%
%TO.P,REF\u002A\u002A,1*%
%TO.N,N/C*%
X50800000Y-45720000D03*
%TO.P,REF\u002A\u002A,2*%
X53340000Y-45720000D03*
%TO.P,REF\u002A\u002A,3*%
X55880000Y-45720000D03*
%TO.P,REF\u002A\u002A,4*%
X58420000Y-45720000D03*
%TO.P,REF\u002A\u002A,5*%
X60960000Y-45720000D03*
%TO.P,REF\u002A\u002A,6*%
X63500000Y-45720000D03*
%TO.P,REF\u002A\u002A,7*%
X66040000Y-45720000D03*
%TO.P,REF\u002A\u002A,8*%
X68580000Y-45720000D03*
%TO.P,REF\u002A\u002A,9*%
X71120000Y-45720000D03*
%TO.P,REF\u002A\u002A,10*%
X73660000Y-45720000D03*
%TO.P,REF\u002A\u002A,11*%
X76200000Y-45720000D03*
%TO.P,REF\u002A\u002A,12*%
X78740000Y-45720000D03*
%TO.P,REF\u002A\u002A,13*%
X81280000Y-45720000D03*
%TO.P,REF\u002A\u002A,14*%
X83820000Y-45720000D03*
%TO.P,REF\u002A\u002A,15*%
X86360000Y-45720000D03*
%TO.P,REF\u002A\u002A,16*%
X88900000Y-45720000D03*
%TO.P,REF\u002A\u002A,17*%
X91440000Y-45720000D03*
%TO.P,REF\u002A\u002A,18*%
X93980000Y-45720000D03*
%TO.P,REF\u002A\u002A,19*%
X96520000Y-45720000D03*
%TO.P,REF\u002A\u002A,20*%
X99060000Y-45720000D03*
%TO.P,REF\u002A\u002A,21*%
X101600000Y-45720000D03*
%TO.P,REF\u002A\u002A,22*%
X104140000Y-45720000D03*
%TO.P,REF\u002A\u002A,23*%
X106680000Y-45720000D03*
%TO.P,REF\u002A\u002A,24*%
X109220000Y-45720000D03*
%TO.P,REF\u002A\u002A,25*%
X111760000Y-45720000D03*
%TO.P,REF\u002A\u002A,26*%
X114300000Y-45720000D03*
%TO.P,REF\u002A\u002A,27*%
X116840000Y-45720000D03*
%TO.P,REF\u002A\u002A,28*%
X119380000Y-45720000D03*
%TO.P,REF\u002A\u002A,29*%
X121920000Y-45720000D03*
%TO.P,REF\u002A\u002A,30*%
X124460000Y-45720000D03*
%TO.P,REF\u002A\u002A,31*%
X127000000Y-45720000D03*
%TO.P,REF\u002A\u002A,32*%
X129540000Y-45720000D03*
%TO.P,REF\u002A\u002A,33*%
X132080000Y-45720000D03*
%TO.P,REF\u002A\u002A,34*%
X134620000Y-45720000D03*
%TO.P,REF\u002A\u002A,35*%
X137160000Y-45720000D03*
%TO.P,REF\u002A\u002A,36*%
X139700000Y-45720000D03*
%TO.P,REF\u002A\u002A,37*%
X142240000Y-45720000D03*
%TO.P,REF\u002A\u002A,38*%
X144780000Y-45720000D03*
%TO.P,REF\u002A\u002A,39*%
X147320000Y-45720000D03*
%TO.P,REF\u002A\u002A,40*%
X149860000Y-45720000D03*
%TO.P,REF\u002A\u002A,41*%
X152400000Y-45720000D03*
%TO.P,REF\u002A\u002A,42*%
X154940000Y-45720000D03*
%TO.P,REF\u002A\u002A,43*%
X157480000Y-45720000D03*
%TO.P,REF\u002A\u002A,44*%
X160020000Y-45720000D03*
%TO.P,REF\u002A\u002A,45*%
X162560000Y-45720000D03*
%TO.P,REF\u002A\u002A,46*%
X165100000Y-45720000D03*
%TO.P,REF\u002A\u002A,47*%
X167640000Y-45720000D03*
%TO.P,REF\u002A\u002A,48*%
X170180000Y-45720000D03*
%TO.P,REF\u002A\u002A,49*%
X172720000Y-45720000D03*
%TO.P,REF\u002A\u002A,50*%
X175260000Y-45720000D03*
%TO.P,REF\u002A\u002A,51*%
X177800000Y-45720000D03*
%TO.P,REF\u002A\u002A,52*%
X180340000Y-45720000D03*
%TO.P,REF\u002A\u002A,53*%
X182880000Y-45720000D03*
%TO.P,REF\u002A\u002A,54*%
X185420000Y-45720000D03*
%TO.P,REF\u002A\u002A,55*%
X187960000Y-45720000D03*
%TO.P,REF\u002A\u002A,56*%
X190500000Y-45720000D03*
%TO.P,REF\u002A\u002A,57*%
X193040000Y-45720000D03*
%TO.P,REF\u002A\u002A,58*%
X195580000Y-45720000D03*
%TO.P,REF\u002A\u002A,59*%
X198120000Y-45720000D03*
%TO.P,REF\u002A\u002A,60*%
X200660000Y-45720000D03*
%TO.P,REF\u002A\u002A,61*%
X203200000Y-45720000D03*
%TO.P,REF\u002A\u002A,62*%
X205740000Y-45720000D03*
%TO.P,REF\u002A\u002A,63*%
X208280000Y-45720000D03*
%TO.P,REF\u002A\u002A,64*%
X210820000Y-45720000D03*
%TD*%
%TO.P,REF\u002A\u002A,5*%
%TO.N,N/C*%
X50800000Y-81280000D03*
%TO.P,REF\u002A\u002A,4*%
X50800000Y-78740000D03*
%TO.P,REF\u002A\u002A,3*%
X50800000Y-76200000D03*
%TO.P,REF\u002A\u002A,2*%
X50800000Y-73660000D03*
%TO.P,REF\u002A\u002A,1*%
X50800000Y-71120000D03*
%TD*%
%TO.P,REF\u002A\u002A,5*%
%TO.N,N/C*%
X53340000Y-81280000D03*
%TO.P,REF\u002A\u002A,4*%
X53340000Y-78740000D03*
%TO.P,REF\u002A\u002A,3*%
X53340000Y-76200000D03*
%TO.P,REF\u002A\u002A,2*%
X53340000Y-73660000D03*
%TO.P,REF\u002A\u002A,1*%
X53340000Y-71120000D03*
%TD*%
%TO.P,REF\u002A\u002A,5*%
%TO.N,N/C*%
X55880000Y-81280000D03*
%TO.P,REF\u002A\u002A,4*%
X55880000Y-78740000D03*
%TO.P,REF\u002A\u002A,3*%
X55880000Y-76200000D03*
%TO.P,REF\u002A\u002A,2*%
X55880000Y-73660000D03*
%TO.P,REF\u002A\u002A,1*%
X55880000Y-71120000D03*
%TD*%
%TO.P,REF\u002A\u002A,5*%
%TO.N,N/C*%
X58420000Y-81280000D03*
%TO.P,REF\u002A\u002A,4*%
X58420000Y-78740000D03*
%TO.P,REF\u002A\u002A,3*%
X58420000Y-76200000D03*
%TO.P,REF\u002A\u002A,2*%
X58420000Y-73660000D03*
%TO.P,REF\u002A\u002A,1*%
X58420000Y-71120000D03*
%TD*%
%TO.P,REF\u002A\u002A,5*%
%TO.N,N/C*%
X60960000Y-81280000D03*
%TO.P,REF\u002A\u002A,4*%
X60960000Y-78740000D03*
%TO.P,REF\u002A\u002A,3*%
X60960000Y-76200000D03*
%TO.P,REF\u002A\u002A,2*%
X60960000Y-73660000D03*
%TO.P,REF\u002A\u002A,1*%
X60960000Y-71120000D03*
%TD*%
%TO.P,REF\u002A\u002A,5*%
%TO.N,N/C*%
X63500000Y-81280000D03*
%TO.P,REF\u002A\u002A,4*%
X63500000Y-78740000D03*
%TO.P,REF\u002A\u002A,3*%
X63500000Y-76200000D03*
%TO.P,REF\u002A\u002A,2*%
X63500000Y-73660000D03*
%TO.P,REF\u002A\u002A,1*%
X63500000Y-71120000D03*
%TD*%
%TO.P,REF\u002A\u002A,5*%
%TO.N,N/C*%
X66040000Y-81280000D03*
%TO.P,REF\u002A\u002A,4*%
X66040000Y-78740000D03*
%TO.P,REF\u002A\u002A,3*%
X66040000Y-76200000D03*
%TO.P,REF\u002A\u002A,2*%
X66040000Y-73660000D03*
%TO.P,REF\u002A\u002A,1*%
X66040000Y-71120000D03*
%TD*%
%TO.P,REF\u002A\u002A,5*%
%TO.N,N/C*%
X68580000Y-81280000D03*
%TO.P,REF\u002A\u002A,4*%
X68580000Y-78740000D03*
%TO.P,REF\u002A\u002A,3*%
X68580000Y-76200000D03*
%TO.P,REF\u002A\u002A,2*%
X68580000Y-73660000D03*
%TO.P,REF\u002A\u002A,1*%
X68580000Y-71120000D03*
%TD*%
%TO.P,REF\u002A\u002A,5*%
%TO.N,N/C*%
X83820000Y-81280000D03*
%TO.P,REF\u002A\u002A,4*%
X83820000Y-78740000D03*
%TO.P,REF\u002A\u002A,3*%
X83820000Y-76200000D03*
%TO.P,REF\u002A\u002A,2*%
X83820000Y-73660000D03*
%TO.P,REF\u002A\u002A,1*%
X83820000Y-71120000D03*
%TD*%
%TO.P,REF\u002A\u002A,5*%
%TO.N,N/C*%
X81280000Y-81280000D03*
%TO.P,REF\u002A\u002A,4*%
X81280000Y-78740000D03*
%TO.P,REF\u002A\u002A,3*%
X81280000Y-76200000D03*
%TO.P,REF\u002A\u002A,2*%
X81280000Y-73660000D03*
%TO.P,REF\u002A\u002A,1*%
X81280000Y-71120000D03*
%TD*%
%TO.P,REF\u002A\u002A,5*%
%TO.N,N/C*%
X86360000Y-81280000D03*
%TO.P,REF\u002A\u002A,4*%
X86360000Y-78740000D03*
%TO.P,REF\u002A\u002A,3*%
X86360000Y-76200000D03*
%TO.P,REF\u002A\u002A,2*%
X86360000Y-73660000D03*
%TO.P,REF\u002A\u002A,1*%
X86360000Y-71120000D03*
%TD*%
%TO.P,REF\u002A\u002A,5*%
%TO.N,N/C*%
X76200000Y-81280000D03*
%TO.P,REF\u002A\u002A,4*%
X76200000Y-78740000D03*
%TO.P,REF\u002A\u002A,3*%
X76200000Y-76200000D03*
%TO.P,REF\u002A\u002A,2*%
X76200000Y-73660000D03*
%TO.P,REF\u002A\u002A,1*%
X76200000Y-71120000D03*
%TD*%
%TO.P,REF\u002A\u002A,5*%
%TO.N,N/C*%
X71120000Y-81280000D03*
%TO.P,REF\u002A\u002A,4*%
X71120000Y-78740000D03*
%TO.P,REF\u002A\u002A,3*%
X71120000Y-76200000D03*
%TO.P,REF\u002A\u002A,2*%
X71120000Y-73660000D03*
%TO.P,REF\u002A\u002A,1*%
X71120000Y-71120000D03*
%TD*%
%TO.P,REF\u002A\u002A,5*%
%TO.N,N/C*%
X78740000Y-81280000D03*
%TO.P,REF\u002A\u002A,4*%
X78740000Y-78740000D03*
%TO.P,REF\u002A\u002A,3*%
X78740000Y-76200000D03*
%TO.P,REF\u002A\u002A,2*%
X78740000Y-73660000D03*
%TO.P,REF\u002A\u002A,1*%
X78740000Y-71120000D03*
%TD*%
%TO.P,REF\u002A\u002A,5*%
%TO.N,N/C*%
X88900000Y-81280000D03*
%TO.P,REF\u002A\u002A,4*%
X88900000Y-78740000D03*
%TO.P,REF\u002A\u002A,3*%
X88900000Y-76200000D03*
%TO.P,REF\u002A\u002A,2*%
X88900000Y-73660000D03*
%TO.P,REF\u002A\u002A,1*%
X88900000Y-71120000D03*
%TD*%
%TO.P,REF\u002A\u002A,5*%
%TO.N,N/C*%
X73660000Y-81280000D03*
%TO.P,REF\u002A\u002A,4*%
X73660000Y-78740000D03*
%TO.P,REF\u002A\u002A,3*%
X73660000Y-76200000D03*
%TO.P,REF\u002A\u002A,2*%
X73660000Y-73660000D03*
%TO.P,REF\u002A\u002A,1*%
X73660000Y-71120000D03*
%TD*%
%TO.P,REF\u002A\u002A,5*%
%TO.N,N/C*%
X104140000Y-81280000D03*
%TO.P,REF\u002A\u002A,4*%
X104140000Y-78740000D03*
%TO.P,REF\u002A\u002A,3*%
X104140000Y-76200000D03*
%TO.P,REF\u002A\u002A,2*%
X104140000Y-73660000D03*
%TO.P,REF\u002A\u002A,1*%
X104140000Y-71120000D03*
%TD*%
%TO.P,REF\u002A\u002A,5*%
%TO.N,N/C*%
X124460000Y-81280000D03*
%TO.P,REF\u002A\u002A,4*%
X124460000Y-78740000D03*
%TO.P,REF\u002A\u002A,3*%
X124460000Y-76200000D03*
%TO.P,REF\u002A\u002A,2*%
X124460000Y-73660000D03*
%TO.P,REF\u002A\u002A,1*%
X124460000Y-71120000D03*
%TD*%
%TO.P,REF\u002A\u002A,5*%
%TO.N,N/C*%
X101600000Y-81280000D03*
%TO.P,REF\u002A\u002A,4*%
X101600000Y-78740000D03*
%TO.P,REF\u002A\u002A,3*%
X101600000Y-76200000D03*
%TO.P,REF\u002A\u002A,2*%
X101600000Y-73660000D03*
%TO.P,REF\u002A\u002A,1*%
X101600000Y-71120000D03*
%TD*%
%TO.P,REF\u002A\u002A,5*%
%TO.N,N/C*%
X119380000Y-81280000D03*
%TO.P,REF\u002A\u002A,4*%
X119380000Y-78740000D03*
%TO.P,REF\u002A\u002A,3*%
X119380000Y-76200000D03*
%TO.P,REF\u002A\u002A,2*%
X119380000Y-73660000D03*
%TO.P,REF\u002A\u002A,1*%
X119380000Y-71120000D03*
%TD*%
%TO.P,REF\u002A\u002A,5*%
%TO.N,N/C*%
X106680000Y-81280000D03*
%TO.P,REF\u002A\u002A,4*%
X106680000Y-78740000D03*
%TO.P,REF\u002A\u002A,3*%
X106680000Y-76200000D03*
%TO.P,REF\u002A\u002A,2*%
X106680000Y-73660000D03*
%TO.P,REF\u002A\u002A,1*%
X106680000Y-71120000D03*
%TD*%
%TO.P,REF\u002A\u002A,5*%
%TO.N,N/C*%
X116840000Y-81280000D03*
%TO.P,REF\u002A\u002A,4*%
X116840000Y-78740000D03*
%TO.P,REF\u002A\u002A,3*%
X116840000Y-76200000D03*
%TO.P,REF\u002A\u002A,2*%
X116840000Y-73660000D03*
%TO.P,REF\u002A\u002A,1*%
X116840000Y-71120000D03*
%TD*%
%TO.P,REF\u002A\u002A,5*%
%TO.N,N/C*%
X111760000Y-81280000D03*
%TO.P,REF\u002A\u002A,4*%
X111760000Y-78740000D03*
%TO.P,REF\u002A\u002A,3*%
X111760000Y-76200000D03*
%TO.P,REF\u002A\u002A,2*%
X111760000Y-73660000D03*
%TO.P,REF\u002A\u002A,1*%
X111760000Y-71120000D03*
%TD*%
%TO.P,REF\u002A\u002A,5*%
%TO.N,N/C*%
X121920000Y-81280000D03*
%TO.P,REF\u002A\u002A,4*%
X121920000Y-78740000D03*
%TO.P,REF\u002A\u002A,3*%
X121920000Y-76200000D03*
%TO.P,REF\u002A\u002A,2*%
X121920000Y-73660000D03*
%TO.P,REF\u002A\u002A,1*%
X121920000Y-71120000D03*
%TD*%
%TO.P,REF\u002A\u002A,5*%
%TO.N,N/C*%
X96520000Y-81280000D03*
%TO.P,REF\u002A\u002A,4*%
X96520000Y-78740000D03*
%TO.P,REF\u002A\u002A,3*%
X96520000Y-76200000D03*
%TO.P,REF\u002A\u002A,2*%
X96520000Y-73660000D03*
%TO.P,REF\u002A\u002A,1*%
X96520000Y-71120000D03*
%TD*%
%TO.P,REF\u002A\u002A,5*%
%TO.N,N/C*%
X127000000Y-81280000D03*
%TO.P,REF\u002A\u002A,4*%
X127000000Y-78740000D03*
%TO.P,REF\u002A\u002A,3*%
X127000000Y-76200000D03*
%TO.P,REF\u002A\u002A,2*%
X127000000Y-73660000D03*
%TO.P,REF\u002A\u002A,1*%
X127000000Y-71120000D03*
%TD*%
%TO.P,REF\u002A\u002A,5*%
%TO.N,N/C*%
X129540000Y-81280000D03*
%TO.P,REF\u002A\u002A,4*%
X129540000Y-78740000D03*
%TO.P,REF\u002A\u002A,3*%
X129540000Y-76200000D03*
%TO.P,REF\u002A\u002A,2*%
X129540000Y-73660000D03*
%TO.P,REF\u002A\u002A,1*%
X129540000Y-71120000D03*
%TD*%
%TO.P,REF\u002A\u002A,5*%
%TO.N,N/C*%
X91440000Y-81280000D03*
%TO.P,REF\u002A\u002A,4*%
X91440000Y-78740000D03*
%TO.P,REF\u002A\u002A,3*%
X91440000Y-76200000D03*
%TO.P,REF\u002A\u002A,2*%
X91440000Y-73660000D03*
%TO.P,REF\u002A\u002A,1*%
X91440000Y-71120000D03*
%TD*%
%TO.P,REF\u002A\u002A,5*%
%TO.N,N/C*%
X99060000Y-81280000D03*
%TO.P,REF\u002A\u002A,4*%
X99060000Y-78740000D03*
%TO.P,REF\u002A\u002A,3*%
X99060000Y-76200000D03*
%TO.P,REF\u002A\u002A,2*%
X99060000Y-73660000D03*
%TO.P,REF\u002A\u002A,1*%
X99060000Y-71120000D03*
%TD*%
%TO.P,REF\u002A\u002A,5*%
%TO.N,N/C*%
X114300000Y-81280000D03*
%TO.P,REF\u002A\u002A,4*%
X114300000Y-78740000D03*
%TO.P,REF\u002A\u002A,3*%
X114300000Y-76200000D03*
%TO.P,REF\u002A\u002A,2*%
X114300000Y-73660000D03*
%TO.P,REF\u002A\u002A,1*%
X114300000Y-71120000D03*
%TD*%
%TO.P,REF\u002A\u002A,5*%
%TO.N,N/C*%
X109220000Y-81280000D03*
%TO.P,REF\u002A\u002A,4*%
X109220000Y-78740000D03*
%TO.P,REF\u002A\u002A,3*%
X109220000Y-76200000D03*
%TO.P,REF\u002A\u002A,2*%
X109220000Y-73660000D03*
%TO.P,REF\u002A\u002A,1*%
X109220000Y-71120000D03*
%TD*%
%TO.P,REF\u002A\u002A,5*%
%TO.N,N/C*%
X93980000Y-81280000D03*
%TO.P,REF\u002A\u002A,4*%
X93980000Y-78740000D03*
%TO.P,REF\u002A\u002A,3*%
X93980000Y-76200000D03*
%TO.P,REF\u002A\u002A,2*%
X93980000Y-73660000D03*
%TO.P,REF\u002A\u002A,1*%
X93980000Y-71120000D03*
%TD*%
%TO.P,REF\u002A\u002A,5*%
%TO.N,N/C*%
X144780000Y-81280000D03*
%TO.P,REF\u002A\u002A,4*%
X144780000Y-78740000D03*
%TO.P,REF\u002A\u002A,3*%
X144780000Y-76200000D03*
%TO.P,REF\u002A\u002A,2*%
X144780000Y-73660000D03*
%TO.P,REF\u002A\u002A,1*%
X144780000Y-71120000D03*
%TD*%
%TO.P,REF\u002A\u002A,5*%
%TO.N,N/C*%
X165100000Y-81280000D03*
%TO.P,REF\u002A\u002A,4*%
X165100000Y-78740000D03*
%TO.P,REF\u002A\u002A,3*%
X165100000Y-76200000D03*
%TO.P,REF\u002A\u002A,2*%
X165100000Y-73660000D03*
%TO.P,REF\u002A\u002A,1*%
X165100000Y-71120000D03*
%TD*%
%TO.P,REF\u002A\u002A,5*%
%TO.N,N/C*%
X142240000Y-81280000D03*
%TO.P,REF\u002A\u002A,4*%
X142240000Y-78740000D03*
%TO.P,REF\u002A\u002A,3*%
X142240000Y-76200000D03*
%TO.P,REF\u002A\u002A,2*%
X142240000Y-73660000D03*
%TO.P,REF\u002A\u002A,1*%
X142240000Y-71120000D03*
%TD*%
%TO.P,REF\u002A\u002A,5*%
%TO.N,N/C*%
X160020000Y-81280000D03*
%TO.P,REF\u002A\u002A,4*%
X160020000Y-78740000D03*
%TO.P,REF\u002A\u002A,3*%
X160020000Y-76200000D03*
%TO.P,REF\u002A\u002A,2*%
X160020000Y-73660000D03*
%TO.P,REF\u002A\u002A,1*%
X160020000Y-71120000D03*
%TD*%
%TO.P,REF\u002A\u002A,5*%
%TO.N,N/C*%
X147320000Y-81280000D03*
%TO.P,REF\u002A\u002A,4*%
X147320000Y-78740000D03*
%TO.P,REF\u002A\u002A,3*%
X147320000Y-76200000D03*
%TO.P,REF\u002A\u002A,2*%
X147320000Y-73660000D03*
%TO.P,REF\u002A\u002A,1*%
X147320000Y-71120000D03*
%TD*%
%TO.P,REF\u002A\u002A,5*%
%TO.N,N/C*%
X157480000Y-81280000D03*
%TO.P,REF\u002A\u002A,4*%
X157480000Y-78740000D03*
%TO.P,REF\u002A\u002A,3*%
X157480000Y-76200000D03*
%TO.P,REF\u002A\u002A,2*%
X157480000Y-73660000D03*
%TO.P,REF\u002A\u002A,1*%
X157480000Y-71120000D03*
%TD*%
%TO.P,REF\u002A\u002A,5*%
%TO.N,N/C*%
X152400000Y-81280000D03*
%TO.P,REF\u002A\u002A,4*%
X152400000Y-78740000D03*
%TO.P,REF\u002A\u002A,3*%
X152400000Y-76200000D03*
%TO.P,REF\u002A\u002A,2*%
X152400000Y-73660000D03*
%TO.P,REF\u002A\u002A,1*%
X152400000Y-71120000D03*
%TD*%
%TO.P,REF\u002A\u002A,5*%
%TO.N,N/C*%
X162560000Y-81280000D03*
%TO.P,REF\u002A\u002A,4*%
X162560000Y-78740000D03*
%TO.P,REF\u002A\u002A,3*%
X162560000Y-76200000D03*
%TO.P,REF\u002A\u002A,2*%
X162560000Y-73660000D03*
%TO.P,REF\u002A\u002A,1*%
X162560000Y-71120000D03*
%TD*%
%TO.P,REF\u002A\u002A,5*%
%TO.N,N/C*%
X137160000Y-81280000D03*
%TO.P,REF\u002A\u002A,4*%
X137160000Y-78740000D03*
%TO.P,REF\u002A\u002A,3*%
X137160000Y-76200000D03*
%TO.P,REF\u002A\u002A,2*%
X137160000Y-73660000D03*
%TO.P,REF\u002A\u002A,1*%
X137160000Y-71120000D03*
%TD*%
%TO.P,REF\u002A\u002A,5*%
%TO.N,N/C*%
X167640000Y-81280000D03*
%TO.P,REF\u002A\u002A,4*%
X167640000Y-78740000D03*
%TO.P,REF\u002A\u002A,3*%
X167640000Y-76200000D03*
%TO.P,REF\u002A\u002A,2*%
X167640000Y-73660000D03*
%TO.P,REF\u002A\u002A,1*%
X167640000Y-71120000D03*
%TD*%
%TO.P,REF\u002A\u002A,5*%
%TO.N,N/C*%
X170180000Y-81280000D03*
%TO.P,REF\u002A\u002A,4*%
X170180000Y-78740000D03*
%TO.P,REF\u002A\u002A,3*%
X170180000Y-76200000D03*
%TO.P,REF\u002A\u002A,2*%
X170180000Y-73660000D03*
%TO.P,REF\u002A\u002A,1*%
X170180000Y-71120000D03*
%TD*%
%TO.P,REF\u002A\u002A,5*%
%TO.N,N/C*%
X132080000Y-81280000D03*
%TO.P,REF\u002A\u002A,4*%
X132080000Y-78740000D03*
%TO.P,REF\u002A\u002A,3*%
X132080000Y-76200000D03*
%TO.P,REF\u002A\u002A,2*%
X132080000Y-73660000D03*
%TO.P,REF\u002A\u002A,1*%
X132080000Y-71120000D03*
%TD*%
%TO.P,REF\u002A\u002A,5*%
%TO.N,N/C*%
X139700000Y-81280000D03*
%TO.P,REF\u002A\u002A,4*%
X139700000Y-78740000D03*
%TO.P,REF\u002A\u002A,3*%
X139700000Y-76200000D03*
%TO.P,REF\u002A\u002A,2*%
X139700000Y-73660000D03*
%TO.P,REF\u002A\u002A,1*%
X139700000Y-71120000D03*
%TD*%
%TO.P,REF\u002A\u002A,5*%
%TO.N,N/C*%
X154940000Y-81280000D03*
%TO.P,REF\u002A\u002A,4*%
X154940000Y-78740000D03*
%TO.P,REF\u002A\u002A,3*%
X154940000Y-76200000D03*
%TO.P,REF\u002A\u002A,2*%
X154940000Y-73660000D03*
%TO.P,REF\u002A\u002A,1*%
X154940000Y-71120000D03*
%TD*%
%TO.P,REF\u002A\u002A,5*%
%TO.N,N/C*%
X149860000Y-81280000D03*
%TO.P,REF\u002A\u002A,4*%
X149860000Y-78740000D03*
%TO.P,REF\u002A\u002A,3*%
X149860000Y-76200000D03*
%TO.P,REF\u002A\u002A,2*%
X149860000Y-73660000D03*
%TO.P,REF\u002A\u002A,1*%
X149860000Y-71120000D03*
%TD*%
%TO.P,REF\u002A\u002A,5*%
%TO.N,N/C*%
X134620000Y-81280000D03*
%TO.P,REF\u002A\u002A,4*%
X134620000Y-78740000D03*
%TO.P,REF\u002A\u002A,3*%
X134620000Y-76200000D03*
%TO.P,REF\u002A\u002A,2*%
X134620000Y-73660000D03*
%TO.P,REF\u002A\u002A,1*%
X134620000Y-71120000D03*
%TD*%
%TO.P,REF\u002A\u002A,5*%
%TO.N,N/C*%
X185420000Y-81280000D03*
%TO.P,REF\u002A\u002A,4*%
X185420000Y-78740000D03*
%TO.P,REF\u002A\u002A,3*%
X185420000Y-76200000D03*
%TO.P,REF\u002A\u002A,2*%
X185420000Y-73660000D03*
%TO.P,REF\u002A\u002A,1*%
X185420000Y-71120000D03*
%TD*%
%TO.P,REF\u002A\u002A,5*%
%TO.N,N/C*%
X205740000Y-81280000D03*
%TO.P,REF\u002A\u002A,4*%
X205740000Y-78740000D03*
%TO.P,REF\u002A\u002A,3*%
X205740000Y-76200000D03*
%TO.P,REF\u002A\u002A,2*%
X205740000Y-73660000D03*
%TO.P,REF\u002A\u002A,1*%
X205740000Y-71120000D03*
%TD*%
%TO.P,REF\u002A\u002A,5*%
%TO.N,N/C*%
X182880000Y-81280000D03*
%TO.P,REF\u002A\u002A,4*%
X182880000Y-78740000D03*
%TO.P,REF\u002A\u002A,3*%
X182880000Y-76200000D03*
%TO.P,REF\u002A\u002A,2*%
X182880000Y-73660000D03*
%TO.P,REF\u002A\u002A,1*%
X182880000Y-71120000D03*
%TD*%
%TO.P,REF\u002A\u002A,5*%
%TO.N,N/C*%
X200660000Y-81280000D03*
%TO.P,REF\u002A\u002A,4*%
X200660000Y-78740000D03*
%TO.P,REF\u002A\u002A,3*%
X200660000Y-76200000D03*
%TO.P,REF\u002A\u002A,2*%
X200660000Y-73660000D03*
%TO.P,REF\u002A\u002A,1*%
X200660000Y-71120000D03*
%TD*%
%TO.P,REF\u002A\u002A,5*%
%TO.N,N/C*%
X187960000Y-81280000D03*
%TO.P,REF\u002A\u002A,4*%
X187960000Y-78740000D03*
%TO.P,REF\u002A\u002A,3*%
X187960000Y-76200000D03*
%TO.P,REF\u002A\u002A,2*%
X187960000Y-73660000D03*
%TO.P,REF\u002A\u002A,1*%
X187960000Y-71120000D03*
%TD*%
%TO.P,REF\u002A\u002A,5*%
%TO.N,N/C*%
X198120000Y-81280000D03*
%TO.P,REF\u002A\u002A,4*%
X198120000Y-78740000D03*
%TO.P,REF\u002A\u002A,3*%
X198120000Y-76200000D03*
%TO.P,REF\u002A\u002A,2*%
X198120000Y-73660000D03*
%TO.P,REF\u002A\u002A,1*%
X198120000Y-71120000D03*
%TD*%
%TO.P,REF\u002A\u002A,5*%
%TO.N,N/C*%
X193040000Y-81280000D03*
%TO.P,REF\u002A\u002A,4*%
X193040000Y-78740000D03*
%TO.P,REF\u002A\u002A,3*%
X193040000Y-76200000D03*
%TO.P,REF\u002A\u002A,2*%
X193040000Y-73660000D03*
%TO.P,REF\u002A\u002A,1*%
X193040000Y-71120000D03*
%TD*%
%TO.P,REF\u002A\u002A,5*%
%TO.N,N/C*%
X203200000Y-81280000D03*
%TO.P,REF\u002A\u002A,4*%
X203200000Y-78740000D03*
%TO.P,REF\u002A\u002A,3*%
X203200000Y-76200000D03*
%TO.P,REF\u002A\u002A,2*%
X203200000Y-73660000D03*
%TO.P,REF\u002A\u002A,1*%
X203200000Y-71120000D03*
%TD*%
%TO.P,REF\u002A\u002A,5*%
%TO.N,N/C*%
X177800000Y-81280000D03*
%TO.P,REF\u002A\u002A,4*%
X177800000Y-78740000D03*
%TO.P,REF\u002A\u002A,3*%
X177800000Y-76200000D03*
%TO.P,REF\u002A\u002A,2*%
X177800000Y-73660000D03*
%TO.P,REF\u002A\u002A,1*%
X177800000Y-71120000D03*
%TD*%
%TO.P,REF\u002A\u002A,5*%
%TO.N,N/C*%
X208280000Y-81280000D03*
%TO.P,REF\u002A\u002A,4*%
X208280000Y-78740000D03*
%TO.P,REF\u002A\u002A,3*%
X208280000Y-76200000D03*
%TO.P,REF\u002A\u002A,2*%
X208280000Y-73660000D03*
%TO.P,REF\u002A\u002A,1*%
X208280000Y-71120000D03*
%TD*%
%TO.P,REF\u002A\u002A,5*%
%TO.N,N/C*%
X210820000Y-81280000D03*
%TO.P,REF\u002A\u002A,4*%
X210820000Y-78740000D03*
%TO.P,REF\u002A\u002A,3*%
X210820000Y-76200000D03*
%TO.P,REF\u002A\u002A,2*%
X210820000Y-73660000D03*
%TO.P,REF\u002A\u002A,1*%
X210820000Y-71120000D03*
%TD*%
%TO.P,REF\u002A\u002A,5*%
%TO.N,N/C*%
X172720000Y-81280000D03*
%TO.P,REF\u002A\u002A,4*%
X172720000Y-78740000D03*
%TO.P,REF\u002A\u002A,3*%
X172720000Y-76200000D03*
%TO.P,REF\u002A\u002A,2*%
X172720000Y-73660000D03*
%TO.P,REF\u002A\u002A,1*%
X172720000Y-71120000D03*
%TD*%
%TO.P,REF\u002A\u002A,5*%
%TO.N,N/C*%
X180340000Y-81280000D03*
%TO.P,REF\u002A\u002A,4*%
X180340000Y-78740000D03*
%TO.P,REF\u002A\u002A,3*%
X180340000Y-76200000D03*
%TO.P,REF\u002A\u002A,2*%
X180340000Y-73660000D03*
%TO.P,REF\u002A\u002A,1*%
X180340000Y-71120000D03*
%TD*%
%TO.P,REF\u002A\u002A,5*%
%TO.N,N/C*%
X195580000Y-81280000D03*
%TO.P,REF\u002A\u002A,4*%
X195580000Y-78740000D03*
%TO.P,REF\u002A\u002A,3*%
X195580000Y-76200000D03*
%TO.P,REF\u002A\u002A,2*%
X195580000Y-73660000D03*
%TO.P,REF\u002A\u002A,1*%
X195580000Y-71120000D03*
%TD*%
%TO.P,REF\u002A\u002A,5*%
%TO.N,N/C*%
X190500000Y-81280000D03*
%TO.P,REF\u002A\u002A,4*%
X190500000Y-78740000D03*
%TO.P,REF\u002A\u002A,3*%
X190500000Y-76200000D03*
%TO.P,REF\u002A\u002A,2*%
X190500000Y-73660000D03*
%TO.P,REF\u002A\u002A,1*%
X190500000Y-71120000D03*
%TD*%
%TO.P,REF\u002A\u002A,5*%
%TO.N,N/C*%
X175260000Y-81280000D03*
%TO.P,REF\u002A\u002A,4*%
X175260000Y-78740000D03*
%TO.P,REF\u002A\u002A,3*%
X175260000Y-76200000D03*
%TO.P,REF\u002A\u002A,2*%
X175260000Y-73660000D03*
%TO.P,REF\u002A\u002A,1*%
X175260000Y-71120000D03*
%TD*%
%TO.P,REF\u002A\u002A,5*%
%TO.N,N/C*%
X106680000Y-53340000D03*
%TO.P,REF\u002A\u002A,4*%
X106680000Y-55880000D03*
%TO.P,REF\u002A\u002A,3*%
X106680000Y-58420000D03*
%TO.P,REF\u002A\u002A,2*%
X106680000Y-60960000D03*
%TO.P,REF\u002A\u002A,1*%
X106680000Y-63500000D03*
%TD*%
%TO.P,REF\u002A\u002A,5*%
%TO.N,N/C*%
X198120000Y-53340000D03*
%TO.P,REF\u002A\u002A,4*%
X198120000Y-55880000D03*
%TO.P,REF\u002A\u002A,3*%
X198120000Y-58420000D03*
%TO.P,REF\u002A\u002A,2*%
X198120000Y-60960000D03*
%TO.P,REF\u002A\u002A,1*%
X198120000Y-63500000D03*
%TD*%
%TO.P,REF\u002A\u002A,5*%
%TO.N,N/C*%
X177800000Y-53340000D03*
%TO.P,REF\u002A\u002A,4*%
X177800000Y-55880000D03*
%TO.P,REF\u002A\u002A,3*%
X177800000Y-58420000D03*
%TO.P,REF\u002A\u002A,2*%
X177800000Y-60960000D03*
%TO.P,REF\u002A\u002A,1*%
X177800000Y-63500000D03*
%TD*%
%TO.P,REF\u002A\u002A,5*%
%TO.N,N/C*%
X121920000Y-53340000D03*
%TO.P,REF\u002A\u002A,4*%
X121920000Y-55880000D03*
%TO.P,REF\u002A\u002A,3*%
X121920000Y-58420000D03*
%TO.P,REF\u002A\u002A,2*%
X121920000Y-60960000D03*
%TO.P,REF\u002A\u002A,1*%
X121920000Y-63500000D03*
%TD*%
%TO.P,REF\u002A\u002A,5*%
%TO.N,N/C*%
X165100000Y-53340000D03*
%TO.P,REF\u002A\u002A,4*%
X165100000Y-55880000D03*
%TO.P,REF\u002A\u002A,3*%
X165100000Y-58420000D03*
%TO.P,REF\u002A\u002A,2*%
X165100000Y-60960000D03*
%TO.P,REF\u002A\u002A,1*%
X165100000Y-63500000D03*
%TD*%
%TO.P,REF\u002A\u002A,5*%
%TO.N,N/C*%
X124460000Y-53340000D03*
%TO.P,REF\u002A\u002A,4*%
X124460000Y-55880000D03*
%TO.P,REF\u002A\u002A,3*%
X124460000Y-58420000D03*
%TO.P,REF\u002A\u002A,2*%
X124460000Y-60960000D03*
%TO.P,REF\u002A\u002A,1*%
X124460000Y-63500000D03*
%TD*%
%TO.P,REF\u002A\u002A,5*%
%TO.N,N/C*%
X101600000Y-53340000D03*
%TO.P,REF\u002A\u002A,4*%
X101600000Y-55880000D03*
%TO.P,REF\u002A\u002A,3*%
X101600000Y-58420000D03*
%TO.P,REF\u002A\u002A,2*%
X101600000Y-60960000D03*
%TO.P,REF\u002A\u002A,1*%
X101600000Y-63500000D03*
%TD*%
%TO.P,REF\u002A\u002A,5*%
%TO.N,N/C*%
X114300000Y-53340000D03*
%TO.P,REF\u002A\u002A,4*%
X114300000Y-55880000D03*
%TO.P,REF\u002A\u002A,3*%
X114300000Y-58420000D03*
%TO.P,REF\u002A\u002A,2*%
X114300000Y-60960000D03*
%TO.P,REF\u002A\u002A,1*%
X114300000Y-63500000D03*
%TD*%
%TO.P,REF\u002A\u002A,5*%
%TO.N,N/C*%
X66040000Y-53340000D03*
%TO.P,REF\u002A\u002A,4*%
X66040000Y-55880000D03*
%TO.P,REF\u002A\u002A,3*%
X66040000Y-58420000D03*
%TO.P,REF\u002A\u002A,2*%
X66040000Y-60960000D03*
%TO.P,REF\u002A\u002A,1*%
X66040000Y-63500000D03*
%TD*%
%TO.P,REF\u002A\u002A,5*%
%TO.N,N/C*%
X116840000Y-53340000D03*
%TO.P,REF\u002A\u002A,4*%
X116840000Y-55880000D03*
%TO.P,REF\u002A\u002A,3*%
X116840000Y-58420000D03*
%TO.P,REF\u002A\u002A,2*%
X116840000Y-60960000D03*
%TO.P,REF\u002A\u002A,1*%
X116840000Y-63500000D03*
%TD*%
%TO.P,REF\u002A\u002A,5*%
%TO.N,N/C*%
X83820000Y-53340000D03*
%TO.P,REF\u002A\u002A,4*%
X83820000Y-55880000D03*
%TO.P,REF\u002A\u002A,3*%
X83820000Y-58420000D03*
%TO.P,REF\u002A\u002A,2*%
X83820000Y-60960000D03*
%TO.P,REF\u002A\u002A,1*%
X83820000Y-63500000D03*
%TD*%
%TO.P,REF\u002A\u002A,5*%
%TO.N,N/C*%
X127000000Y-53340000D03*
%TO.P,REF\u002A\u002A,4*%
X127000000Y-55880000D03*
%TO.P,REF\u002A\u002A,3*%
X127000000Y-58420000D03*
%TO.P,REF\u002A\u002A,2*%
X127000000Y-60960000D03*
%TO.P,REF\u002A\u002A,1*%
X127000000Y-63500000D03*
%TD*%
%TO.P,REF\u002A\u002A,5*%
%TO.N,N/C*%
X63500000Y-53340000D03*
%TO.P,REF\u002A\u002A,4*%
X63500000Y-55880000D03*
%TO.P,REF\u002A\u002A,3*%
X63500000Y-58420000D03*
%TO.P,REF\u002A\u002A,2*%
X63500000Y-60960000D03*
%TO.P,REF\u002A\u002A,1*%
X63500000Y-63500000D03*
%TD*%
%TO.P,REF\u002A\u002A,5*%
%TO.N,N/C*%
X91440000Y-53340000D03*
%TO.P,REF\u002A\u002A,4*%
X91440000Y-55880000D03*
%TO.P,REF\u002A\u002A,3*%
X91440000Y-58420000D03*
%TO.P,REF\u002A\u002A,2*%
X91440000Y-60960000D03*
%TO.P,REF\u002A\u002A,1*%
X91440000Y-63500000D03*
%TD*%
%TO.P,REF\u002A\u002A,5*%
%TO.N,N/C*%
X76200000Y-53340000D03*
%TO.P,REF\u002A\u002A,4*%
X76200000Y-55880000D03*
%TO.P,REF\u002A\u002A,3*%
X76200000Y-58420000D03*
%TO.P,REF\u002A\u002A,2*%
X76200000Y-60960000D03*
%TO.P,REF\u002A\u002A,1*%
X76200000Y-63500000D03*
%TD*%
%TO.P,REF\u002A\u002A,5*%
%TO.N,N/C*%
X68580000Y-53340000D03*
%TO.P,REF\u002A\u002A,4*%
X68580000Y-55880000D03*
%TO.P,REF\u002A\u002A,3*%
X68580000Y-58420000D03*
%TO.P,REF\u002A\u002A,2*%
X68580000Y-60960000D03*
%TO.P,REF\u002A\u002A,1*%
X68580000Y-63500000D03*
%TD*%
%TO.P,REF\u002A\u002A,5*%
%TO.N,N/C*%
X58420000Y-53340000D03*
%TO.P,REF\u002A\u002A,4*%
X58420000Y-55880000D03*
%TO.P,REF\u002A\u002A,3*%
X58420000Y-58420000D03*
%TO.P,REF\u002A\u002A,2*%
X58420000Y-60960000D03*
%TO.P,REF\u002A\u002A,1*%
X58420000Y-63500000D03*
%TD*%
%TO.P,REF\u002A\u002A,5*%
%TO.N,N/C*%
X200660000Y-53340000D03*
%TO.P,REF\u002A\u002A,4*%
X200660000Y-55880000D03*
%TO.P,REF\u002A\u002A,3*%
X200660000Y-58420000D03*
%TO.P,REF\u002A\u002A,2*%
X200660000Y-60960000D03*
%TO.P,REF\u002A\u002A,1*%
X200660000Y-63500000D03*
%TD*%
%TO.P,REF\u002A\u002A,5*%
%TO.N,N/C*%
X81280000Y-53340000D03*
%TO.P,REF\u002A\u002A,4*%
X81280000Y-55880000D03*
%TO.P,REF\u002A\u002A,3*%
X81280000Y-58420000D03*
%TO.P,REF\u002A\u002A,2*%
X81280000Y-60960000D03*
%TO.P,REF\u002A\u002A,1*%
X81280000Y-63500000D03*
%TD*%
%TO.P,REF\u002A\u002A,5*%
%TO.N,N/C*%
X109220000Y-53340000D03*
%TO.P,REF\u002A\u002A,4*%
X109220000Y-55880000D03*
%TO.P,REF\u002A\u002A,3*%
X109220000Y-58420000D03*
%TO.P,REF\u002A\u002A,2*%
X109220000Y-60960000D03*
%TO.P,REF\u002A\u002A,1*%
X109220000Y-63500000D03*
%TD*%
%TO.P,REF\u002A\u002A,5*%
%TO.N,N/C*%
X73660000Y-53340000D03*
%TO.P,REF\u002A\u002A,4*%
X73660000Y-55880000D03*
%TO.P,REF\u002A\u002A,3*%
X73660000Y-58420000D03*
%TO.P,REF\u002A\u002A,2*%
X73660000Y-60960000D03*
%TO.P,REF\u002A\u002A,1*%
X73660000Y-63500000D03*
%TD*%
%TO.P,REF\u002A\u002A,5*%
%TO.N,N/C*%
X86360000Y-53340000D03*
%TO.P,REF\u002A\u002A,4*%
X86360000Y-55880000D03*
%TO.P,REF\u002A\u002A,3*%
X86360000Y-58420000D03*
%TO.P,REF\u002A\u002A,2*%
X86360000Y-60960000D03*
%TO.P,REF\u002A\u002A,1*%
X86360000Y-63500000D03*
%TD*%
%TO.P,REF\u002A\u002A,5*%
%TO.N,N/C*%
X55880000Y-53340000D03*
%TO.P,REF\u002A\u002A,4*%
X55880000Y-55880000D03*
%TO.P,REF\u002A\u002A,3*%
X55880000Y-58420000D03*
%TO.P,REF\u002A\u002A,2*%
X55880000Y-60960000D03*
%TO.P,REF\u002A\u002A,1*%
X55880000Y-63500000D03*
%TD*%
%TO.P,REF\u002A\u002A,5*%
%TO.N,N/C*%
X182880000Y-53340000D03*
%TO.P,REF\u002A\u002A,4*%
X182880000Y-55880000D03*
%TO.P,REF\u002A\u002A,3*%
X182880000Y-58420000D03*
%TO.P,REF\u002A\u002A,2*%
X182880000Y-60960000D03*
%TO.P,REF\u002A\u002A,1*%
X182880000Y-63500000D03*
%TD*%
%TO.P,REF\u002A\u002A,5*%
%TO.N,N/C*%
X53340000Y-53340000D03*
%TO.P,REF\u002A\u002A,4*%
X53340000Y-55880000D03*
%TO.P,REF\u002A\u002A,3*%
X53340000Y-58420000D03*
%TO.P,REF\u002A\u002A,2*%
X53340000Y-60960000D03*
%TO.P,REF\u002A\u002A,1*%
X53340000Y-63500000D03*
%TD*%
%TO.P,REF\u002A\u002A,5*%
%TO.N,N/C*%
X104140000Y-53340000D03*
%TO.P,REF\u002A\u002A,4*%
X104140000Y-55880000D03*
%TO.P,REF\u002A\u002A,3*%
X104140000Y-58420000D03*
%TO.P,REF\u002A\u002A,2*%
X104140000Y-60960000D03*
%TO.P,REF\u002A\u002A,1*%
X104140000Y-63500000D03*
%TD*%
%TO.P,REF\u002A\u002A,5*%
%TO.N,N/C*%
X195580000Y-53340000D03*
%TO.P,REF\u002A\u002A,4*%
X195580000Y-55880000D03*
%TO.P,REF\u002A\u002A,3*%
X195580000Y-58420000D03*
%TO.P,REF\u002A\u002A,2*%
X195580000Y-60960000D03*
%TO.P,REF\u002A\u002A,1*%
X195580000Y-63500000D03*
%TD*%
%TO.P,REF\u002A\u002A,5*%
%TO.N,N/C*%
X119380000Y-53340000D03*
%TO.P,REF\u002A\u002A,4*%
X119380000Y-55880000D03*
%TO.P,REF\u002A\u002A,3*%
X119380000Y-58420000D03*
%TO.P,REF\u002A\u002A,2*%
X119380000Y-60960000D03*
%TO.P,REF\u002A\u002A,1*%
X119380000Y-63500000D03*
%TD*%
%TO.P,REF\u002A\u002A,5*%
%TO.N,N/C*%
X185420000Y-53340000D03*
%TO.P,REF\u002A\u002A,4*%
X185420000Y-55880000D03*
%TO.P,REF\u002A\u002A,3*%
X185420000Y-58420000D03*
%TO.P,REF\u002A\u002A,2*%
X185420000Y-60960000D03*
%TO.P,REF\u002A\u002A,1*%
X185420000Y-63500000D03*
%TD*%
%TO.P,REF\u002A\u002A,5*%
%TO.N,N/C*%
X93980000Y-53340000D03*
%TO.P,REF\u002A\u002A,4*%
X93980000Y-55880000D03*
%TO.P,REF\u002A\u002A,3*%
X93980000Y-58420000D03*
%TO.P,REF\u002A\u002A,2*%
X93980000Y-60960000D03*
%TO.P,REF\u002A\u002A,1*%
X93980000Y-63500000D03*
%TD*%
%TO.P,REF\u002A\u002A,5*%
%TO.N,N/C*%
X190500000Y-53340000D03*
%TO.P,REF\u002A\u002A,4*%
X190500000Y-55880000D03*
%TO.P,REF\u002A\u002A,3*%
X190500000Y-58420000D03*
%TO.P,REF\u002A\u002A,2*%
X190500000Y-60960000D03*
%TO.P,REF\u002A\u002A,1*%
X190500000Y-63500000D03*
%TD*%
%TO.P,REF\u002A\u002A,5*%
%TO.N,N/C*%
X180340000Y-53340000D03*
%TO.P,REF\u002A\u002A,4*%
X180340000Y-55880000D03*
%TO.P,REF\u002A\u002A,3*%
X180340000Y-58420000D03*
%TO.P,REF\u002A\u002A,2*%
X180340000Y-60960000D03*
%TO.P,REF\u002A\u002A,1*%
X180340000Y-63500000D03*
%TD*%
%TO.P,REF\u002A\u002A,5*%
%TO.N,N/C*%
X205740000Y-53340000D03*
%TO.P,REF\u002A\u002A,4*%
X205740000Y-55880000D03*
%TO.P,REF\u002A\u002A,3*%
X205740000Y-58420000D03*
%TO.P,REF\u002A\u002A,2*%
X205740000Y-60960000D03*
%TO.P,REF\u002A\u002A,1*%
X205740000Y-63500000D03*
%TD*%
%TO.P,REF\u002A\u002A,5*%
%TO.N,N/C*%
X88900000Y-53340000D03*
%TO.P,REF\u002A\u002A,4*%
X88900000Y-55880000D03*
%TO.P,REF\u002A\u002A,3*%
X88900000Y-58420000D03*
%TO.P,REF\u002A\u002A,2*%
X88900000Y-60960000D03*
%TO.P,REF\u002A\u002A,1*%
X88900000Y-63500000D03*
%TD*%
%TO.P,REF\u002A\u002A,5*%
%TO.N,N/C*%
X129540000Y-53340000D03*
%TO.P,REF\u002A\u002A,4*%
X129540000Y-55880000D03*
%TO.P,REF\u002A\u002A,3*%
X129540000Y-58420000D03*
%TO.P,REF\u002A\u002A,2*%
X129540000Y-60960000D03*
%TO.P,REF\u002A\u002A,1*%
X129540000Y-63500000D03*
%TD*%
%TO.P,REF\u002A\u002A,5*%
%TO.N,N/C*%
X60960000Y-53340000D03*
%TO.P,REF\u002A\u002A,4*%
X60960000Y-55880000D03*
%TO.P,REF\u002A\u002A,3*%
X60960000Y-58420000D03*
%TO.P,REF\u002A\u002A,2*%
X60960000Y-60960000D03*
%TO.P,REF\u002A\u002A,1*%
X60960000Y-63500000D03*
%TD*%
%TO.P,REF\u002A\u002A,5*%
%TO.N,N/C*%
X142240000Y-53340000D03*
%TO.P,REF\u002A\u002A,4*%
X142240000Y-55880000D03*
%TO.P,REF\u002A\u002A,3*%
X142240000Y-58420000D03*
%TO.P,REF\u002A\u002A,2*%
X142240000Y-60960000D03*
%TO.P,REF\u002A\u002A,1*%
X142240000Y-63500000D03*
%TD*%
%TO.P,REF\u002A\u002A,5*%
%TO.N,N/C*%
X160020000Y-53340000D03*
%TO.P,REF\u002A\u002A,4*%
X160020000Y-55880000D03*
%TO.P,REF\u002A\u002A,3*%
X160020000Y-58420000D03*
%TO.P,REF\u002A\u002A,2*%
X160020000Y-60960000D03*
%TO.P,REF\u002A\u002A,1*%
X160020000Y-63500000D03*
%TD*%
%TO.P,REF\u002A\u002A,5*%
%TO.N,N/C*%
X50800000Y-53340000D03*
%TO.P,REF\u002A\u002A,4*%
X50800000Y-55880000D03*
%TO.P,REF\u002A\u002A,3*%
X50800000Y-58420000D03*
%TO.P,REF\u002A\u002A,2*%
X50800000Y-60960000D03*
%TO.P,REF\u002A\u002A,1*%
X50800000Y-63500000D03*
%TD*%
%TO.P,REF\u002A\u002A,5*%
%TO.N,N/C*%
X152400000Y-53340000D03*
%TO.P,REF\u002A\u002A,4*%
X152400000Y-55880000D03*
%TO.P,REF\u002A\u002A,3*%
X152400000Y-58420000D03*
%TO.P,REF\u002A\u002A,2*%
X152400000Y-60960000D03*
%TO.P,REF\u002A\u002A,1*%
X152400000Y-63500000D03*
%TD*%
%TO.P,REF\u002A\u002A,5*%
%TO.N,N/C*%
X71120000Y-53340000D03*
%TO.P,REF\u002A\u002A,4*%
X71120000Y-55880000D03*
%TO.P,REF\u002A\u002A,3*%
X71120000Y-58420000D03*
%TO.P,REF\u002A\u002A,2*%
X71120000Y-60960000D03*
%TO.P,REF\u002A\u002A,1*%
X71120000Y-63500000D03*
%TD*%
%TO.P,REF\u002A\u002A,5*%
%TO.N,N/C*%
X111760000Y-53340000D03*
%TO.P,REF\u002A\u002A,4*%
X111760000Y-55880000D03*
%TO.P,REF\u002A\u002A,3*%
X111760000Y-58420000D03*
%TO.P,REF\u002A\u002A,2*%
X111760000Y-60960000D03*
%TO.P,REF\u002A\u002A,1*%
X111760000Y-63500000D03*
%TD*%
%TO.P,REF\u002A\u002A,5*%
%TO.N,N/C*%
X132080000Y-53340000D03*
%TO.P,REF\u002A\u002A,4*%
X132080000Y-55880000D03*
%TO.P,REF\u002A\u002A,3*%
X132080000Y-58420000D03*
%TO.P,REF\u002A\u002A,2*%
X132080000Y-60960000D03*
%TO.P,REF\u002A\u002A,1*%
X132080000Y-63500000D03*
%TD*%
%TO.P,REF\u002A\u002A,5*%
%TO.N,N/C*%
X175260000Y-53340000D03*
%TO.P,REF\u002A\u002A,4*%
X175260000Y-55880000D03*
%TO.P,REF\u002A\u002A,3*%
X175260000Y-58420000D03*
%TO.P,REF\u002A\u002A,2*%
X175260000Y-60960000D03*
%TO.P,REF\u002A\u002A,1*%
X175260000Y-63500000D03*
%TD*%
%TO.P,REF\u002A\u002A,5*%
%TO.N,N/C*%
X172720000Y-53340000D03*
%TO.P,REF\u002A\u002A,4*%
X172720000Y-55880000D03*
%TO.P,REF\u002A\u002A,3*%
X172720000Y-58420000D03*
%TO.P,REF\u002A\u002A,2*%
X172720000Y-60960000D03*
%TO.P,REF\u002A\u002A,1*%
X172720000Y-63500000D03*
%TD*%
%TO.P,REF\u002A\u002A,5*%
%TO.N,N/C*%
X170180000Y-53340000D03*
%TO.P,REF\u002A\u002A,4*%
X170180000Y-55880000D03*
%TO.P,REF\u002A\u002A,3*%
X170180000Y-58420000D03*
%TO.P,REF\u002A\u002A,2*%
X170180000Y-60960000D03*
%TO.P,REF\u002A\u002A,1*%
X170180000Y-63500000D03*
%TD*%
%TO.P,REF\u002A\u002A,5*%
%TO.N,N/C*%
X78740000Y-53340000D03*
%TO.P,REF\u002A\u002A,4*%
X78740000Y-55880000D03*
%TO.P,REF\u002A\u002A,3*%
X78740000Y-58420000D03*
%TO.P,REF\u002A\u002A,2*%
X78740000Y-60960000D03*
%TO.P,REF\u002A\u002A,1*%
X78740000Y-63500000D03*
%TD*%
%TO.P,REF\u002A\u002A,5*%
%TO.N,N/C*%
X210820000Y-53340000D03*
%TO.P,REF\u002A\u002A,4*%
X210820000Y-55880000D03*
%TO.P,REF\u002A\u002A,3*%
X210820000Y-58420000D03*
%TO.P,REF\u002A\u002A,2*%
X210820000Y-60960000D03*
%TO.P,REF\u002A\u002A,1*%
X210820000Y-63500000D03*
%TD*%
%TO.P,REF\u002A\u002A,5*%
%TO.N,N/C*%
X137160000Y-53340000D03*
%TO.P,REF\u002A\u002A,4*%
X137160000Y-55880000D03*
%TO.P,REF\u002A\u002A,3*%
X137160000Y-58420000D03*
%TO.P,REF\u002A\u002A,2*%
X137160000Y-60960000D03*
%TO.P,REF\u002A\u002A,1*%
X137160000Y-63500000D03*
%TD*%
%TO.P,REF\u002A\u002A,5*%
%TO.N,N/C*%
X134620000Y-53340000D03*
%TO.P,REF\u002A\u002A,4*%
X134620000Y-55880000D03*
%TO.P,REF\u002A\u002A,3*%
X134620000Y-58420000D03*
%TO.P,REF\u002A\u002A,2*%
X134620000Y-60960000D03*
%TO.P,REF\u002A\u002A,1*%
X134620000Y-63500000D03*
%TD*%
%TO.P,REF\u002A\u002A,5*%
%TO.N,N/C*%
X149860000Y-53340000D03*
%TO.P,REF\u002A\u002A,4*%
X149860000Y-55880000D03*
%TO.P,REF\u002A\u002A,3*%
X149860000Y-58420000D03*
%TO.P,REF\u002A\u002A,2*%
X149860000Y-60960000D03*
%TO.P,REF\u002A\u002A,1*%
X149860000Y-63500000D03*
%TD*%
%TO.P,REF\u002A\u002A,5*%
%TO.N,N/C*%
X162560000Y-53340000D03*
%TO.P,REF\u002A\u002A,4*%
X162560000Y-55880000D03*
%TO.P,REF\u002A\u002A,3*%
X162560000Y-58420000D03*
%TO.P,REF\u002A\u002A,2*%
X162560000Y-60960000D03*
%TO.P,REF\u002A\u002A,1*%
X162560000Y-63500000D03*
%TD*%
%TO.P,REF\u002A\u002A,5*%
%TO.N,N/C*%
X147320000Y-53340000D03*
%TO.P,REF\u002A\u002A,4*%
X147320000Y-55880000D03*
%TO.P,REF\u002A\u002A,3*%
X147320000Y-58420000D03*
%TO.P,REF\u002A\u002A,2*%
X147320000Y-60960000D03*
%TO.P,REF\u002A\u002A,1*%
X147320000Y-63500000D03*
%TD*%
%TO.P,REF\u002A\u002A,5*%
%TO.N,N/C*%
X139700000Y-53340000D03*
%TO.P,REF\u002A\u002A,4*%
X139700000Y-55880000D03*
%TO.P,REF\u002A\u002A,3*%
X139700000Y-58420000D03*
%TO.P,REF\u002A\u002A,2*%
X139700000Y-60960000D03*
%TO.P,REF\u002A\u002A,1*%
X139700000Y-63500000D03*
%TD*%
%TO.P,REF\u002A\u002A,5*%
%TO.N,N/C*%
X203200000Y-53340000D03*
%TO.P,REF\u002A\u002A,4*%
X203200000Y-55880000D03*
%TO.P,REF\u002A\u002A,3*%
X203200000Y-58420000D03*
%TO.P,REF\u002A\u002A,2*%
X203200000Y-60960000D03*
%TO.P,REF\u002A\u002A,1*%
X203200000Y-63500000D03*
%TD*%
%TO.P,REF\u002A\u002A,5*%
%TO.N,N/C*%
X187960000Y-53340000D03*
%TO.P,REF\u002A\u002A,4*%
X187960000Y-55880000D03*
%TO.P,REF\u002A\u002A,3*%
X187960000Y-58420000D03*
%TO.P,REF\u002A\u002A,2*%
X187960000Y-60960000D03*
%TO.P,REF\u002A\u002A,1*%
X187960000Y-63500000D03*
%TD*%
%TO.P,REF\u002A\u002A,5*%
%TO.N,N/C*%
X193040000Y-53340000D03*
%TO.P,REF\u002A\u002A,4*%
X193040000Y-55880000D03*
%TO.P,REF\u002A\u002A,3*%
X193040000Y-58420000D03*
%TO.P,REF\u002A\u002A,2*%
X193040000Y-60960000D03*
%TO.P,REF\u002A\u002A,1*%
X193040000Y-63500000D03*
%TD*%
%TO.P,REF\u002A\u002A,5*%
%TO.N,N/C*%
X144780000Y-53340000D03*
%TO.P,REF\u002A\u002A,4*%
X144780000Y-55880000D03*
%TO.P,REF\u002A\u002A,3*%
X144780000Y-58420000D03*
%TO.P,REF\u002A\u002A,2*%
X144780000Y-60960000D03*
%TO.P,REF\u002A\u002A,1*%
X144780000Y-63500000D03*
%TD*%
%TO.P,REF\u002A\u002A,5*%
%TO.N,N/C*%
X154940000Y-53340000D03*
%TO.P,REF\u002A\u002A,4*%
X154940000Y-55880000D03*
%TO.P,REF\u002A\u002A,3*%
X154940000Y-58420000D03*
%TO.P,REF\u002A\u002A,2*%
X154940000Y-60960000D03*
%TO.P,REF\u002A\u002A,1*%
X154940000Y-63500000D03*
%TD*%
%TO.P,REF\u002A\u002A,5*%
%TO.N,N/C*%
X167640000Y-53340000D03*
%TO.P,REF\u002A\u002A,4*%
X167640000Y-55880000D03*
%TO.P,REF\u002A\u002A,3*%
X167640000Y-58420000D03*
%TO.P,REF\u002A\u002A,2*%
X167640000Y-60960000D03*
%TO.P,REF\u002A\u002A,1*%
X167640000Y-63500000D03*
%TD*%
%TO.P,REF\u002A\u002A,5*%
%TO.N,N/C*%
X96520000Y-53340000D03*
%TO.P,REF\u002A\u002A,4*%
X96520000Y-55880000D03*
%TO.P,REF\u002A\u002A,3*%
X96520000Y-58420000D03*
%TO.P,REF\u002A\u002A,2*%
X96520000Y-60960000D03*
%TO.P,REF\u002A\u002A,1*%
X96520000Y-63500000D03*
%TD*%
%TO.P,REF\u002A\u002A,5*%
%TO.N,N/C*%
X99060000Y-53340000D03*
%TO.P,REF\u002A\u002A,4*%
X99060000Y-55880000D03*
%TO.P,REF\u002A\u002A,3*%
X99060000Y-58420000D03*
%TO.P,REF\u002A\u002A,2*%
X99060000Y-60960000D03*
%TO.P,REF\u002A\u002A,1*%
X99060000Y-63500000D03*
%TD*%
%TO.P,REF\u002A\u002A,5*%
%TO.N,N/C*%
X157480000Y-53340000D03*
%TO.P,REF\u002A\u002A,4*%
X157480000Y-55880000D03*
%TO.P,REF\u002A\u002A,3*%
X157480000Y-58420000D03*
%TO.P,REF\u002A\u002A,2*%
X157480000Y-60960000D03*
%TO.P,REF\u002A\u002A,1*%
X157480000Y-63500000D03*
%TD*%
%TO.P,REF\u002A\u002A,5*%
%TO.N,N/C*%
X208280000Y-53340000D03*
%TO.P,REF\u002A\u002A,4*%
X208280000Y-55880000D03*
%TO.P,REF\u002A\u002A,3*%
X208280000Y-58420000D03*
%TO.P,REF\u002A\u002A,2*%
X208280000Y-60960000D03*
%TO.P,REF\u002A\u002A,1*%
X208280000Y-63500000D03*
%TD*%
%TO.P,REF\u002A\u002A,64*%
%TO.N,N/C*%
X210820000Y-43180000D03*
%TO.P,REF\u002A\u002A,63*%
X208280000Y-43180000D03*
%TO.P,REF\u002A\u002A,62*%
X205740000Y-43180000D03*
%TO.P,REF\u002A\u002A,61*%
X203200000Y-43180000D03*
%TO.P,REF\u002A\u002A,60*%
X200660000Y-43180000D03*
%TO.P,REF\u002A\u002A,59*%
X198120000Y-43180000D03*
%TO.P,REF\u002A\u002A,58*%
X195580000Y-43180000D03*
%TO.P,REF\u002A\u002A,57*%
X193040000Y-43180000D03*
%TO.P,REF\u002A\u002A,56*%
X190500000Y-43180000D03*
%TO.P,REF\u002A\u002A,55*%
X187960000Y-43180000D03*
%TO.P,REF\u002A\u002A,54*%
X185420000Y-43180000D03*
%TO.P,REF\u002A\u002A,53*%
X182880000Y-43180000D03*
%TO.P,REF\u002A\u002A,52*%
X180340000Y-43180000D03*
%TO.P,REF\u002A\u002A,51*%
X177800000Y-43180000D03*
%TO.P,REF\u002A\u002A,50*%
X175260000Y-43180000D03*
%TO.P,REF\u002A\u002A,49*%
X172720000Y-43180000D03*
%TO.P,REF\u002A\u002A,48*%
X170180000Y-43180000D03*
%TO.P,REF\u002A\u002A,47*%
X167640000Y-43180000D03*
%TO.P,REF\u002A\u002A,46*%
X165100000Y-43180000D03*
%TO.P,REF\u002A\u002A,45*%
X162560000Y-43180000D03*
%TO.P,REF\u002A\u002A,44*%
X160020000Y-43180000D03*
%TO.P,REF\u002A\u002A,43*%
X157480000Y-43180000D03*
%TO.P,REF\u002A\u002A,42*%
X154940000Y-43180000D03*
%TO.P,REF\u002A\u002A,41*%
X152400000Y-43180000D03*
%TO.P,REF\u002A\u002A,40*%
X149860000Y-43180000D03*
%TO.P,REF\u002A\u002A,39*%
X147320000Y-43180000D03*
%TO.P,REF\u002A\u002A,38*%
X144780000Y-43180000D03*
%TO.P,REF\u002A\u002A,37*%
X142240000Y-43180000D03*
%TO.P,REF\u002A\u002A,36*%
X139700000Y-43180000D03*
%TO.P,REF\u002A\u002A,35*%
X137160000Y-43180000D03*
%TO.P,REF\u002A\u002A,34*%
X134620000Y-43180000D03*
%TO.P,REF\u002A\u002A,33*%
X132080000Y-43180000D03*
%TO.P,REF\u002A\u002A,32*%
X129540000Y-43180000D03*
%TO.P,REF\u002A\u002A,31*%
X127000000Y-43180000D03*
%TO.P,REF\u002A\u002A,30*%
X124460000Y-43180000D03*
%TO.P,REF\u002A\u002A,29*%
X121920000Y-43180000D03*
%TO.P,REF\u002A\u002A,28*%
X119380000Y-43180000D03*
%TO.P,REF\u002A\u002A,27*%
X116840000Y-43180000D03*
%TO.P,REF\u002A\u002A,26*%
X114300000Y-43180000D03*
%TO.P,REF\u002A\u002A,25*%
X111760000Y-43180000D03*
%TO.P,REF\u002A\u002A,24*%
X109220000Y-43180000D03*
%TO.P,REF\u002A\u002A,23*%
X106680000Y-43180000D03*
%TO.P,REF\u002A\u002A,22*%
X104140000Y-43180000D03*
%TO.P,REF\u002A\u002A,21*%
X101600000Y-43180000D03*
%TO.P,REF\u002A\u002A,20*%
X99060000Y-43180000D03*
%TO.P,REF\u002A\u002A,19*%
X96520000Y-43180000D03*
%TO.P,REF\u002A\u002A,18*%
X93980000Y-43180000D03*
%TO.P,REF\u002A\u002A,17*%
X91440000Y-43180000D03*
%TO.P,REF\u002A\u002A,16*%
X88900000Y-43180000D03*
%TO.P,REF\u002A\u002A,15*%
X86360000Y-43180000D03*
%TO.P,REF\u002A\u002A,14*%
X83820000Y-43180000D03*
%TO.P,REF\u002A\u002A,13*%
X81280000Y-43180000D03*
%TO.P,REF\u002A\u002A,12*%
X78740000Y-43180000D03*
%TO.P,REF\u002A\u002A,11*%
X76200000Y-43180000D03*
%TO.P,REF\u002A\u002A,10*%
X73660000Y-43180000D03*
%TO.P,REF\u002A\u002A,9*%
X71120000Y-43180000D03*
%TO.P,REF\u002A\u002A,8*%
X68580000Y-43180000D03*
%TO.P,REF\u002A\u002A,7*%
X66040000Y-43180000D03*
%TO.P,REF\u002A\u002A,6*%
X63500000Y-43180000D03*
%TO.P,REF\u002A\u002A,5*%
X60960000Y-43180000D03*
%TO.P,REF\u002A\u002A,4*%
X58420000Y-43180000D03*
%TO.P,REF\u002A\u002A,3*%
X55880000Y-43180000D03*
%TO.P,REF\u002A\u002A,2*%
X53340000Y-43180000D03*
%TO.P,REF\u002A\u002A,1*%
X50800000Y-43180000D03*
%TD*%
D11*
%TO.N,*%
X50800000Y-53340000D02*
X50800000Y-55880000D01*
X50800000Y-55880000D02*
X50800000Y-58420000D01*
X50800000Y-58420000D02*
X50800000Y-60960000D01*
X50800000Y-63500000D02*
X50800000Y-60960000D01*
X53340000Y-53340000D02*
X53340000Y-55880000D01*
X53340000Y-58420000D02*
X53340000Y-60960000D01*
X53340000Y-63500000D02*
X53340000Y-60960000D01*
X53340000Y-55880000D02*
X53340000Y-58420000D01*
X55880000Y-53340000D02*
X55880000Y-55880000D01*
X55880000Y-58420000D02*
X55880000Y-60960000D01*
X55880000Y-63500000D02*
X55880000Y-60960000D01*
X55880000Y-55880000D02*
X55880000Y-58420000D01*
X58420000Y-53340000D02*
X58420000Y-55880000D01*
X58420000Y-58420000D02*
X58420000Y-60960000D01*
X58420000Y-63500000D02*
X58420000Y-60960000D01*
X58420000Y-55880000D02*
X58420000Y-58420000D01*
X60960000Y-53340000D02*
X60960000Y-55880000D01*
X60960000Y-58420000D02*
X60960000Y-60960000D01*
X60960000Y-63500000D02*
X60960000Y-60960000D01*
X60960000Y-55880000D02*
X60960000Y-58420000D01*
X63500000Y-53340000D02*
X63500000Y-55880000D01*
X63500000Y-58420000D02*
X63500000Y-60960000D01*
X63500000Y-63500000D02*
X63500000Y-60960000D01*
X63500000Y-55880000D02*
X63500000Y-58420000D01*
X66040000Y-53340000D02*
X66040000Y-55880000D01*
X66040000Y-58420000D02*
X66040000Y-60960000D01*
X66040000Y-63500000D02*
X66040000Y-60960000D01*
X66040000Y-55880000D02*
X66040000Y-58420000D01*
X68580000Y-53340000D02*
X68580000Y-55880000D01*
X68580000Y-58420000D02*
X68580000Y-60960000D01*
X68580000Y-63500000D02*
X68580000Y-60960000D01*
X68580000Y-55880000D02*
X68580000Y-58420000D01*
X83820000Y-53340000D02*
X83820000Y-55880000D01*
X88900000Y-58420000D02*
X88900000Y-60960000D01*
X86360000Y-58420000D02*
X86360000Y-60960000D01*
X73660000Y-63500000D02*
X73660000Y-60960000D01*
X81280000Y-53340000D02*
X81280000Y-55880000D01*
X81280000Y-55880000D02*
X81280000Y-58420000D01*
X73660000Y-58420000D02*
X73660000Y-60960000D01*
X76200000Y-63500000D02*
X76200000Y-60960000D01*
X76200000Y-58420000D02*
X76200000Y-60960000D01*
X83820000Y-55880000D02*
X83820000Y-58420000D01*
X81280000Y-63500000D02*
X81280000Y-60960000D01*
X83820000Y-58420000D02*
X83820000Y-60960000D01*
X88900000Y-53340000D02*
X88900000Y-55880000D01*
X71120000Y-53340000D02*
X71120000Y-55880000D01*
X78740000Y-58420000D02*
X78740000Y-60960000D01*
X71120000Y-58420000D02*
X71120000Y-60960000D01*
X78740000Y-63500000D02*
X78740000Y-60960000D01*
X88900000Y-55880000D02*
X88900000Y-58420000D01*
X88900000Y-63500000D02*
X88900000Y-60960000D01*
X83820000Y-63500000D02*
X83820000Y-60960000D01*
X76200000Y-55880000D02*
X76200000Y-58420000D01*
X78740000Y-55880000D02*
X78740000Y-58420000D01*
X86360000Y-63500000D02*
X86360000Y-60960000D01*
X86360000Y-53340000D02*
X86360000Y-55880000D01*
X78740000Y-53340000D02*
X78740000Y-55880000D01*
X76200000Y-53340000D02*
X76200000Y-55880000D01*
X81280000Y-58420000D02*
X81280000Y-60960000D01*
X86360000Y-55880000D02*
X86360000Y-58420000D01*
X71120000Y-63500000D02*
X71120000Y-60960000D01*
X71120000Y-55880000D02*
X71120000Y-58420000D01*
X73660000Y-53340000D02*
X73660000Y-55880000D01*
X73660000Y-55880000D02*
X73660000Y-58420000D01*
X104140000Y-53340000D02*
X104140000Y-55880000D01*
X119380000Y-63500000D02*
X119380000Y-60960000D01*
X129540000Y-58420000D02*
X129540000Y-60960000D01*
X121920000Y-63500000D02*
X121920000Y-60960000D01*
X124460000Y-55880000D02*
X124460000Y-58420000D01*
X109220000Y-58420000D02*
X109220000Y-60960000D01*
X106680000Y-58420000D02*
X106680000Y-60960000D01*
X121920000Y-53340000D02*
X121920000Y-55880000D01*
X93980000Y-63500000D02*
X93980000Y-60960000D01*
X101600000Y-53340000D02*
X101600000Y-55880000D01*
X101600000Y-55880000D02*
X101600000Y-58420000D01*
X129540000Y-55880000D02*
X129540000Y-58420000D01*
X93980000Y-58420000D02*
X93980000Y-60960000D01*
X114300000Y-55880000D02*
X114300000Y-58420000D01*
X114300000Y-63500000D02*
X114300000Y-60960000D01*
X96520000Y-63500000D02*
X96520000Y-60960000D01*
X119380000Y-53340000D02*
X119380000Y-55880000D01*
X96520000Y-58420000D02*
X96520000Y-60960000D01*
X104140000Y-55880000D02*
X104140000Y-58420000D01*
X116840000Y-55880000D02*
X116840000Y-58420000D01*
X114300000Y-58420000D02*
X114300000Y-60960000D01*
X101600000Y-63500000D02*
X101600000Y-60960000D01*
X104140000Y-58420000D02*
X104140000Y-60960000D01*
X109220000Y-53340000D02*
X109220000Y-55880000D01*
X91440000Y-53340000D02*
X91440000Y-55880000D01*
X99060000Y-58420000D02*
X99060000Y-60960000D01*
X91440000Y-58420000D02*
X91440000Y-60960000D01*
X99060000Y-63500000D02*
X99060000Y-60960000D01*
X109220000Y-55880000D02*
X109220000Y-58420000D01*
X124460000Y-53340000D02*
X124460000Y-55880000D01*
X129540000Y-63500000D02*
X129540000Y-60960000D01*
X127000000Y-58420000D02*
X127000000Y-60960000D01*
X116840000Y-58420000D02*
X116840000Y-60960000D01*
X127000000Y-55880000D02*
X127000000Y-58420000D01*
X109220000Y-63500000D02*
X109220000Y-60960000D01*
X104140000Y-63500000D02*
X104140000Y-60960000D01*
X96520000Y-55880000D02*
X96520000Y-58420000D01*
X99060000Y-55880000D02*
X99060000Y-58420000D01*
X129540000Y-53340000D02*
X129540000Y-55880000D01*
X127000000Y-63500000D02*
X127000000Y-60960000D01*
X114300000Y-53340000D02*
X114300000Y-55880000D01*
X124460000Y-58420000D02*
X124460000Y-60960000D01*
X124460000Y-63500000D02*
X124460000Y-60960000D01*
X119380000Y-58420000D02*
X119380000Y-60960000D01*
X106680000Y-63500000D02*
X106680000Y-60960000D01*
X121920000Y-58420000D02*
X121920000Y-60960000D01*
X106680000Y-53340000D02*
X106680000Y-55880000D01*
X121920000Y-55880000D02*
X121920000Y-58420000D01*
X99060000Y-53340000D02*
X99060000Y-55880000D01*
X111760000Y-58420000D02*
X111760000Y-60960000D01*
X116840000Y-53340000D02*
X116840000Y-55880000D01*
X119380000Y-55880000D02*
X119380000Y-58420000D01*
X111760000Y-53340000D02*
X111760000Y-55880000D01*
X96520000Y-53340000D02*
X96520000Y-55880000D01*
X111760000Y-55880000D02*
X111760000Y-58420000D01*
X101600000Y-58420000D02*
X101600000Y-60960000D01*
X106680000Y-55880000D02*
X106680000Y-58420000D01*
X91440000Y-63500000D02*
X91440000Y-60960000D01*
X91440000Y-55880000D02*
X91440000Y-58420000D01*
X93980000Y-53340000D02*
X93980000Y-55880000D01*
X116840000Y-63500000D02*
X116840000Y-60960000D01*
X127000000Y-53340000D02*
X127000000Y-55880000D01*
X111760000Y-63500000D02*
X111760000Y-60960000D01*
X93980000Y-55880000D02*
X93980000Y-58420000D01*
X144780000Y-53340000D02*
X144780000Y-55880000D01*
X160020000Y-63500000D02*
X160020000Y-60960000D01*
X170180000Y-58420000D02*
X170180000Y-60960000D01*
X162560000Y-63500000D02*
X162560000Y-60960000D01*
X165100000Y-55880000D02*
X165100000Y-58420000D01*
X149860000Y-58420000D02*
X149860000Y-60960000D01*
X147320000Y-58420000D02*
X147320000Y-60960000D01*
X162560000Y-53340000D02*
X162560000Y-55880000D01*
X134620000Y-63500000D02*
X134620000Y-60960000D01*
X142240000Y-53340000D02*
X142240000Y-55880000D01*
X142240000Y-55880000D02*
X142240000Y-58420000D01*
X170180000Y-55880000D02*
X170180000Y-58420000D01*
X134620000Y-58420000D02*
X134620000Y-60960000D01*
X154940000Y-55880000D02*
X154940000Y-58420000D01*
X154940000Y-63500000D02*
X154940000Y-60960000D01*
X137160000Y-63500000D02*
X137160000Y-60960000D01*
X160020000Y-53340000D02*
X160020000Y-55880000D01*
X137160000Y-58420000D02*
X137160000Y-60960000D01*
X144780000Y-55880000D02*
X144780000Y-58420000D01*
X157480000Y-55880000D02*
X157480000Y-58420000D01*
X154940000Y-58420000D02*
X154940000Y-60960000D01*
X142240000Y-63500000D02*
X142240000Y-60960000D01*
X144780000Y-58420000D02*
X144780000Y-60960000D01*
X149860000Y-53340000D02*
X149860000Y-55880000D01*
X132080000Y-53340000D02*
X132080000Y-55880000D01*
X139700000Y-58420000D02*
X139700000Y-60960000D01*
X132080000Y-58420000D02*
X132080000Y-60960000D01*
X139700000Y-63500000D02*
X139700000Y-60960000D01*
X149860000Y-55880000D02*
X149860000Y-58420000D01*
X165100000Y-53340000D02*
X165100000Y-55880000D01*
X170180000Y-63500000D02*
X170180000Y-60960000D01*
X167640000Y-58420000D02*
X167640000Y-60960000D01*
X157480000Y-58420000D02*
X157480000Y-60960000D01*
X167640000Y-55880000D02*
X167640000Y-58420000D01*
X149860000Y-63500000D02*
X149860000Y-60960000D01*
X144780000Y-63500000D02*
X144780000Y-60960000D01*
X137160000Y-55880000D02*
X137160000Y-58420000D01*
X139700000Y-55880000D02*
X139700000Y-58420000D01*
X170180000Y-53340000D02*
X170180000Y-55880000D01*
X167640000Y-63500000D02*
X167640000Y-60960000D01*
X154940000Y-53340000D02*
X154940000Y-55880000D01*
X165100000Y-58420000D02*
X165100000Y-60960000D01*
X165100000Y-63500000D02*
X165100000Y-60960000D01*
X160020000Y-58420000D02*
X160020000Y-60960000D01*
X147320000Y-63500000D02*
X147320000Y-60960000D01*
X162560000Y-58420000D02*
X162560000Y-60960000D01*
X147320000Y-53340000D02*
X147320000Y-55880000D01*
X162560000Y-55880000D02*
X162560000Y-58420000D01*
X139700000Y-53340000D02*
X139700000Y-55880000D01*
X152400000Y-58420000D02*
X152400000Y-60960000D01*
X157480000Y-53340000D02*
X157480000Y-55880000D01*
X160020000Y-55880000D02*
X160020000Y-58420000D01*
X152400000Y-53340000D02*
X152400000Y-55880000D01*
X137160000Y-53340000D02*
X137160000Y-55880000D01*
X152400000Y-55880000D02*
X152400000Y-58420000D01*
X142240000Y-58420000D02*
X142240000Y-60960000D01*
X147320000Y-55880000D02*
X147320000Y-58420000D01*
X132080000Y-63500000D02*
X132080000Y-60960000D01*
X132080000Y-55880000D02*
X132080000Y-58420000D01*
X134620000Y-53340000D02*
X134620000Y-55880000D01*
D12*
X157480000Y-63500000D02*
X157480000Y-60960000D01*
D11*
X167640000Y-53340000D02*
X167640000Y-55880000D01*
X152400000Y-63500000D02*
X152400000Y-60960000D01*
X134620000Y-55880000D02*
X134620000Y-58420000D01*
X185420000Y-53340000D02*
X185420000Y-55880000D01*
X200660000Y-63500000D02*
X200660000Y-60960000D01*
X210820000Y-58420000D02*
X210820000Y-60960000D01*
X203200000Y-63500000D02*
X203200000Y-60960000D01*
X205740000Y-55880000D02*
X205740000Y-58420000D01*
X190500000Y-58420000D02*
X190500000Y-60960000D01*
X187960000Y-58420000D02*
X187960000Y-60960000D01*
X203200000Y-53340000D02*
X203200000Y-55880000D01*
X175260000Y-63500000D02*
X175260000Y-60960000D01*
X182880000Y-53340000D02*
X182880000Y-55880000D01*
X182880000Y-55880000D02*
X182880000Y-58420000D01*
X210820000Y-55880000D02*
X210820000Y-58420000D01*
X175260000Y-58420000D02*
X175260000Y-60960000D01*
X195580000Y-55880000D02*
X195580000Y-58420000D01*
X195580000Y-63500000D02*
X195580000Y-60960000D01*
X177800000Y-63500000D02*
X177800000Y-60960000D01*
X200660000Y-53340000D02*
X200660000Y-55880000D01*
X177800000Y-58420000D02*
X177800000Y-60960000D01*
X185420000Y-55880000D02*
X185420000Y-58420000D01*
X198120000Y-55880000D02*
X198120000Y-58420000D01*
X195580000Y-58420000D02*
X195580000Y-60960000D01*
X182880000Y-63500000D02*
X182880000Y-60960000D01*
X185420000Y-58420000D02*
X185420000Y-60960000D01*
X190500000Y-53340000D02*
X190500000Y-55880000D01*
X172720000Y-53340000D02*
X172720000Y-55880000D01*
X180340000Y-58420000D02*
X180340000Y-60960000D01*
X172720000Y-58420000D02*
X172720000Y-60960000D01*
X180340000Y-63500000D02*
X180340000Y-60960000D01*
X190500000Y-55880000D02*
X190500000Y-58420000D01*
X205740000Y-53340000D02*
X205740000Y-55880000D01*
X210820000Y-63500000D02*
X210820000Y-60960000D01*
X208280000Y-58420000D02*
X208280000Y-60960000D01*
X198120000Y-58420000D02*
X198120000Y-60960000D01*
X208280000Y-55880000D02*
X208280000Y-58420000D01*
X190500000Y-63500000D02*
X190500000Y-60960000D01*
X185420000Y-63500000D02*
X185420000Y-60960000D01*
X177800000Y-55880000D02*
X177800000Y-58420000D01*
X180340000Y-55880000D02*
X180340000Y-58420000D01*
X210820000Y-53340000D02*
X210820000Y-55880000D01*
X208280000Y-63500000D02*
X208280000Y-60960000D01*
X195580000Y-53340000D02*
X195580000Y-55880000D01*
X205740000Y-58420000D02*
X205740000Y-60960000D01*
X205740000Y-63500000D02*
X205740000Y-60960000D01*
X200660000Y-58420000D02*
X200660000Y-60960000D01*
X187960000Y-63500000D02*
X187960000Y-60960000D01*
X203200000Y-58420000D02*
X203200000Y-60960000D01*
X187960000Y-53340000D02*
X187960000Y-55880000D01*
X203200000Y-55880000D02*
X203200000Y-58420000D01*
X180340000Y-53340000D02*
X180340000Y-55880000D01*
X193040000Y-58420000D02*
X193040000Y-60960000D01*
X198120000Y-53340000D02*
X198120000Y-55880000D01*
X200660000Y-55880000D02*
X200660000Y-58420000D01*
X193040000Y-53340000D02*
X193040000Y-55880000D01*
X177800000Y-53340000D02*
X177800000Y-55880000D01*
X193040000Y-55880000D02*
X193040000Y-58420000D01*
X182880000Y-58420000D02*
X182880000Y-60960000D01*
X187960000Y-55880000D02*
X187960000Y-58420000D01*
X172720000Y-63500000D02*
X172720000Y-60960000D01*
X172720000Y-55880000D02*
X172720000Y-58420000D01*
X175260000Y-53340000D02*
X175260000Y-55880000D01*
X198120000Y-63500000D02*
X198120000Y-60960000D01*
X208280000Y-53340000D02*
X208280000Y-55880000D01*
X193040000Y-63500000D02*
X193040000Y-60960000D01*
X175260000Y-55880000D02*
X175260000Y-58420000D01*
X60960000Y-76200000D02*
X60960000Y-73660000D01*
X129540000Y-71120000D02*
X129540000Y-73660000D01*
X139700000Y-71120000D02*
X139700000Y-73660000D01*
X152400000Y-71120000D02*
X152400000Y-73660000D01*
X198120000Y-81280000D02*
X198120000Y-78740000D01*
X116840000Y-78740000D02*
X116840000Y-76200000D01*
X99060000Y-71120000D02*
X99060000Y-73660000D01*
X182880000Y-71120000D02*
X182880000Y-73660000D01*
X139700000Y-78740000D02*
X139700000Y-76200000D01*
X172720000Y-76200000D02*
X172720000Y-73660000D01*
X180340000Y-71120000D02*
X180340000Y-73660000D01*
X177800000Y-78740000D02*
X177800000Y-76200000D01*
X193040000Y-76200000D02*
X193040000Y-73660000D01*
X121920000Y-76200000D02*
X121920000Y-73660000D01*
X152400000Y-81280000D02*
X152400000Y-78740000D01*
X195580000Y-76200000D02*
X195580000Y-73660000D01*
X142240000Y-76200000D02*
X142240000Y-73660000D01*
X127000000Y-76200000D02*
X127000000Y-73660000D01*
X101600000Y-81280000D02*
X101600000Y-78740000D01*
X93980000Y-76200000D02*
X93980000Y-73660000D01*
X96520000Y-78740000D02*
X96520000Y-76200000D01*
X99060000Y-81280000D02*
X99060000Y-78740000D01*
X106680000Y-71120000D02*
X106680000Y-73660000D01*
X78740000Y-76200000D02*
X78740000Y-73660000D01*
X180340000Y-81280000D02*
X180340000Y-78740000D01*
X154940000Y-81280000D02*
X154940000Y-78740000D01*
X71120000Y-78740000D02*
X71120000Y-76200000D01*
X127000000Y-71120000D02*
X127000000Y-73660000D01*
X144780000Y-78740000D02*
X144780000Y-76200000D01*
X208280000Y-71120000D02*
X208280000Y-73660000D01*
X129540000Y-76200000D02*
X129540000Y-73660000D01*
X200660000Y-81280000D02*
X200660000Y-78740000D01*
X154940000Y-71120000D02*
X154940000Y-73660000D01*
X106680000Y-76200000D02*
X106680000Y-73660000D01*
X88900000Y-78740000D02*
X88900000Y-76200000D01*
X111760000Y-81280000D02*
X111760000Y-78740000D01*
X200660000Y-78740000D02*
X200660000Y-76200000D01*
X172720000Y-78740000D02*
X172720000Y-76200000D01*
X139700000Y-76200000D02*
X139700000Y-73660000D01*
X58420000Y-81280000D02*
X58420000Y-78740000D01*
X71120000Y-71120000D02*
X71120000Y-73660000D01*
X101600000Y-71120000D02*
X101600000Y-73660000D01*
X114300000Y-71120000D02*
X114300000Y-73660000D01*
X53340000Y-81280000D02*
X53340000Y-78740000D01*
X58420000Y-71120000D02*
X58420000Y-73660000D01*
X119380000Y-81280000D02*
X119380000Y-78740000D01*
X78740000Y-81280000D02*
X78740000Y-78740000D01*
X91440000Y-71120000D02*
X91440000Y-73660000D01*
X208280000Y-76200000D02*
X208280000Y-73660000D01*
X73660000Y-78740000D02*
X73660000Y-76200000D01*
X187960000Y-78740000D02*
X187960000Y-76200000D01*
X187960000Y-71120000D02*
X187960000Y-73660000D01*
X205740000Y-71120000D02*
X205740000Y-73660000D01*
X116840000Y-81280000D02*
X116840000Y-78740000D01*
X93980000Y-71120000D02*
X93980000Y-73660000D01*
X142240000Y-78740000D02*
X142240000Y-76200000D01*
X93980000Y-78740000D02*
X93980000Y-76200000D01*
X182880000Y-81280000D02*
X182880000Y-78740000D01*
X205740000Y-76200000D02*
X205740000Y-73660000D01*
X106680000Y-78740000D02*
X106680000Y-76200000D01*
X66040000Y-76200000D02*
X66040000Y-73660000D01*
X198120000Y-78740000D02*
X198120000Y-76200000D01*
X185420000Y-78740000D02*
X185420000Y-76200000D01*
X55880000Y-78740000D02*
X55880000Y-76200000D01*
X170180000Y-71120000D02*
X170180000Y-73660000D01*
X147320000Y-71120000D02*
X147320000Y-73660000D01*
X157480000Y-78740000D02*
X157480000Y-76200000D01*
X187960000Y-76200000D02*
X187960000Y-73660000D01*
X162560000Y-76200000D02*
X162560000Y-73660000D01*
X200660000Y-71120000D02*
X200660000Y-73660000D01*
X157480000Y-81280000D02*
X157480000Y-78740000D01*
X58420000Y-78740000D02*
X58420000Y-76200000D01*
X134620000Y-78740000D02*
X134620000Y-76200000D01*
X139700000Y-81280000D02*
X139700000Y-78740000D01*
X96520000Y-81280000D02*
X96520000Y-78740000D01*
X198120000Y-76200000D02*
X198120000Y-73660000D01*
X109220000Y-76200000D02*
X109220000Y-73660000D01*
X81280000Y-78740000D02*
X81280000Y-76200000D01*
X149860000Y-78740000D02*
X149860000Y-76200000D01*
X193040000Y-81280000D02*
X193040000Y-78740000D01*
X116840000Y-76200000D02*
X116840000Y-73660000D01*
X149860000Y-71120000D02*
X149860000Y-73660000D01*
X165100000Y-78740000D02*
X165100000Y-76200000D01*
X132080000Y-76200000D02*
X132080000Y-73660000D01*
X121920000Y-81280000D02*
X121920000Y-78740000D01*
X124460000Y-76200000D02*
X124460000Y-73660000D01*
X99060000Y-78740000D02*
X99060000Y-76200000D01*
X86360000Y-76200000D02*
X86360000Y-73660000D01*
X76200000Y-81280000D02*
X76200000Y-78740000D01*
X210820000Y-81280000D02*
X210820000Y-78740000D01*
X203200000Y-76200000D02*
X203200000Y-73660000D01*
X119380000Y-71120000D02*
X119380000Y-73660000D01*
X66040000Y-71120000D02*
X66040000Y-73660000D01*
X210820000Y-76200000D02*
X210820000Y-73660000D01*
X203200000Y-71120000D02*
X203200000Y-73660000D01*
X134620000Y-71120000D02*
X134620000Y-73660000D01*
X66040000Y-81280000D02*
X66040000Y-78740000D01*
X50800000Y-76200000D02*
X50800000Y-73660000D01*
X93980000Y-81280000D02*
X93980000Y-78740000D01*
X193040000Y-78740000D02*
X193040000Y-76200000D01*
X111760000Y-76200000D02*
X111760000Y-73660000D01*
X76200000Y-78740000D02*
X76200000Y-76200000D01*
X63500000Y-78740000D02*
X63500000Y-76200000D01*
X111760000Y-78740000D02*
X111760000Y-76200000D01*
X177800000Y-81280000D02*
X177800000Y-78740000D01*
X167640000Y-78740000D02*
X167640000Y-76200000D01*
X172720000Y-71120000D02*
X172720000Y-73660000D01*
X175260000Y-76200000D02*
X175260000Y-73660000D01*
X185420000Y-76200000D02*
X185420000Y-73660000D01*
X175260000Y-78740000D02*
X175260000Y-76200000D01*
X193040000Y-71120000D02*
X193040000Y-73660000D01*
X91440000Y-81280000D02*
X91440000Y-78740000D01*
X170180000Y-81280000D02*
X170180000Y-78740000D01*
X111760000Y-71120000D02*
X111760000Y-73660000D01*
X167640000Y-71120000D02*
X167640000Y-73660000D01*
X162560000Y-78740000D02*
X162560000Y-76200000D01*
X109220000Y-71120000D02*
X109220000Y-73660000D01*
X63500000Y-81280000D02*
X63500000Y-78740000D01*
X198120000Y-71120000D02*
X198120000Y-73660000D01*
X137160000Y-78740000D02*
X137160000Y-76200000D01*
X205740000Y-78740000D02*
X205740000Y-76200000D01*
X101600000Y-76200000D02*
X101600000Y-73660000D01*
X203200000Y-78740000D02*
X203200000Y-76200000D01*
X147320000Y-78740000D02*
X147320000Y-76200000D01*
X172720000Y-81280000D02*
X172720000Y-78740000D01*
X132080000Y-78740000D02*
X132080000Y-76200000D01*
X154940000Y-76200000D02*
X154940000Y-73660000D01*
X167640000Y-81280000D02*
X167640000Y-78740000D01*
X144780000Y-71120000D02*
X144780000Y-73660000D01*
X104140000Y-76200000D02*
X104140000Y-73660000D01*
X132080000Y-71120000D02*
X132080000Y-73660000D01*
X149860000Y-81280000D02*
X149860000Y-78740000D01*
X175260000Y-71120000D02*
X175260000Y-73660000D01*
X187960000Y-81280000D02*
X187960000Y-78740000D01*
X119380000Y-76200000D02*
X119380000Y-73660000D01*
X177800000Y-76200000D02*
X177800000Y-73660000D01*
X114300000Y-78740000D02*
X114300000Y-76200000D01*
X55880000Y-76200000D02*
X55880000Y-73660000D01*
X88900000Y-76200000D02*
X88900000Y-73660000D01*
X50800000Y-78740000D02*
X50800000Y-76200000D01*
X109220000Y-81280000D02*
X109220000Y-78740000D01*
X83820000Y-76200000D02*
X83820000Y-73660000D01*
X50800000Y-71120000D02*
X50800000Y-73660000D01*
X63500000Y-71120000D02*
X63500000Y-73660000D01*
X170180000Y-76200000D02*
X170180000Y-73660000D01*
X160020000Y-76200000D02*
X160020000Y-73660000D01*
X114300000Y-81280000D02*
X114300000Y-78740000D01*
X170180000Y-78740000D02*
X170180000Y-76200000D01*
X177800000Y-71120000D02*
X177800000Y-73660000D01*
X182880000Y-76200000D02*
X182880000Y-73660000D01*
X83820000Y-81280000D02*
X83820000Y-78740000D01*
X167640000Y-76200000D02*
X167640000Y-73660000D01*
X165100000Y-71120000D02*
X165100000Y-73660000D01*
X55880000Y-81280000D02*
X55880000Y-78740000D01*
X68580000Y-78740000D02*
X68580000Y-76200000D01*
X60960000Y-81280000D02*
X60960000Y-78740000D01*
X149860000Y-76200000D02*
X149860000Y-73660000D01*
X195580000Y-71120000D02*
X195580000Y-73660000D01*
X147320000Y-76200000D02*
X147320000Y-73660000D01*
X180340000Y-76200000D02*
X180340000Y-73660000D01*
X127000000Y-78740000D02*
X127000000Y-76200000D01*
X152400000Y-76200000D02*
X152400000Y-73660000D01*
X68580000Y-71120000D02*
X68580000Y-73660000D01*
X160020000Y-71120000D02*
X160020000Y-73660000D01*
X83820000Y-78740000D02*
X83820000Y-76200000D01*
X60960000Y-78740000D02*
X60960000Y-76200000D01*
X195580000Y-81280000D02*
X195580000Y-78740000D01*
X121920000Y-71120000D02*
X121920000Y-73660000D01*
X124460000Y-71120000D02*
X124460000Y-73660000D01*
X73660000Y-71120000D02*
X73660000Y-73660000D01*
X157480000Y-71120000D02*
X157480000Y-73660000D01*
X142240000Y-71120000D02*
X142240000Y-73660000D01*
X144780000Y-81280000D02*
X144780000Y-78740000D01*
X73660000Y-76200000D02*
X73660000Y-73660000D01*
X121920000Y-78740000D02*
X121920000Y-76200000D01*
X96520000Y-76200000D02*
X96520000Y-73660000D01*
X53340000Y-76200000D02*
X53340000Y-73660000D01*
X154940000Y-78740000D02*
X154940000Y-76200000D01*
X127000000Y-81280000D02*
X127000000Y-78740000D01*
X86360000Y-78740000D02*
X86360000Y-76200000D01*
X73660000Y-81280000D02*
X73660000Y-78740000D01*
X134620000Y-76200000D02*
X134620000Y-73660000D01*
X129540000Y-78740000D02*
X129540000Y-76200000D01*
X180340000Y-78740000D02*
X180340000Y-76200000D01*
X83820000Y-71120000D02*
X83820000Y-73660000D01*
X203200000Y-81280000D02*
X203200000Y-78740000D01*
X160020000Y-78740000D02*
X160020000Y-76200000D01*
X60960000Y-71120000D02*
X60960000Y-73660000D01*
X165100000Y-76200000D02*
X165100000Y-73660000D01*
X190500000Y-76200000D02*
X190500000Y-73660000D01*
X88900000Y-71120000D02*
X88900000Y-73660000D01*
X134620000Y-81280000D02*
X134620000Y-78740000D01*
X66040000Y-78740000D02*
X66040000Y-76200000D01*
X160020000Y-81280000D02*
X160020000Y-78740000D01*
X78740000Y-78740000D02*
X78740000Y-76200000D01*
X86360000Y-71120000D02*
X86360000Y-73660000D01*
X63500000Y-76200000D02*
X63500000Y-73660000D01*
X124460000Y-78740000D02*
X124460000Y-76200000D01*
X185420000Y-81280000D02*
X185420000Y-78740000D01*
X104140000Y-81280000D02*
X104140000Y-78740000D01*
X144780000Y-76200000D02*
X144780000Y-73660000D01*
X129540000Y-81280000D02*
X129540000Y-78740000D01*
X119380000Y-78740000D02*
X119380000Y-76200000D01*
X182880000Y-78740000D02*
X182880000Y-76200000D01*
X109220000Y-78740000D02*
X109220000Y-76200000D01*
X190500000Y-81280000D02*
X190500000Y-78740000D01*
X147320000Y-81280000D02*
X147320000Y-78740000D01*
X205740000Y-81280000D02*
X205740000Y-78740000D01*
X101600000Y-78740000D02*
X101600000Y-76200000D01*
X190500000Y-78740000D02*
X190500000Y-76200000D01*
X104140000Y-78740000D02*
X104140000Y-76200000D01*
X200660000Y-76200000D02*
X200660000Y-73660000D01*
X195580000Y-78740000D02*
X195580000Y-76200000D01*
X53340000Y-78740000D02*
X53340000Y-76200000D01*
X76200000Y-71120000D02*
X76200000Y-73660000D01*
X137160000Y-71120000D02*
X137160000Y-73660000D01*
X68580000Y-81280000D02*
X68580000Y-78740000D01*
X124460000Y-81280000D02*
X124460000Y-78740000D01*
X210820000Y-71120000D02*
X210820000Y-73660000D01*
X210820000Y-78740000D02*
X210820000Y-76200000D01*
X208280000Y-81280000D02*
X208280000Y-78740000D01*
X132080000Y-81280000D02*
X132080000Y-78740000D01*
X137160000Y-81280000D02*
X137160000Y-78740000D01*
X81280000Y-81280000D02*
X81280000Y-78740000D01*
X116840000Y-71120000D02*
X116840000Y-73660000D01*
X114300000Y-76200000D02*
X114300000Y-73660000D01*
X106680000Y-81280000D02*
X106680000Y-78740000D01*
X165100000Y-81280000D02*
X165100000Y-78740000D01*
X99060000Y-76200000D02*
X99060000Y-73660000D01*
X91440000Y-78740000D02*
X91440000Y-76200000D01*
X96520000Y-71120000D02*
X96520000Y-73660000D01*
X58420000Y-76200000D02*
X58420000Y-73660000D01*
X71120000Y-76200000D02*
X71120000Y-73660000D01*
X50800000Y-81280000D02*
X50800000Y-78740000D01*
X81280000Y-71120000D02*
X81280000Y-73660000D01*
X152400000Y-78740000D02*
X152400000Y-76200000D01*
X78740000Y-71120000D02*
X78740000Y-73660000D01*
X76200000Y-76200000D02*
X76200000Y-73660000D01*
X185420000Y-71120000D02*
X185420000Y-73660000D01*
X175260000Y-81280000D02*
X175260000Y-78740000D01*
X55880000Y-71120000D02*
X55880000Y-73660000D01*
X81280000Y-76200000D02*
X81280000Y-73660000D01*
X88900000Y-81280000D02*
X88900000Y-78740000D01*
X137160000Y-76200000D02*
X137160000Y-73660000D01*
X162560000Y-81280000D02*
X162560000Y-78740000D01*
X104140000Y-71120000D02*
X104140000Y-73660000D01*
X190500000Y-71120000D02*
X190500000Y-73660000D01*
X142240000Y-81280000D02*
X142240000Y-78740000D01*
X162560000Y-71120000D02*
X162560000Y-73660000D01*
X71120000Y-81280000D02*
X71120000Y-78740000D01*
X53340000Y-71120000D02*
X53340000Y-73660000D01*
X208280000Y-78740000D02*
X208280000Y-76200000D01*
X68580000Y-76200000D02*
X68580000Y-73660000D01*
X157480000Y-76200000D02*
X157480000Y-73660000D01*
X86360000Y-81280000D02*
X86360000Y-78740000D01*
X91440000Y-76200000D02*
X91440000Y-73660000D01*
D13*
X134620000Y-91440000D02*
X137160000Y-91440000D01*
X86360000Y-91440000D02*
X88900000Y-91440000D01*
X106680000Y-91440000D02*
X109220000Y-91440000D01*
X58420000Y-91440000D02*
X60960000Y-91440000D01*
X111760000Y-91440000D02*
X114300000Y-91440000D01*
X119380000Y-91440000D02*
X121920000Y-91440000D01*
X116840000Y-91440000D02*
X119380000Y-91440000D01*
X78740000Y-91440000D02*
X81280000Y-91440000D01*
X139700000Y-91440000D02*
X137160000Y-91440000D01*
X96520000Y-91440000D02*
X99060000Y-91440000D01*
X88900000Y-91440000D02*
X91440000Y-91440000D01*
X66040000Y-91440000D02*
X68580000Y-91440000D01*
X73660000Y-91440000D02*
X76200000Y-91440000D01*
X76200000Y-91440000D02*
X78740000Y-91440000D01*
X101600000Y-91440000D02*
X104140000Y-91440000D01*
X68580000Y-91440000D02*
X71120000Y-91440000D01*
X142240000Y-91440000D02*
X139700000Y-91440000D01*
X71120000Y-91440000D02*
X73660000Y-91440000D01*
X124460000Y-91440000D02*
X129540000Y-91440000D01*
X83820000Y-91440000D02*
X86360000Y-91440000D01*
X104140000Y-91440000D02*
X106680000Y-91440000D01*
X63500000Y-91440000D02*
X66040000Y-91440000D01*
X53340000Y-91440000D02*
X55880000Y-91440000D01*
X99060000Y-91440000D02*
X101600000Y-91440000D01*
X129540000Y-91440000D02*
X127000000Y-91440000D01*
X60960000Y-91440000D02*
X63500000Y-91440000D01*
X121920000Y-91440000D02*
X124460000Y-91440000D01*
X114300000Y-91440000D02*
X116840000Y-91440000D01*
X91440000Y-91440000D02*
X93980000Y-91440000D01*
X132080000Y-91440000D02*
X134620000Y-91440000D01*
X81280000Y-91440000D02*
X83820000Y-91440000D01*
X109220000Y-91440000D02*
X111760000Y-91440000D01*
X93980000Y-91440000D02*
X96520000Y-91440000D01*
X127000000Y-91440000D02*
X132080000Y-91440000D01*
X55880000Y-91440000D02*
X58420000Y-91440000D01*
X142240000Y-91440000D02*
X210820000Y-91440000D01*
X50800000Y-91440000D02*
X53340000Y-91440000D01*
X63500000Y-88900000D02*
X66040000Y-88900000D01*
X109220000Y-88900000D02*
X111760000Y-88900000D01*
X121920000Y-88900000D02*
X124460000Y-88900000D01*
X142240000Y-88900000D02*
X210820000Y-88900000D01*
X55880000Y-88900000D02*
X58420000Y-88900000D01*
X50800000Y-88900000D02*
X53340000Y-88900000D01*
X60960000Y-88900000D02*
X63500000Y-88900000D01*
X66040000Y-88900000D02*
X68580000Y-88900000D01*
X129540000Y-88900000D02*
X127000000Y-88900000D01*
X99060000Y-88900000D02*
X101600000Y-88900000D01*
X104140000Y-88900000D02*
X106680000Y-88900000D01*
X101600000Y-88900000D02*
X104140000Y-88900000D01*
X78740000Y-88900000D02*
X81280000Y-88900000D01*
X124460000Y-88900000D02*
X129540000Y-88900000D01*
X86360000Y-88900000D02*
X88900000Y-88900000D01*
X119380000Y-88900000D02*
X121920000Y-88900000D01*
X83820000Y-88900000D02*
X86360000Y-88900000D01*
X88900000Y-88900000D02*
X91440000Y-88900000D01*
X91440000Y-88900000D02*
X93980000Y-88900000D01*
X116840000Y-88900000D02*
X119380000Y-88900000D01*
X134620000Y-88900000D02*
X137160000Y-88900000D01*
X71120000Y-88900000D02*
X73660000Y-88900000D01*
X58420000Y-88900000D02*
X60960000Y-88900000D01*
X76200000Y-88900000D02*
X78740000Y-88900000D01*
X96520000Y-88900000D02*
X99060000Y-88900000D01*
X106680000Y-88900000D02*
X109220000Y-88900000D01*
X68580000Y-88900000D02*
X71120000Y-88900000D01*
X111760000Y-88900000D02*
X114300000Y-88900000D01*
X127000000Y-88900000D02*
X132080000Y-88900000D01*
X114300000Y-88900000D02*
X116840000Y-88900000D01*
X73660000Y-88900000D02*
X76200000Y-88900000D01*
X53340000Y-88900000D02*
X55880000Y-88900000D01*
X139700000Y-88900000D02*
X137160000Y-88900000D01*
X81280000Y-88900000D02*
X83820000Y-88900000D01*
X132080000Y-88900000D02*
X134620000Y-88900000D01*
X93980000Y-88900000D02*
X96520000Y-88900000D01*
X142240000Y-88900000D02*
X139700000Y-88900000D01*
X55880000Y-43180000D02*
X58420000Y-43180000D01*
X63500000Y-43180000D02*
X66040000Y-43180000D01*
X63500000Y-45720000D02*
X66040000Y-45720000D01*
X121920000Y-43180000D02*
X124460000Y-43180000D01*
X109220000Y-45720000D02*
X111760000Y-45720000D01*
X121920000Y-45720000D02*
X124460000Y-45720000D01*
X142240000Y-45720000D02*
X210820000Y-45720000D01*
X55880000Y-45720000D02*
X58420000Y-45720000D01*
X50800000Y-45720000D02*
X53340000Y-45720000D01*
X78740000Y-43180000D02*
X81280000Y-43180000D01*
X60960000Y-45720000D02*
X63500000Y-45720000D01*
X66040000Y-45720000D02*
X68580000Y-45720000D01*
X71120000Y-43180000D02*
X73660000Y-43180000D01*
X76200000Y-43180000D02*
X78740000Y-43180000D01*
X66040000Y-43180000D02*
X68580000Y-43180000D01*
X93980000Y-43180000D02*
X96520000Y-43180000D01*
X101600000Y-43180000D02*
X104140000Y-43180000D01*
X99060000Y-43180000D02*
X101600000Y-43180000D01*
X129540000Y-45720000D02*
X127000000Y-45720000D01*
X99060000Y-45720000D02*
X101600000Y-45720000D01*
X104140000Y-45720000D02*
X106680000Y-45720000D01*
X96520000Y-43180000D02*
X99060000Y-43180000D01*
X127000000Y-43180000D02*
X132080000Y-43180000D01*
X101600000Y-45720000D02*
X104140000Y-45720000D01*
X78740000Y-45720000D02*
X81280000Y-45720000D01*
X109220000Y-43180000D02*
X111760000Y-43180000D01*
X124460000Y-45720000D02*
X129540000Y-45720000D01*
X114300000Y-43180000D02*
X116840000Y-43180000D01*
X86360000Y-45720000D02*
X88900000Y-45720000D01*
X86360000Y-43180000D02*
X88900000Y-43180000D01*
X119380000Y-45720000D02*
X121920000Y-45720000D01*
X142240000Y-43180000D02*
X210820000Y-43180000D01*
X106680000Y-43180000D02*
X109220000Y-43180000D01*
X53340000Y-43180000D02*
X55880000Y-43180000D01*
X83820000Y-45720000D02*
X86360000Y-45720000D01*
X88900000Y-45720000D02*
X91440000Y-45720000D01*
X111760000Y-43180000D02*
X114300000Y-43180000D01*
X91440000Y-43180000D02*
X93980000Y-43180000D01*
X91440000Y-45720000D02*
X93980000Y-45720000D01*
X104140000Y-43180000D02*
X106680000Y-43180000D01*
X116840000Y-45720000D02*
X119380000Y-45720000D01*
X73660000Y-43180000D02*
X76200000Y-43180000D01*
X129540000Y-43180000D02*
X127000000Y-43180000D01*
X88900000Y-43180000D02*
X91440000Y-43180000D01*
X119380000Y-43180000D02*
X121920000Y-43180000D01*
X81280000Y-43180000D02*
X83820000Y-43180000D01*
X132080000Y-43180000D02*
X134620000Y-43180000D01*
X68580000Y-43180000D02*
X71120000Y-43180000D01*
X116840000Y-43180000D02*
X119380000Y-43180000D01*
X134620000Y-45720000D02*
X137160000Y-45720000D01*
X71120000Y-45720000D02*
X73660000Y-45720000D01*
X58420000Y-45720000D02*
X60960000Y-45720000D01*
X76200000Y-45720000D02*
X78740000Y-45720000D01*
X96520000Y-45720000D02*
X99060000Y-45720000D01*
X60960000Y-43180000D02*
X63500000Y-43180000D01*
X50800000Y-43180000D02*
X53340000Y-43180000D01*
X106680000Y-45720000D02*
X109220000Y-45720000D01*
X68580000Y-45720000D02*
X71120000Y-45720000D01*
X58420000Y-43180000D02*
X60960000Y-43180000D01*
X111760000Y-45720000D02*
X114300000Y-45720000D01*
X127000000Y-45720000D02*
X132080000Y-45720000D01*
X114300000Y-45720000D02*
X116840000Y-45720000D01*
X73660000Y-45720000D02*
X76200000Y-45720000D01*
X53340000Y-45720000D02*
X55880000Y-45720000D01*
X134620000Y-43180000D02*
X137160000Y-43180000D01*
X139700000Y-45720000D02*
X137160000Y-45720000D01*
X139700000Y-43180000D02*
X137160000Y-43180000D01*
X81280000Y-45720000D02*
X83820000Y-45720000D01*
X132080000Y-45720000D02*
X134620000Y-45720000D01*
X124460000Y-43180000D02*
X129540000Y-43180000D01*
X83820000Y-43180000D02*
X86360000Y-43180000D01*
X142240000Y-43180000D02*
X139700000Y-43180000D01*
X93980000Y-45720000D02*
X96520000Y-45720000D01*
X142240000Y-45720000D02*
X139700000Y-45720000D01*
X50800000Y-91440000D02*
X46990000Y-87630000D01*
X46990000Y-46990000D02*
X50800000Y-43180000D01*
X46990000Y-87630000D02*
X46990000Y-46990000D01*
X210820000Y-91440000D02*
X214630000Y-87630000D01*
X214630000Y-87630000D02*
X214630000Y-46990000D01*
X214630000Y-46990000D02*
X210820000Y-43180000D01*
%TD*%
M02*
