%TF.GenerationSoftware,KiCad,Pcbnew,5.1.7*%
%TF.CreationDate,2020-11-18T18:26:48+01:00*%
%TF.ProjectId,8bitCpu,38626974-4370-4752-9e6b-696361645f70,rev?*%
%TF.SameCoordinates,Original*%
%TF.FileFunction,Other,User*%
%FSLAX46Y46*%
G04 Gerber Fmt 4.6, Leading zero omitted, Abs format (unit mm)*
G04 Created by KiCad (PCBNEW 5.1.7) date 2020-11-18 18:26:48*
%MOMM*%
%LPD*%
G01*
G04 APERTURE LIST*
%ADD10C,0.050000*%
G04 APERTURE END LIST*
D10*
%TO.C,REF\u002A\u002A*%
X215540000Y-38100000D02*
G75*
G03*
X215540000Y-38100000I-3450000J0D01*
G01*
X215540000Y-96520000D02*
G75*
G03*
X215540000Y-96520000I-3450000J0D01*
G01*
X52980000Y-96520000D02*
G75*
G03*
X52980000Y-96520000I-3450000J0D01*
G01*
X52980000Y-38100000D02*
G75*
G03*
X52980000Y-38100000I-3450000J0D01*
G01*
X49950000Y-90150000D02*
X49950000Y-87650000D01*
X211670000Y-90150000D02*
X49950000Y-90150000D01*
X211670000Y-87650000D02*
X211670000Y-90150000D01*
X49950000Y-87650000D02*
X211670000Y-87650000D01*
X49950000Y-92690000D02*
X49950000Y-90190000D01*
X211670000Y-92690000D02*
X49950000Y-92690000D01*
X211670000Y-90190000D02*
X211670000Y-92690000D01*
X49950000Y-90190000D02*
X211670000Y-90190000D01*
X49950000Y-46970000D02*
X49950000Y-44470000D01*
X211670000Y-46970000D02*
X49950000Y-46970000D01*
X211670000Y-44470000D02*
X211670000Y-46970000D01*
X49950000Y-44470000D02*
X211670000Y-44470000D01*
X49550000Y-70270000D02*
X52050000Y-70270000D01*
X49550000Y-82130000D02*
X49550000Y-70270000D01*
X52050000Y-82130000D02*
X49550000Y-82130000D01*
X52050000Y-70270000D02*
X52050000Y-82130000D01*
X52090000Y-70270000D02*
X54590000Y-70270000D01*
X52090000Y-82130000D02*
X52090000Y-70270000D01*
X54590000Y-82130000D02*
X52090000Y-82130000D01*
X54590000Y-70270000D02*
X54590000Y-82130000D01*
X54630000Y-70270000D02*
X57130000Y-70270000D01*
X54630000Y-82130000D02*
X54630000Y-70270000D01*
X57130000Y-82130000D02*
X54630000Y-82130000D01*
X57130000Y-70270000D02*
X57130000Y-82130000D01*
X57170000Y-70270000D02*
X59670000Y-70270000D01*
X57170000Y-82130000D02*
X57170000Y-70270000D01*
X59670000Y-82130000D02*
X57170000Y-82130000D01*
X59670000Y-70270000D02*
X59670000Y-82130000D01*
X59710000Y-70270000D02*
X62210000Y-70270000D01*
X59710000Y-82130000D02*
X59710000Y-70270000D01*
X62210000Y-82130000D02*
X59710000Y-82130000D01*
X62210000Y-70270000D02*
X62210000Y-82130000D01*
X62250000Y-70270000D02*
X64750000Y-70270000D01*
X62250000Y-82130000D02*
X62250000Y-70270000D01*
X64750000Y-82130000D02*
X62250000Y-82130000D01*
X64750000Y-70270000D02*
X64750000Y-82130000D01*
X64790000Y-70270000D02*
X67290000Y-70270000D01*
X64790000Y-82130000D02*
X64790000Y-70270000D01*
X67290000Y-82130000D02*
X64790000Y-82130000D01*
X67290000Y-70270000D02*
X67290000Y-82130000D01*
X67330000Y-70270000D02*
X69830000Y-70270000D01*
X67330000Y-82130000D02*
X67330000Y-70270000D01*
X69830000Y-82130000D02*
X67330000Y-82130000D01*
X69830000Y-70270000D02*
X69830000Y-82130000D01*
X82570000Y-70270000D02*
X85070000Y-70270000D01*
X82570000Y-82130000D02*
X82570000Y-70270000D01*
X85070000Y-82130000D02*
X82570000Y-82130000D01*
X85070000Y-70270000D02*
X85070000Y-82130000D01*
X80030000Y-70270000D02*
X82530000Y-70270000D01*
X80030000Y-82130000D02*
X80030000Y-70270000D01*
X82530000Y-82130000D02*
X80030000Y-82130000D01*
X82530000Y-70270000D02*
X82530000Y-82130000D01*
X85110000Y-70270000D02*
X87610000Y-70270000D01*
X85110000Y-82130000D02*
X85110000Y-70270000D01*
X87610000Y-82130000D02*
X85110000Y-82130000D01*
X87610000Y-70270000D02*
X87610000Y-82130000D01*
X74950000Y-70270000D02*
X77450000Y-70270000D01*
X74950000Y-82130000D02*
X74950000Y-70270000D01*
X77450000Y-82130000D02*
X74950000Y-82130000D01*
X77450000Y-70270000D02*
X77450000Y-82130000D01*
X69870000Y-70270000D02*
X72370000Y-70270000D01*
X69870000Y-82130000D02*
X69870000Y-70270000D01*
X72370000Y-82130000D02*
X69870000Y-82130000D01*
X72370000Y-70270000D02*
X72370000Y-82130000D01*
X77490000Y-70270000D02*
X79990000Y-70270000D01*
X77490000Y-82130000D02*
X77490000Y-70270000D01*
X79990000Y-82130000D02*
X77490000Y-82130000D01*
X79990000Y-70270000D02*
X79990000Y-82130000D01*
X87650000Y-70270000D02*
X90150000Y-70270000D01*
X87650000Y-82130000D02*
X87650000Y-70270000D01*
X90150000Y-82130000D02*
X87650000Y-82130000D01*
X90150000Y-70270000D02*
X90150000Y-82130000D01*
X72410000Y-70270000D02*
X74910000Y-70270000D01*
X72410000Y-82130000D02*
X72410000Y-70270000D01*
X74910000Y-82130000D02*
X72410000Y-82130000D01*
X74910000Y-70270000D02*
X74910000Y-82130000D01*
X102890000Y-70270000D02*
X105390000Y-70270000D01*
X102890000Y-82130000D02*
X102890000Y-70270000D01*
X105390000Y-82130000D02*
X102890000Y-82130000D01*
X105390000Y-70270000D02*
X105390000Y-82130000D01*
X123210000Y-70270000D02*
X125710000Y-70270000D01*
X123210000Y-82130000D02*
X123210000Y-70270000D01*
X125710000Y-82130000D02*
X123210000Y-82130000D01*
X125710000Y-70270000D02*
X125710000Y-82130000D01*
X100350000Y-70270000D02*
X102850000Y-70270000D01*
X100350000Y-82130000D02*
X100350000Y-70270000D01*
X102850000Y-82130000D02*
X100350000Y-82130000D01*
X102850000Y-70270000D02*
X102850000Y-82130000D01*
X118130000Y-70270000D02*
X120630000Y-70270000D01*
X118130000Y-82130000D02*
X118130000Y-70270000D01*
X120630000Y-82130000D02*
X118130000Y-82130000D01*
X120630000Y-70270000D02*
X120630000Y-82130000D01*
X105430000Y-70270000D02*
X107930000Y-70270000D01*
X105430000Y-82130000D02*
X105430000Y-70270000D01*
X107930000Y-82130000D02*
X105430000Y-82130000D01*
X107930000Y-70270000D02*
X107930000Y-82130000D01*
X115590000Y-70270000D02*
X118090000Y-70270000D01*
X115590000Y-82130000D02*
X115590000Y-70270000D01*
X118090000Y-82130000D02*
X115590000Y-82130000D01*
X118090000Y-70270000D02*
X118090000Y-82130000D01*
X110510000Y-70270000D02*
X113010000Y-70270000D01*
X110510000Y-82130000D02*
X110510000Y-70270000D01*
X113010000Y-82130000D02*
X110510000Y-82130000D01*
X113010000Y-70270000D02*
X113010000Y-82130000D01*
X120670000Y-70270000D02*
X123170000Y-70270000D01*
X120670000Y-82130000D02*
X120670000Y-70270000D01*
X123170000Y-82130000D02*
X120670000Y-82130000D01*
X123170000Y-70270000D02*
X123170000Y-82130000D01*
X95270000Y-70270000D02*
X97770000Y-70270000D01*
X95270000Y-82130000D02*
X95270000Y-70270000D01*
X97770000Y-82130000D02*
X95270000Y-82130000D01*
X97770000Y-70270000D02*
X97770000Y-82130000D01*
X125750000Y-70270000D02*
X128250000Y-70270000D01*
X125750000Y-82130000D02*
X125750000Y-70270000D01*
X128250000Y-82130000D02*
X125750000Y-82130000D01*
X128250000Y-70270000D02*
X128250000Y-82130000D01*
X128290000Y-70270000D02*
X130790000Y-70270000D01*
X128290000Y-82130000D02*
X128290000Y-70270000D01*
X130790000Y-82130000D02*
X128290000Y-82130000D01*
X130790000Y-70270000D02*
X130790000Y-82130000D01*
X90190000Y-70270000D02*
X92690000Y-70270000D01*
X90190000Y-82130000D02*
X90190000Y-70270000D01*
X92690000Y-82130000D02*
X90190000Y-82130000D01*
X92690000Y-70270000D02*
X92690000Y-82130000D01*
X97810000Y-70270000D02*
X100310000Y-70270000D01*
X97810000Y-82130000D02*
X97810000Y-70270000D01*
X100310000Y-82130000D02*
X97810000Y-82130000D01*
X100310000Y-70270000D02*
X100310000Y-82130000D01*
X113050000Y-70270000D02*
X115550000Y-70270000D01*
X113050000Y-82130000D02*
X113050000Y-70270000D01*
X115550000Y-82130000D02*
X113050000Y-82130000D01*
X115550000Y-70270000D02*
X115550000Y-82130000D01*
X107970000Y-70270000D02*
X110470000Y-70270000D01*
X107970000Y-82130000D02*
X107970000Y-70270000D01*
X110470000Y-82130000D02*
X107970000Y-82130000D01*
X110470000Y-70270000D02*
X110470000Y-82130000D01*
X92730000Y-70270000D02*
X95230000Y-70270000D01*
X92730000Y-82130000D02*
X92730000Y-70270000D01*
X95230000Y-82130000D02*
X92730000Y-82130000D01*
X95230000Y-70270000D02*
X95230000Y-82130000D01*
X143530000Y-70270000D02*
X146030000Y-70270000D01*
X143530000Y-82130000D02*
X143530000Y-70270000D01*
X146030000Y-82130000D02*
X143530000Y-82130000D01*
X146030000Y-70270000D02*
X146030000Y-82130000D01*
X163850000Y-70270000D02*
X166350000Y-70270000D01*
X163850000Y-82130000D02*
X163850000Y-70270000D01*
X166350000Y-82130000D02*
X163850000Y-82130000D01*
X166350000Y-70270000D02*
X166350000Y-82130000D01*
X140990000Y-70270000D02*
X143490000Y-70270000D01*
X140990000Y-82130000D02*
X140990000Y-70270000D01*
X143490000Y-82130000D02*
X140990000Y-82130000D01*
X143490000Y-70270000D02*
X143490000Y-82130000D01*
X158770000Y-70270000D02*
X161270000Y-70270000D01*
X158770000Y-82130000D02*
X158770000Y-70270000D01*
X161270000Y-82130000D02*
X158770000Y-82130000D01*
X161270000Y-70270000D02*
X161270000Y-82130000D01*
X146070000Y-70270000D02*
X148570000Y-70270000D01*
X146070000Y-82130000D02*
X146070000Y-70270000D01*
X148570000Y-82130000D02*
X146070000Y-82130000D01*
X148570000Y-70270000D02*
X148570000Y-82130000D01*
X156230000Y-70270000D02*
X158730000Y-70270000D01*
X156230000Y-82130000D02*
X156230000Y-70270000D01*
X158730000Y-82130000D02*
X156230000Y-82130000D01*
X158730000Y-70270000D02*
X158730000Y-82130000D01*
X151150000Y-70270000D02*
X153650000Y-70270000D01*
X151150000Y-82130000D02*
X151150000Y-70270000D01*
X153650000Y-82130000D02*
X151150000Y-82130000D01*
X153650000Y-70270000D02*
X153650000Y-82130000D01*
X161310000Y-70270000D02*
X163810000Y-70270000D01*
X161310000Y-82130000D02*
X161310000Y-70270000D01*
X163810000Y-82130000D02*
X161310000Y-82130000D01*
X163810000Y-70270000D02*
X163810000Y-82130000D01*
X135910000Y-70270000D02*
X138410000Y-70270000D01*
X135910000Y-82130000D02*
X135910000Y-70270000D01*
X138410000Y-82130000D02*
X135910000Y-82130000D01*
X138410000Y-70270000D02*
X138410000Y-82130000D01*
X166390000Y-70270000D02*
X168890000Y-70270000D01*
X166390000Y-82130000D02*
X166390000Y-70270000D01*
X168890000Y-82130000D02*
X166390000Y-82130000D01*
X168890000Y-70270000D02*
X168890000Y-82130000D01*
X168930000Y-70270000D02*
X171430000Y-70270000D01*
X168930000Y-82130000D02*
X168930000Y-70270000D01*
X171430000Y-82130000D02*
X168930000Y-82130000D01*
X171430000Y-70270000D02*
X171430000Y-82130000D01*
X130830000Y-70270000D02*
X133330000Y-70270000D01*
X130830000Y-82130000D02*
X130830000Y-70270000D01*
X133330000Y-82130000D02*
X130830000Y-82130000D01*
X133330000Y-70270000D02*
X133330000Y-82130000D01*
X138450000Y-70270000D02*
X140950000Y-70270000D01*
X138450000Y-82130000D02*
X138450000Y-70270000D01*
X140950000Y-82130000D02*
X138450000Y-82130000D01*
X140950000Y-70270000D02*
X140950000Y-82130000D01*
X153690000Y-70270000D02*
X156190000Y-70270000D01*
X153690000Y-82130000D02*
X153690000Y-70270000D01*
X156190000Y-82130000D02*
X153690000Y-82130000D01*
X156190000Y-70270000D02*
X156190000Y-82130000D01*
X148610000Y-70270000D02*
X151110000Y-70270000D01*
X148610000Y-82130000D02*
X148610000Y-70270000D01*
X151110000Y-82130000D02*
X148610000Y-82130000D01*
X151110000Y-70270000D02*
X151110000Y-82130000D01*
X133370000Y-70270000D02*
X135870000Y-70270000D01*
X133370000Y-82130000D02*
X133370000Y-70270000D01*
X135870000Y-82130000D02*
X133370000Y-82130000D01*
X135870000Y-70270000D02*
X135870000Y-82130000D01*
X184170000Y-70270000D02*
X186670000Y-70270000D01*
X184170000Y-82130000D02*
X184170000Y-70270000D01*
X186670000Y-82130000D02*
X184170000Y-82130000D01*
X186670000Y-70270000D02*
X186670000Y-82130000D01*
X204490000Y-70270000D02*
X206990000Y-70270000D01*
X204490000Y-82130000D02*
X204490000Y-70270000D01*
X206990000Y-82130000D02*
X204490000Y-82130000D01*
X206990000Y-70270000D02*
X206990000Y-82130000D01*
X181630000Y-70270000D02*
X184130000Y-70270000D01*
X181630000Y-82130000D02*
X181630000Y-70270000D01*
X184130000Y-82130000D02*
X181630000Y-82130000D01*
X184130000Y-70270000D02*
X184130000Y-82130000D01*
X199410000Y-70270000D02*
X201910000Y-70270000D01*
X199410000Y-82130000D02*
X199410000Y-70270000D01*
X201910000Y-82130000D02*
X199410000Y-82130000D01*
X201910000Y-70270000D02*
X201910000Y-82130000D01*
X186710000Y-70270000D02*
X189210000Y-70270000D01*
X186710000Y-82130000D02*
X186710000Y-70270000D01*
X189210000Y-82130000D02*
X186710000Y-82130000D01*
X189210000Y-70270000D02*
X189210000Y-82130000D01*
X196870000Y-70270000D02*
X199370000Y-70270000D01*
X196870000Y-82130000D02*
X196870000Y-70270000D01*
X199370000Y-82130000D02*
X196870000Y-82130000D01*
X199370000Y-70270000D02*
X199370000Y-82130000D01*
X191790000Y-70270000D02*
X194290000Y-70270000D01*
X191790000Y-82130000D02*
X191790000Y-70270000D01*
X194290000Y-82130000D02*
X191790000Y-82130000D01*
X194290000Y-70270000D02*
X194290000Y-82130000D01*
X201950000Y-70270000D02*
X204450000Y-70270000D01*
X201950000Y-82130000D02*
X201950000Y-70270000D01*
X204450000Y-82130000D02*
X201950000Y-82130000D01*
X204450000Y-70270000D02*
X204450000Y-82130000D01*
X176550000Y-70270000D02*
X179050000Y-70270000D01*
X176550000Y-82130000D02*
X176550000Y-70270000D01*
X179050000Y-82130000D02*
X176550000Y-82130000D01*
X179050000Y-70270000D02*
X179050000Y-82130000D01*
X207030000Y-70270000D02*
X209530000Y-70270000D01*
X207030000Y-82130000D02*
X207030000Y-70270000D01*
X209530000Y-82130000D02*
X207030000Y-82130000D01*
X209530000Y-70270000D02*
X209530000Y-82130000D01*
X209570000Y-70270000D02*
X212070000Y-70270000D01*
X209570000Y-82130000D02*
X209570000Y-70270000D01*
X212070000Y-82130000D02*
X209570000Y-82130000D01*
X212070000Y-70270000D02*
X212070000Y-82130000D01*
X171470000Y-70270000D02*
X173970000Y-70270000D01*
X171470000Y-82130000D02*
X171470000Y-70270000D01*
X173970000Y-82130000D02*
X171470000Y-82130000D01*
X173970000Y-70270000D02*
X173970000Y-82130000D01*
X179090000Y-70270000D02*
X181590000Y-70270000D01*
X179090000Y-82130000D02*
X179090000Y-70270000D01*
X181590000Y-82130000D02*
X179090000Y-82130000D01*
X181590000Y-70270000D02*
X181590000Y-82130000D01*
X194330000Y-70270000D02*
X196830000Y-70270000D01*
X194330000Y-82130000D02*
X194330000Y-70270000D01*
X196830000Y-82130000D02*
X194330000Y-82130000D01*
X196830000Y-70270000D02*
X196830000Y-82130000D01*
X189250000Y-70270000D02*
X191750000Y-70270000D01*
X189250000Y-82130000D02*
X189250000Y-70270000D01*
X191750000Y-82130000D02*
X189250000Y-82130000D01*
X191750000Y-70270000D02*
X191750000Y-82130000D01*
X174010000Y-70270000D02*
X176510000Y-70270000D01*
X174010000Y-82130000D02*
X174010000Y-70270000D01*
X176510000Y-82130000D02*
X174010000Y-82130000D01*
X176510000Y-70270000D02*
X176510000Y-82130000D01*
X107930000Y-64350000D02*
X105430000Y-64350000D01*
X107930000Y-52490000D02*
X107930000Y-64350000D01*
X105430000Y-52490000D02*
X107930000Y-52490000D01*
X105430000Y-64350000D02*
X105430000Y-52490000D01*
X199370000Y-64350000D02*
X196870000Y-64350000D01*
X199370000Y-52490000D02*
X199370000Y-64350000D01*
X196870000Y-52490000D02*
X199370000Y-52490000D01*
X196870000Y-64350000D02*
X196870000Y-52490000D01*
X179050000Y-64350000D02*
X176550000Y-64350000D01*
X179050000Y-52490000D02*
X179050000Y-64350000D01*
X176550000Y-52490000D02*
X179050000Y-52490000D01*
X176550000Y-64350000D02*
X176550000Y-52490000D01*
X123170000Y-64350000D02*
X120670000Y-64350000D01*
X123170000Y-52490000D02*
X123170000Y-64350000D01*
X120670000Y-52490000D02*
X123170000Y-52490000D01*
X120670000Y-64350000D02*
X120670000Y-52490000D01*
X166350000Y-64350000D02*
X163850000Y-64350000D01*
X166350000Y-52490000D02*
X166350000Y-64350000D01*
X163850000Y-52490000D02*
X166350000Y-52490000D01*
X163850000Y-64350000D02*
X163850000Y-52490000D01*
X125710000Y-64350000D02*
X123210000Y-64350000D01*
X125710000Y-52490000D02*
X125710000Y-64350000D01*
X123210000Y-52490000D02*
X125710000Y-52490000D01*
X123210000Y-64350000D02*
X123210000Y-52490000D01*
X102850000Y-64350000D02*
X100350000Y-64350000D01*
X102850000Y-52490000D02*
X102850000Y-64350000D01*
X100350000Y-52490000D02*
X102850000Y-52490000D01*
X100350000Y-64350000D02*
X100350000Y-52490000D01*
X115550000Y-64350000D02*
X113050000Y-64350000D01*
X115550000Y-52490000D02*
X115550000Y-64350000D01*
X113050000Y-52490000D02*
X115550000Y-52490000D01*
X113050000Y-64350000D02*
X113050000Y-52490000D01*
X67290000Y-64350000D02*
X64790000Y-64350000D01*
X67290000Y-52490000D02*
X67290000Y-64350000D01*
X64790000Y-52490000D02*
X67290000Y-52490000D01*
X64790000Y-64350000D02*
X64790000Y-52490000D01*
X118090000Y-64350000D02*
X115590000Y-64350000D01*
X118090000Y-52490000D02*
X118090000Y-64350000D01*
X115590000Y-52490000D02*
X118090000Y-52490000D01*
X115590000Y-64350000D02*
X115590000Y-52490000D01*
X85070000Y-64350000D02*
X82570000Y-64350000D01*
X85070000Y-52490000D02*
X85070000Y-64350000D01*
X82570000Y-52490000D02*
X85070000Y-52490000D01*
X82570000Y-64350000D02*
X82570000Y-52490000D01*
X128250000Y-64350000D02*
X125750000Y-64350000D01*
X128250000Y-52490000D02*
X128250000Y-64350000D01*
X125750000Y-52490000D02*
X128250000Y-52490000D01*
X125750000Y-64350000D02*
X125750000Y-52490000D01*
X64750000Y-64350000D02*
X62250000Y-64350000D01*
X64750000Y-52490000D02*
X64750000Y-64350000D01*
X62250000Y-52490000D02*
X64750000Y-52490000D01*
X62250000Y-64350000D02*
X62250000Y-52490000D01*
X92690000Y-64350000D02*
X90190000Y-64350000D01*
X92690000Y-52490000D02*
X92690000Y-64350000D01*
X90190000Y-52490000D02*
X92690000Y-52490000D01*
X90190000Y-64350000D02*
X90190000Y-52490000D01*
X77450000Y-64350000D02*
X74950000Y-64350000D01*
X77450000Y-52490000D02*
X77450000Y-64350000D01*
X74950000Y-52490000D02*
X77450000Y-52490000D01*
X74950000Y-64350000D02*
X74950000Y-52490000D01*
X69830000Y-64350000D02*
X67330000Y-64350000D01*
X69830000Y-52490000D02*
X69830000Y-64350000D01*
X67330000Y-52490000D02*
X69830000Y-52490000D01*
X67330000Y-64350000D02*
X67330000Y-52490000D01*
X59670000Y-64350000D02*
X57170000Y-64350000D01*
X59670000Y-52490000D02*
X59670000Y-64350000D01*
X57170000Y-52490000D02*
X59670000Y-52490000D01*
X57170000Y-64350000D02*
X57170000Y-52490000D01*
X201910000Y-64350000D02*
X199410000Y-64350000D01*
X201910000Y-52490000D02*
X201910000Y-64350000D01*
X199410000Y-52490000D02*
X201910000Y-52490000D01*
X199410000Y-64350000D02*
X199410000Y-52490000D01*
X82530000Y-64350000D02*
X80030000Y-64350000D01*
X82530000Y-52490000D02*
X82530000Y-64350000D01*
X80030000Y-52490000D02*
X82530000Y-52490000D01*
X80030000Y-64350000D02*
X80030000Y-52490000D01*
X110470000Y-64350000D02*
X107970000Y-64350000D01*
X110470000Y-52490000D02*
X110470000Y-64350000D01*
X107970000Y-52490000D02*
X110470000Y-52490000D01*
X107970000Y-64350000D02*
X107970000Y-52490000D01*
X74910000Y-64350000D02*
X72410000Y-64350000D01*
X74910000Y-52490000D02*
X74910000Y-64350000D01*
X72410000Y-52490000D02*
X74910000Y-52490000D01*
X72410000Y-64350000D02*
X72410000Y-52490000D01*
X87610000Y-64350000D02*
X85110000Y-64350000D01*
X87610000Y-52490000D02*
X87610000Y-64350000D01*
X85110000Y-52490000D02*
X87610000Y-52490000D01*
X85110000Y-64350000D02*
X85110000Y-52490000D01*
X57130000Y-64350000D02*
X54630000Y-64350000D01*
X57130000Y-52490000D02*
X57130000Y-64350000D01*
X54630000Y-52490000D02*
X57130000Y-52490000D01*
X54630000Y-64350000D02*
X54630000Y-52490000D01*
X184130000Y-64350000D02*
X181630000Y-64350000D01*
X184130000Y-52490000D02*
X184130000Y-64350000D01*
X181630000Y-52490000D02*
X184130000Y-52490000D01*
X181630000Y-64350000D02*
X181630000Y-52490000D01*
X54590000Y-64350000D02*
X52090000Y-64350000D01*
X54590000Y-52490000D02*
X54590000Y-64350000D01*
X52090000Y-52490000D02*
X54590000Y-52490000D01*
X52090000Y-64350000D02*
X52090000Y-52490000D01*
X105390000Y-64350000D02*
X102890000Y-64350000D01*
X105390000Y-52490000D02*
X105390000Y-64350000D01*
X102890000Y-52490000D02*
X105390000Y-52490000D01*
X102890000Y-64350000D02*
X102890000Y-52490000D01*
X196830000Y-64350000D02*
X194330000Y-64350000D01*
X196830000Y-52490000D02*
X196830000Y-64350000D01*
X194330000Y-52490000D02*
X196830000Y-52490000D01*
X194330000Y-64350000D02*
X194330000Y-52490000D01*
X120630000Y-64350000D02*
X118130000Y-64350000D01*
X120630000Y-52490000D02*
X120630000Y-64350000D01*
X118130000Y-52490000D02*
X120630000Y-52490000D01*
X118130000Y-64350000D02*
X118130000Y-52490000D01*
X186670000Y-64350000D02*
X184170000Y-64350000D01*
X186670000Y-52490000D02*
X186670000Y-64350000D01*
X184170000Y-52490000D02*
X186670000Y-52490000D01*
X184170000Y-64350000D02*
X184170000Y-52490000D01*
X95230000Y-64350000D02*
X92730000Y-64350000D01*
X95230000Y-52490000D02*
X95230000Y-64350000D01*
X92730000Y-52490000D02*
X95230000Y-52490000D01*
X92730000Y-64350000D02*
X92730000Y-52490000D01*
X191750000Y-64350000D02*
X189250000Y-64350000D01*
X191750000Y-52490000D02*
X191750000Y-64350000D01*
X189250000Y-52490000D02*
X191750000Y-52490000D01*
X189250000Y-64350000D02*
X189250000Y-52490000D01*
X181590000Y-64350000D02*
X179090000Y-64350000D01*
X181590000Y-52490000D02*
X181590000Y-64350000D01*
X179090000Y-52490000D02*
X181590000Y-52490000D01*
X179090000Y-64350000D02*
X179090000Y-52490000D01*
X206990000Y-64350000D02*
X204490000Y-64350000D01*
X206990000Y-52490000D02*
X206990000Y-64350000D01*
X204490000Y-52490000D02*
X206990000Y-52490000D01*
X204490000Y-64350000D02*
X204490000Y-52490000D01*
X90150000Y-64350000D02*
X87650000Y-64350000D01*
X90150000Y-52490000D02*
X90150000Y-64350000D01*
X87650000Y-52490000D02*
X90150000Y-52490000D01*
X87650000Y-64350000D02*
X87650000Y-52490000D01*
X130790000Y-64350000D02*
X128290000Y-64350000D01*
X130790000Y-52490000D02*
X130790000Y-64350000D01*
X128290000Y-52490000D02*
X130790000Y-52490000D01*
X128290000Y-64350000D02*
X128290000Y-52490000D01*
X62210000Y-64350000D02*
X59710000Y-64350000D01*
X62210000Y-52490000D02*
X62210000Y-64350000D01*
X59710000Y-52490000D02*
X62210000Y-52490000D01*
X59710000Y-64350000D02*
X59710000Y-52490000D01*
X143490000Y-64350000D02*
X140990000Y-64350000D01*
X143490000Y-52490000D02*
X143490000Y-64350000D01*
X140990000Y-52490000D02*
X143490000Y-52490000D01*
X140990000Y-64350000D02*
X140990000Y-52490000D01*
X161270000Y-64350000D02*
X158770000Y-64350000D01*
X161270000Y-52490000D02*
X161270000Y-64350000D01*
X158770000Y-52490000D02*
X161270000Y-52490000D01*
X158770000Y-64350000D02*
X158770000Y-52490000D01*
X52050000Y-64350000D02*
X49550000Y-64350000D01*
X52050000Y-52490000D02*
X52050000Y-64350000D01*
X49550000Y-52490000D02*
X52050000Y-52490000D01*
X49550000Y-64350000D02*
X49550000Y-52490000D01*
X153650000Y-64350000D02*
X151150000Y-64350000D01*
X153650000Y-52490000D02*
X153650000Y-64350000D01*
X151150000Y-52490000D02*
X153650000Y-52490000D01*
X151150000Y-64350000D02*
X151150000Y-52490000D01*
X72370000Y-64350000D02*
X69870000Y-64350000D01*
X72370000Y-52490000D02*
X72370000Y-64350000D01*
X69870000Y-52490000D02*
X72370000Y-52490000D01*
X69870000Y-64350000D02*
X69870000Y-52490000D01*
X113010000Y-64350000D02*
X110510000Y-64350000D01*
X113010000Y-52490000D02*
X113010000Y-64350000D01*
X110510000Y-52490000D02*
X113010000Y-52490000D01*
X110510000Y-64350000D02*
X110510000Y-52490000D01*
X133330000Y-64350000D02*
X130830000Y-64350000D01*
X133330000Y-52490000D02*
X133330000Y-64350000D01*
X130830000Y-52490000D02*
X133330000Y-52490000D01*
X130830000Y-64350000D02*
X130830000Y-52490000D01*
X176510000Y-64350000D02*
X174010000Y-64350000D01*
X176510000Y-52490000D02*
X176510000Y-64350000D01*
X174010000Y-52490000D02*
X176510000Y-52490000D01*
X174010000Y-64350000D02*
X174010000Y-52490000D01*
X173970000Y-64350000D02*
X171470000Y-64350000D01*
X173970000Y-52490000D02*
X173970000Y-64350000D01*
X171470000Y-52490000D02*
X173970000Y-52490000D01*
X171470000Y-64350000D02*
X171470000Y-52490000D01*
X171430000Y-64350000D02*
X168930000Y-64350000D01*
X171430000Y-52490000D02*
X171430000Y-64350000D01*
X168930000Y-52490000D02*
X171430000Y-52490000D01*
X168930000Y-64350000D02*
X168930000Y-52490000D01*
X79990000Y-64350000D02*
X77490000Y-64350000D01*
X79990000Y-52490000D02*
X79990000Y-64350000D01*
X77490000Y-52490000D02*
X79990000Y-52490000D01*
X77490000Y-64350000D02*
X77490000Y-52490000D01*
X212070000Y-64350000D02*
X209570000Y-64350000D01*
X212070000Y-52490000D02*
X212070000Y-64350000D01*
X209570000Y-52490000D02*
X212070000Y-52490000D01*
X209570000Y-64350000D02*
X209570000Y-52490000D01*
X138410000Y-64350000D02*
X135910000Y-64350000D01*
X138410000Y-52490000D02*
X138410000Y-64350000D01*
X135910000Y-52490000D02*
X138410000Y-52490000D01*
X135910000Y-64350000D02*
X135910000Y-52490000D01*
X135870000Y-64350000D02*
X133370000Y-64350000D01*
X135870000Y-52490000D02*
X135870000Y-64350000D01*
X133370000Y-52490000D02*
X135870000Y-52490000D01*
X133370000Y-64350000D02*
X133370000Y-52490000D01*
X151110000Y-64350000D02*
X148610000Y-64350000D01*
X151110000Y-52490000D02*
X151110000Y-64350000D01*
X148610000Y-52490000D02*
X151110000Y-52490000D01*
X148610000Y-64350000D02*
X148610000Y-52490000D01*
X163810000Y-64350000D02*
X161310000Y-64350000D01*
X163810000Y-52490000D02*
X163810000Y-64350000D01*
X161310000Y-52490000D02*
X163810000Y-52490000D01*
X161310000Y-64350000D02*
X161310000Y-52490000D01*
X148570000Y-64350000D02*
X146070000Y-64350000D01*
X148570000Y-52490000D02*
X148570000Y-64350000D01*
X146070000Y-52490000D02*
X148570000Y-52490000D01*
X146070000Y-64350000D02*
X146070000Y-52490000D01*
X140950000Y-64350000D02*
X138450000Y-64350000D01*
X140950000Y-52490000D02*
X140950000Y-64350000D01*
X138450000Y-52490000D02*
X140950000Y-52490000D01*
X138450000Y-64350000D02*
X138450000Y-52490000D01*
X204450000Y-64350000D02*
X201950000Y-64350000D01*
X204450000Y-52490000D02*
X204450000Y-64350000D01*
X201950000Y-52490000D02*
X204450000Y-52490000D01*
X201950000Y-64350000D02*
X201950000Y-52490000D01*
X189210000Y-64350000D02*
X186710000Y-64350000D01*
X189210000Y-52490000D02*
X189210000Y-64350000D01*
X186710000Y-52490000D02*
X189210000Y-52490000D01*
X186710000Y-64350000D02*
X186710000Y-52490000D01*
X194290000Y-64350000D02*
X191790000Y-64350000D01*
X194290000Y-52490000D02*
X194290000Y-64350000D01*
X191790000Y-52490000D02*
X194290000Y-52490000D01*
X191790000Y-64350000D02*
X191790000Y-52490000D01*
X146030000Y-64350000D02*
X143530000Y-64350000D01*
X146030000Y-52490000D02*
X146030000Y-64350000D01*
X143530000Y-52490000D02*
X146030000Y-52490000D01*
X143530000Y-64350000D02*
X143530000Y-52490000D01*
X156190000Y-64350000D02*
X153690000Y-64350000D01*
X156190000Y-52490000D02*
X156190000Y-64350000D01*
X153690000Y-52490000D02*
X156190000Y-52490000D01*
X153690000Y-64350000D02*
X153690000Y-52490000D01*
X168890000Y-64350000D02*
X166390000Y-64350000D01*
X168890000Y-52490000D02*
X168890000Y-64350000D01*
X166390000Y-52490000D02*
X168890000Y-52490000D01*
X166390000Y-64350000D02*
X166390000Y-52490000D01*
X97770000Y-64350000D02*
X95270000Y-64350000D01*
X97770000Y-52490000D02*
X97770000Y-64350000D01*
X95270000Y-52490000D02*
X97770000Y-52490000D01*
X95270000Y-64350000D02*
X95270000Y-52490000D01*
X100310000Y-64350000D02*
X97810000Y-64350000D01*
X100310000Y-52490000D02*
X100310000Y-64350000D01*
X97810000Y-52490000D02*
X100310000Y-52490000D01*
X97810000Y-64350000D02*
X97810000Y-52490000D01*
X158730000Y-64350000D02*
X156230000Y-64350000D01*
X158730000Y-52490000D02*
X158730000Y-64350000D01*
X156230000Y-52490000D02*
X158730000Y-52490000D01*
X156230000Y-64350000D02*
X156230000Y-52490000D01*
X209530000Y-64350000D02*
X207030000Y-64350000D01*
X209530000Y-52490000D02*
X209530000Y-64350000D01*
X207030000Y-52490000D02*
X209530000Y-52490000D01*
X207030000Y-64350000D02*
X207030000Y-52490000D01*
X49950000Y-44430000D02*
X49950000Y-41930000D01*
X211670000Y-44430000D02*
X49950000Y-44430000D01*
X211670000Y-41930000D02*
X211670000Y-44430000D01*
X49950000Y-41930000D02*
X211670000Y-41930000D01*
%TD*%
M02*
