<?xml version="1.0" encoding="UTF-8" standalone="no"?>
<!-- Created with Inkscape (http://www.inkscape.org/) -->

<svg
   xmlns:dc="http://purl.org/dc/elements/1.1/"
   xmlns:cc="http://creativecommons.org/ns#"
   xmlns:rdf="http://www.w3.org/1999/02/22-rdf-syntax-ns#"
   xmlns:svg="http://www.w3.org/2000/svg"
   xmlns="http://www.w3.org/2000/svg"
   xmlns:sodipodi="http://sodipodi.sourceforge.net/DTD/sodipodi-0.dtd"
   xmlns:inkscape="http://www.inkscape.org/namespaces/inkscape"
   id="svg2"
   version="1.1"
   inkscape:version="0.48.4 r9939"
   width="630px"
   height="200"
   viewBox="0 0 630 200"
   xml:space="preserve"
   sodipodi:docname="tigris-logo.svg"><metadata
     id="metadata8"><rdf:RDF><cc:Work
         rdf:about=""><dc:format>image/svg+xml</dc:format><dc:type
           rdf:resource="http://purl.org/dc/dcmitype/StillImage" /><dc:title /></cc:Work></rdf:RDF></metadata><defs
     id="defs6"><clipPath
       clipPathUnits="userSpaceOnUse"
       id="clipPath90"><path
         d="m 2913.39,704.73 2141.15,0 0,903.965 -2141.15,0 0,-903.965 z"
         id="path92"
         inkscape:connector-curvature="0" /></clipPath></defs><sodipodi:namedview
     pagecolor="#ffffff"
     bordercolor="#666666"
     borderopacity="1"
     objecttolerance="10"
     gridtolerance="10"
     guidetolerance="10"
     inkscape:pageopacity="0"
     inkscape:pageshadow="2"
     inkscape:window-width="1215"
     inkscape:window-height="1000"
     id="namedview4"
     showgrid="false"
     inkscape:zoom="1.6111435"
     inkscape:cx="318.88191"
     inkscape:cy="122.82203"
     inkscape:window-x="65"
     inkscape:window-y="24"
     inkscape:window-maximized="1"
     inkscape:current-layer="g12"
     fit-margin-top="2"
     fit-margin-left="2"
     fit-margin-right="2"
     fit-margin-bottom="2"
     showguides="true"
     inkscape:guide-bbox="true"><sodipodi:guide
       orientation="0,1"
       position="227.47819,85.963789"
       id="guide3022" /><sodipodi:guide
       orientation="0,1"
       position="350.6826,195.51331"
       id="guide3024" /></sodipodi:namedview><g
     id="g10"
     inkscape:groupmode="layer"
     inkscape:label="ink_ext_XXXXXX"
     transform="matrix(1.25,0,0,-1.25,1.8875387,198.07535)"><g
       id="g12"
       transform="scale(0.1,0.1)"><path
         d="m 155.289,690.715 112.008,770.195 -153.32,0 11.168,72.28 367.242,0 -10.254,-72.28 -149.805,0 -114.758,-770.195 -62.281,0"
         style="fill:#000000;fill-opacity:1;fill-rule:nonzero;stroke:none"
         id="path14"
         inkscape:connector-curvature="0" /><path
         d="m 426.895,690.715 126.851,842.475 63.192,0 -126.848,-842.475 -63.195,0"
         style="fill:#000000;fill-opacity:1;fill-rule:nonzero;stroke:none"
         id="path16"
         inkscape:connector-curvature="0" /><path
         d="m 1232.07,1256.12 c -14.08,67.93 -40.25,120.47 -78.65,157.59 -38.41,37.33 -85.54,55.89 -141.39,55.89 -44.221,0 -85.233,-10.07 -123.178,-30.02 -37.797,-20.14 -71.153,-49.17 -100.075,-87.48 -27.234,-36.54 -48.047,-79.59 -62.582,-128.96 -14.539,-49.37 -21.73,-102.5 -21.73,-159.18 0,-93.804 21.574,-168.847 64.726,-225.526 43.305,-56.481 100.536,-84.723 171.989,-84.723 65.49,0 123.95,23.504 175.36,70.504 51.41,47.004 86.61,109.605 105.73,187.415 l -331.735,0 13.008,77.02 398.457,0 c -1.84,-37.33 -7.5,-74.45 -16.99,-111.384 -9.64,-36.731 -22.03,-69.512 -37.18,-97.953 -34.74,-65.961 -78.65,-116.915 -131.9,-152.856 -53.25,-35.742 -111.09,-53.715 -173.981,-53.715 -93.187,0 -167.097,34.758 -221.875,104.473 -54.629,69.512 -82.015,163.715 -82.015,282.015 0,69.91 8.566,134.48 25.55,194.12 16.985,59.65 41.469,110.6 73.45,153.06 35.652,46.8 75.589,82.15 119.964,106.24 44.375,24.1 92.27,36.14 143.687,36.14 80.94,0 146.74,-24.68 197.24,-74.05 50.49,-49.38 84.61,-122.25 102.21,-218.62 l -68.09,0"
         style="fill:#000000;fill-opacity:1;fill-rule:nonzero;stroke:none"
         id="path18"
         inkscape:connector-curvature="0" /><path
         d="m 1326.17,690.715 126.39,842.475 154.24,0 c 83.7,0 145.83,-20.54 186.68,-61.61 40.86,-41.08 61.21,-103.49 61.21,-187.22 0,-76.43 -19.58,-139.23 -58.91,-188.6 -39.33,-49.37 -93.95,-79.19 -163.88,-89.66 l 134.04,-315.385 -76.2,0 -153.33,383.125 20.97,0 c 72.68,0 129.45,18.96 170.16,57.07 40.85,37.92 61.2,90.65 61.2,158.19 0,27.25 -3.82,51.74 -11.47,73.46 -7.66,21.53 -18.67,39.7 -33.36,54.31 -15.46,15.41 -34.58,26.27 -57.08,32.39 -22.64,6.12 -62.12,9.28 -118.58,9.28 l -63.2,0 -114.76,-767.825 -64.12,0"
         style="fill:#000000;fill-opacity:1;fill-rule:nonzero;stroke:none"
         id="path20"
         inkscape:connector-curvature="0" /><path
         d="m 1869.38,690.715 126.85,842.475 63.2,0 -126.85,-842.475 -63.2,0"
         style="fill:#000000;fill-opacity:1;fill-rule:nonzero;stroke:none"
         id="path22"
         inkscape:connector-curvature="0" /><path
         d="m 2057.29,930.266 63.65,-0.594 c -0.31,-2.367 -0.46,-4.938 -0.61,-7.699 -0.15,-2.965 -0.31,-7.309 -0.31,-13.035 0,-48.188 11.32,-86.7 33.82,-115.137 22.64,-28.633 53.09,-42.856 91.35,-42.856 37.34,0 68.55,16.196 93.65,48.387 25.09,32.191 37.64,71.688 37.64,118.887 0,32.98 -6.43,61.418 -19.28,85.321 -12.86,23.69 -37.95,50.16 -75.29,79.38 -5.66,4.35 -14.53,10.87 -26.93,19.75 -43.91,31.21 -75.74,60.63 -95.48,87.88 -11.93,17.38 -20.96,36.74 -27.08,57.87 -6.12,21.33 -9.18,43.84 -9.18,67.73 0,63.6 18.36,118.1 54.93,163.52 36.57,45.23 80.94,67.94 132.82,67.94 50.19,0 90.74,-19.55 121.34,-58.46 30.6,-38.9 45.9,-90.25 45.9,-154.04 0,-8.09 0,-14.22 -0.15,-18.36 -0.15,-4.35 -0.46,-7.9 -0.76,-11.06 l -64.12,0 c 0,2.37 0.16,5.72 0.46,10.07 0.31,4.54 0.46,7.9 0.46,10.27 0,47.4 -9.18,83.73 -27.54,109.01 -18.37,25.28 -44.68,37.92 -79.11,37.92 -33.67,0 -61.67,-13.63 -84.01,-40.88 -22.18,-27.06 -33.35,-61.02 -33.35,-101.51 0,-55.1 38.86,-110.98 116.44,-167.67 14.38,-10.46 25.4,-18.56 33.2,-24.49 34.89,-25.67 61.36,-56.67 79.27,-92.81 17.9,-35.95 26.93,-76.627 26.93,-121.655 0,-69.121 -20.05,-128.168 -60.29,-177.343 -40.24,-49.172 -88.9,-73.86 -145.98,-73.86 -56.16,0 -100.84,20.934 -134.04,62.801 -33.21,41.867 -49.73,98.148 -49.73,168.652 0,6.914 0.15,12.246 0.3,16 0.16,3.555 0.46,6.91 1.08,10.071"
         style="fill:#000000;fill-opacity:1;fill-rule:nonzero;stroke:none"
         id="path24"
         inkscape:connector-curvature="0" /><path
         d="m 23.5,637.164 4986.79,0 -24.13,-133.941 -4982.76156,0 L 23.5,637.164"
         style="fill:#eb891b;fill-opacity:1;fill-rule:evenodd;stroke:none"
         id="path26"
         inkscape:connector-curvature="0" /><path
         d="m 23.5,637.164 4986.79,0 -24.13,-133.941 -4982.76156,0 L 23.5,637.164 z"
         style="fill:none;stroke:#000000;stroke-width:4.99749994;stroke-linecap:butt;stroke-linejoin:miter;stroke-miterlimit:2.61310005;stroke-opacity:1;stroke-dasharray:none"
         id="path28"
         inkscape:connector-curvature="0" /><path
         d="m 1827.67,9.84766 58.07,316.25034 154.89,0 -8.43,-44.555 -111.02,0 -16.03,-90.07 110.59,0 -7.66,-43.219 -110.81,0 -17.29,-93.0392 110.38,0 -8.01,-45.36714 -154.68,0"
         style="fill:#000000;fill-opacity:1;fill-rule:nonzero;stroke:none"
         id="path30"
         inkscape:connector-curvature="0" /><path
         d="M 2144.48,326.098 2086.2,9.84766 l -41.63,0 58.07,316.25034 41.84,0"
         style="fill:#000000;fill-opacity:1;fill-rule:nonzero;stroke:none"
         id="path32"
         inkscape:connector-curvature="0" /><path
         d="m 2335.23,153.664 c -3.44,20.094 -10.62,35.215 -21.66,45.293 -10.96,10.012 -25.73,15.051 -44.29,15.051 -17.72,0 -32.9,-5.113 -45.7,-15.418 -12.8,-10.231 -22.5,-25.277 -29.25,-44.926 l 140.9,0 z m 37.9,-64.1249 C 2362.44,61 2347.18,39.5742 2327.43,25.1172 2307.6,10.7383 2283.48,3.54688 2254.94,3.54688 c -32.14,0 -58.36,10.75002 -78.68,32.17192 -20.32,21.4257 -30.51,49.0039 -30.51,82.7342 0,20.387 3.79,39.66 11.32,57.75 7.59,18.16 18.42,33.801 32.55,47.149 11.11,10.449 23.62,18.308 37.61,23.57 13.93,5.266 28.76,7.933 44.58,7.933 32.98,0 59.2,-10.972 78.82,-32.914 19.54,-21.941 29.32,-51.593 29.32,-88.957 0,-3.488 -0.29,-8.972 -0.85,-16.457 l 0,-1.336 -190.32,0 c 1.12,-21.5738 7.52,-38.6988 19.33,-51.4488 11.81,-12.75 27,-19.125 45.56,-19.125 16.74,0 30.94,3.6328 42.61,10.9687 11.67,7.2657 21.58,18.6094 29.67,33.9532 l 47.18,0"
         style="fill:#000000;fill-opacity:1;fill-rule:nonzero;stroke:none"
         id="path34"
         inkscape:connector-curvature="0" /><path
         d="m 2492.44,326.098 -33.96,-185.035 3.73,0 91.82,107.714 49.85,0 -97.45,-112.902 72.14,-126.02734 -47.6,0 -69.61,124.46834 -4.36,0 -22.64,-124.46834 -41.41,0 57.87,316.25034 41.62,0"
         style="fill:#000000;fill-opacity:1;fill-rule:nonzero;stroke:none"
         id="path36"
         inkscape:connector-curvature="0" /><path
         d="m 2605.92,9.84766 37.26,198.75034 -38.11,0 7.6,40.179 37.47,0 14.06,77.321 41.77,0 -12.73,-77.321 36.84,0 -7.59,-40.179 -36.7,0 -38.11,-198.75034 -41.76,0"
         style="fill:#000000;fill-opacity:1;fill-rule:nonzero;stroke:none"
         id="path38"
         inkscape:connector-curvature="0" /><path
         d="m 2716.87,9.84766 42.25,238.92934 36.63,0 -4.5,-22.757 c 10.13,9.636 21.16,16.828 32.98,21.421 11.81,4.672 24.82,6.969 39.09,6.969 2.74,0 4.85,0 6.33,-0.074 1.4,-0.074 2.67,-0.223 3.79,-0.371 l -8.43,-41.66 c -27.07,-0.891 -46.62,-7.043 -58.71,-18.606 -12.1,-11.492 -21.66,-36.105 -28.69,-73.914 l -20.6,-109.93734 -40.14,0"
         style="fill:#000000;fill-opacity:1;fill-rule:nonzero;stroke:none"
         id="path40"
         inkscape:connector-curvature="0" /><path
         d="m 2995.01,213.566 c -23.13,0 -42.33,-8.972 -57.59,-26.839 -15.32,-17.868 -22.99,-40.622 -22.99,-68.274 0,-21.4257 6.33,-38.996 18.99,-52.7811 12.58,-13.7149 28.82,-20.6094 48.58,-20.6094 23.2,0 42.82,9.1172 58.71,27.3555 15.96,18.2343 23.9,40.699 23.9,67.309 0,22.168 -6.32,40.035 -18.98,53.527 -12.59,13.566 -29.25,20.312 -49.85,20.312 l -0.77,0 z m -123.6,-95.113 c 0,20.535 3.79,39.883 11.32,57.899 7.59,18.011 18.56,33.804 32.97,47.445 10.69,10.301 22.92,18.012 36.63,23.277 13.78,5.188 28.55,7.781 44.3,7.781 32.13,0 58.49,-10.75 79.02,-32.246 20.53,-21.5 30.8,-49.004 30.8,-82.437 0,-18.68 -3.24,-36.547 -9.71,-53.672 -6.46,-17.0469 -15.53,-32.0977 -27.35,-45.1445 -11.32,-12.1602 -24.53,-21.5 -39.79,-28.0235 -15.26,-6.52341 -31.71,-9.78512 -49.43,-9.78512 -31.71,0 -57.79,10.82422 -78.18,32.39842 -20.39,21.5703 -30.58,49.0742 -30.58,82.5077"
         style="fill:#000000;fill-opacity:1;fill-rule:nonzero;stroke:none"
         id="path42"
         inkscape:connector-curvature="0" /><path
         d="m 3202.21,248.777 -5.14,-22.832 c 10.83,9.118 21.66,15.938 32.42,20.387 10.76,4.52 21.44,6.746 32.06,6.746 23.34,0 42.25,-7.265 56.74,-21.723 14.48,-14.457 21.72,-33.285 21.72,-56.488 0,-8.527 -0.42,-17.644 -1.33,-27.207 -0.91,-9.637 -2.25,-19.422 -4.01,-29.207 l -20.04,-108.60534 -40.36,0 23.07,126.39434 c 1.26,5.934 2.11,11.492 2.67,16.828 0.56,5.266 0.84,10.012 0.84,14.235 0,14.011 -3.87,24.91 -11.53,32.769 -7.66,7.781 -18.49,11.711 -32.34,11.711 -19.9,0 -36.42,-7.043 -49.5,-21.051 -13.15,-14.089 -22.07,-34.324 -26.93,-60.793 l -22.21,-120.09334 -41.42,0 45.92,238.92934 39.37,0"
         style="fill:#000000;fill-opacity:1;fill-rule:nonzero;stroke:none"
         id="path44"
         inkscape:connector-curvature="0" /><path
         d="m 3408.21,248.777 42.47,0 -44.29,-238.92934 -42.68,0 44.5,238.92934 z m 47.18,26.688 -42.6,0 9.27,50.633 42.61,0 -9.28,-50.633"
         style="fill:#000000;fill-opacity:1;fill-rule:nonzero;stroke:none"
         id="path46"
         inkscape:connector-curvature="0" /><path
         d="m 3556.5,326.098 -33.96,-185.035 3.72,0 91.83,107.714 49.84,0 -97.45,-112.902 72.15,-126.02734 -47.61,0 -69.6,124.46834 -4.36,0 -22.64,-124.46834 -41.41,0 57.86,316.25034 41.63,0"
         style="fill:#000000;fill-opacity:1;fill-rule:nonzero;stroke:none"
         id="path48"
         inkscape:connector-curvature="0" /><path
         d="m 4041.7,125.422 -136.75,0 7.66,39.734 183.09,0 c -5.63,-49.375 -23.49,-88.738 -53.65,-118.0935 -30.16,-29.2812 -67.78,-43.96094 -112.99,-43.96094 -43.24,0 -77.41,13.19534 -102.44,39.66014 -25.1,26.3906 -37.61,62.4183 -37.61,108.0113 0,24.762 4.08,48.184 12.16,70.278 8.08,22.09 19.69,41.512 34.8,58.344 15.54,17.347 33.4,30.468 53.65,39.289 20.25,8.82 42.39,13.269 66.44,13.269 36.63,0 66.58,-9.265 89.78,-27.875 23.21,-18.605 39.16,-45.961 47.81,-81.988 l -46.75,0 c -6.33,22.164 -17.3,39.14 -32.84,51.004 -15.61,11.859 -34.8,17.789 -57.58,17.789 -34.87,0 -63.98,-13.192 -87.32,-39.66 -23.34,-26.391 -35.02,-59.75 -35.02,-100.004 0,-32.246 8.72,-58.1213 26.23,-77.469 17.51,-19.4219 40.71,-29.1328 69.54,-29.1328 24.95,0 47.66,7.4141 68.13,22.1641 20.45,14.7539 35.01,34.3237 43.66,58.6407"
         style="fill:#000000;fill-opacity:1;fill-rule:nonzero;stroke:none"
         id="path50"
         inkscape:connector-curvature="0" /><path
         d="m 4109.68,9.84766 42.26,238.92934 36.63,0 -4.5,-22.832 c 10.13,9.266 20.32,16.086 30.58,20.532 10.2,4.375 20.81,6.601 31.78,6.601 15.4,0 28.34,-2.894 38.75,-8.601 10.4,-5.707 19.26,-14.75 26.57,-27.059 9.63,11.937 20.11,20.832 31.5,26.766 11.39,5.929 23.83,8.894 37.33,8.894 23.21,0 41.98,-7.265 56.39,-21.723 14.41,-14.457 21.66,-33.285 21.66,-56.488 0,-8.527 -0.5,-17.644 -1.48,-27.207 -0.92,-9.637 -2.32,-19.422 -4.08,-29.207 l -19.82,-108.60534 -43.88,0 24.12,126.39434 c 1.12,5.34 1.9,10.824 2.46,16.387 0.56,5.559 0.84,10.746 0.84,15.492 0,13.789 -3.37,24.461 -10.12,32.172 -6.68,7.637 -16.1,11.492 -28.2,11.492 -17.43,0 -31.28,-6.449 -41.62,-19.347 -10.26,-12.825 -18.07,-33.731 -23.48,-62.497 l -21.8,-120.09334 -41.41,0 22.85,126.39434 c 0.99,5.34 1.69,10.602 2.18,15.867 0.49,5.188 0.7,10.231 0.7,15.196 0,14.308 -3.3,25.351 -9.98,33.211 -6.68,7.785 -16.1,11.714 -28.34,11.714 -17.43,0 -31.56,-6.82 -42.53,-20.386 -10.9,-13.641 -18.84,-34.25 -23.77,-61.903 l -21.44,-120.09334 -40.15,0"
         style="fill:#000000;fill-opacity:1;fill-rule:nonzero;stroke:none"
         id="path52"
         inkscape:connector-curvature="0" /><path
         d="m 4537.58,121.492 c 0,-22.6873 6.26,-41.0701 18.71,-55.0076 12.51,-14.0078 28.75,-20.9805 48.86,-20.9805 23.2,0 42.81,9.1914 58.85,27.5039 16.1,18.3125 24.11,40.6992 24.11,67.1642 0,22.312 -6.47,40.328 -19.33,54.117 -12.94,13.715 -29.82,20.609 -50.69,20.609 -22.5,0 -41.55,-8.968 -57.16,-26.91 -15.54,-17.941 -23.35,-40.105 -23.35,-66.496 z m -59.13,-111.64434 58.71,316.25034 39.51,0 -17.71,-100.524 c 8.5,9.637 18.42,16.903 29.67,21.645 11.25,4.82 23.9,7.191 37.89,7.191 29.53,0 54.07,-10.824 73.68,-32.394 19.55,-21.571 29.32,-48.703 29.32,-81.399 0,-18.828 -3.16,-36.695 -9.49,-53.5232 -6.32,-16.9024 -15.32,-32.0235 -27.14,-45.293 -11.32,-12.1602 -24.25,-21.5 -38.88,-28.0235 -14.62,-6.52339 -30.09,-9.78511 -46.4,-9.78511 -18.28,0 -34.31,3.48437 -48.02,10.52731 -13.71,7.043 -24.96,17.4961 -33.75,31.4297 l -6.4,-36.10154 -40.99,0"
         style="fill:#000000;fill-opacity:1;fill-rule:nonzero;stroke:none"
         id="path54"
         inkscape:connector-curvature="0" /><path
         d="m 4741.69,9.84766 58.08,316.25034 43.44,0 -24.46,-134.18 121.91,0 24.96,134.18 43.88,0 -58.08,-316.25034 -43.87,0 25.1,137.96134 -121.78,0 -25.31,-137.96134 -43.87,0"
         style="fill:#000000;fill-opacity:1;fill-rule:nonzero;stroke:none"
         id="path56"
         inkscape:connector-curvature="0" /><path
         d="m 1827.67,9.84766 58.07,316.25034 154.89,0 -8.43,-44.555 -111.02,0 -16.03,-90.07 110.59,0 -7.66,-43.219 -110.81,0 -17.29,-93.0392 110.38,0 -8.01,-45.36714 -154.68,0 z"
         style="fill:#000000;fill-opacity:1;stroke:#000000;stroke-width:4.99749994;stroke-linecap:butt;stroke-linejoin:miter;stroke-miterlimit:2.61310005;stroke-opacity:1;stroke-dasharray:none"
         id="path58"
         inkscape:connector-curvature="0" /><path
         d="M 2144.48,326.098 2086.2,9.84766 l -41.63,0 58.07,316.25034 41.84,0 z"
         style="fill:#000000;fill-opacity:1;stroke:#000000;stroke-width:4.99749994;stroke-linecap:butt;stroke-linejoin:miter;stroke-miterlimit:2.61310005;stroke-opacity:1;stroke-dasharray:none"
         id="path60"
         inkscape:connector-curvature="0" /><path
         d="m 2335.23,153.664 c -3.44,20.094 -10.62,35.215 -21.66,45.293 -10.96,10.012 -25.73,15.051 -44.29,15.051 -17.72,0 -32.9,-5.113 -45.7,-15.418 -12.8,-10.231 -22.5,-25.277 -29.25,-44.926 l 140.9,0 z m 37.9,-64.1249 C 2362.44,61 2347.18,39.5742 2327.43,25.1172 2307.6,10.7383 2283.48,3.54688 2254.94,3.54688 c -32.14,0 -58.36,10.75002 -78.68,32.17192 -20.32,21.4257 -30.51,49.0039 -30.51,82.7342 0,20.387 3.79,39.66 11.32,57.75 7.59,18.16 18.42,33.801 32.55,47.149 11.11,10.449 23.62,18.308 37.61,23.57 13.93,5.266 28.76,7.933 44.58,7.933 32.98,0 59.2,-10.972 78.82,-32.914 19.54,-21.941 29.32,-51.593 29.32,-88.957 0,-3.488 -0.29,-8.972 -0.85,-16.457 l 0,-1.336 -190.32,0 c 1.12,-21.5738 7.52,-38.6988 19.33,-51.4488 11.81,-12.75 27,-19.125 45.56,-19.125 16.74,0 30.94,3.6328 42.61,10.9687 11.67,7.2657 21.58,18.6094 29.67,33.9532 l 47.18,0 z"
         style="fill:#000000;fill-opacity:1;stroke:#000000;stroke-width:4.99749994;stroke-linecap:butt;stroke-linejoin:miter;stroke-miterlimit:2.61310005;stroke-opacity:1;stroke-dasharray:none"
         id="path62"
         inkscape:connector-curvature="0" /><path
         d="m 2492.44,326.098 -33.96,-185.035 3.73,0 91.82,107.714 49.85,0 -97.45,-112.902 72.14,-126.02734 -47.6,0 -69.61,124.46834 -4.36,0 -22.64,-124.46834 -41.41,0 57.87,316.25034 41.62,0 z"
         style="fill:#000000;fill-opacity:1;stroke:#000000;stroke-width:4.99749994;stroke-linecap:butt;stroke-linejoin:miter;stroke-miterlimit:2.61310005;stroke-opacity:1;stroke-dasharray:none"
         id="path64"
         inkscape:connector-curvature="0" /><path
         d="m 2605.92,9.84766 37.26,198.75034 -38.11,0 7.6,40.179 37.47,0 14.06,77.321 41.77,0 -12.73,-77.321 36.84,0 -7.59,-40.179 -36.7,0 -38.11,-198.75034 -41.76,0 z"
         style="fill:#000000;fill-opacity:1;stroke:#000000;stroke-width:4.99749994;stroke-linecap:butt;stroke-linejoin:miter;stroke-miterlimit:2.61310005;stroke-opacity:1;stroke-dasharray:none"
         id="path66"
         inkscape:connector-curvature="0" /><path
         d="m 2716.87,9.84766 42.25,238.92934 36.63,0 -4.5,-22.757 c 10.13,9.636 21.16,16.828 32.98,21.421 11.81,4.672 24.82,6.969 39.09,6.969 2.74,0 4.85,0 6.33,-0.074 1.4,-0.074 2.67,-0.223 3.79,-0.371 l -8.43,-41.66 c -27.07,-0.891 -46.62,-7.043 -58.71,-18.606 -12.1,-11.492 -21.66,-36.105 -28.69,-73.914 l -20.6,-109.93734 -40.14,0 z"
         style="fill:#000000;fill-opacity:1;stroke:#000000;stroke-width:4.99749994;stroke-linecap:butt;stroke-linejoin:miter;stroke-miterlimit:2.61310005;stroke-opacity:1;stroke-dasharray:none"
         id="path68"
         inkscape:connector-curvature="0" /><path
         d="m 2995.01,213.566 c -23.13,0 -42.33,-8.972 -57.59,-26.839 -15.32,-17.868 -22.99,-40.622 -22.99,-68.274 0,-21.4257 6.33,-38.996 18.99,-52.7811 12.58,-13.7149 28.82,-20.6094 48.58,-20.6094 23.2,0 42.82,9.1172 58.71,27.3555 15.96,18.2343 23.9,40.699 23.9,67.309 0,22.168 -6.32,40.035 -18.98,53.527 -12.59,13.566 -29.25,20.312 -49.85,20.312 l -0.77,0 z m -123.6,-95.113 c 0,20.535 3.79,39.883 11.32,57.899 7.59,18.011 18.56,33.804 32.97,47.445 10.69,10.301 22.92,18.012 36.63,23.277 13.78,5.188 28.55,7.781 44.3,7.781 32.13,0 58.49,-10.75 79.02,-32.246 20.53,-21.5 30.8,-49.004 30.8,-82.437 0,-18.68 -3.24,-36.547 -9.71,-53.672 -6.46,-17.0469 -15.53,-32.0977 -27.35,-45.1445 -11.32,-12.1602 -24.53,-21.5 -39.79,-28.0235 -15.26,-6.52341 -31.71,-9.78512 -49.43,-9.78512 -31.71,0 -57.79,10.82422 -78.18,32.39842 -20.39,21.5703 -30.58,49.0742 -30.58,82.5077 z"
         style="fill:#000000;fill-opacity:1;stroke:#000000;stroke-width:4.99749994;stroke-linecap:butt;stroke-linejoin:miter;stroke-miterlimit:2.61310005;stroke-opacity:1;stroke-dasharray:none"
         id="path70"
         inkscape:connector-curvature="0" /><path
         d="m 3202.21,248.777 -5.14,-22.832 c 10.83,9.118 21.66,15.938 32.42,20.387 10.76,4.52 21.44,6.746 32.06,6.746 23.34,0 42.25,-7.265 56.74,-21.723 14.48,-14.457 21.72,-33.285 21.72,-56.488 0,-8.527 -0.42,-17.644 -1.33,-27.207 -0.91,-9.637 -2.25,-19.422 -4.01,-29.207 l -20.04,-108.60534 -40.36,0 23.07,126.39434 c 1.26,5.934 2.11,11.492 2.67,16.828 0.56,5.266 0.84,10.012 0.84,14.235 0,14.011 -3.87,24.91 -11.53,32.769 -7.66,7.781 -18.49,11.711 -32.34,11.711 -19.9,0 -36.42,-7.043 -49.5,-21.051 -13.15,-14.089 -22.07,-34.324 -26.93,-60.793 l -22.21,-120.09334 -41.42,0 45.92,238.92934 39.37,0 z"
         style="fill:#000000;fill-opacity:1;stroke:#000000;stroke-width:4.99749994;stroke-linecap:butt;stroke-linejoin:miter;stroke-miterlimit:2.61310005;stroke-opacity:1;stroke-dasharray:none"
         id="path72"
         inkscape:connector-curvature="0" /><path
         d="m 3408.21,248.777 42.47,0 -44.29,-238.92934 -42.68,0 44.5,238.92934 z m 47.18,26.688 -42.6,0 9.27,50.633 42.61,0 -9.28,-50.633 z"
         style="fill:#000000;fill-opacity:1;stroke:#000000;stroke-width:4.99749994;stroke-linecap:butt;stroke-linejoin:miter;stroke-miterlimit:2.61310005;stroke-opacity:1;stroke-dasharray:none"
         id="path74"
         inkscape:connector-curvature="0" /><path
         d="m 3556.5,326.098 -33.96,-185.035 3.72,0 91.83,107.714 49.84,0 -97.45,-112.902 72.15,-126.02734 -47.61,0 -69.6,124.46834 -4.36,0 -22.64,-124.46834 -41.41,0 57.86,316.25034 41.63,0 z"
         style="fill:#000000;fill-opacity:1;stroke:#000000;stroke-width:4.99749994;stroke-linecap:butt;stroke-linejoin:miter;stroke-miterlimit:2.61310005;stroke-opacity:1;stroke-dasharray:none"
         id="path76"
         inkscape:connector-curvature="0" /><path
         d="m 4041.7,125.422 -136.75,0 7.66,39.734 183.09,0 c -5.63,-49.375 -23.49,-88.738 -53.65,-118.0935 -30.16,-29.2812 -67.78,-43.96094 -112.99,-43.96094 -43.24,0 -77.41,13.19534 -102.44,39.66014 -25.1,26.3906 -37.61,62.4183 -37.61,108.0113 0,24.762 4.08,48.184 12.16,70.278 8.08,22.09 19.69,41.512 34.8,58.344 15.54,17.347 33.4,30.468 53.65,39.289 20.25,8.82 42.39,13.269 66.44,13.269 36.63,0 66.58,-9.265 89.78,-27.875 23.21,-18.605 39.16,-45.961 47.81,-81.988 l -46.75,0 c -6.33,22.164 -17.3,39.14 -32.84,51.004 -15.61,11.859 -34.8,17.789 -57.58,17.789 -34.87,0 -63.98,-13.192 -87.32,-39.66 -23.34,-26.391 -35.02,-59.75 -35.02,-100.004 0,-32.246 8.72,-58.1213 26.23,-77.469 17.51,-19.4219 40.71,-29.1328 69.54,-29.1328 24.95,0 47.66,7.4141 68.13,22.1641 20.45,14.7539 35.01,34.3237 43.66,58.6407 z"
         style="fill:#000000;fill-opacity:1;stroke:#000000;stroke-width:4.99749994;stroke-linecap:butt;stroke-linejoin:miter;stroke-miterlimit:2.61310005;stroke-opacity:1;stroke-dasharray:none"
         id="path78"
         inkscape:connector-curvature="0" /><path
         d="m 4109.68,9.84766 42.26,238.92934 36.63,0 -4.5,-22.832 c 10.13,9.266 20.32,16.086 30.58,20.532 10.2,4.375 20.81,6.601 31.78,6.601 15.4,0 28.34,-2.894 38.75,-8.601 10.4,-5.707 19.26,-14.75 26.57,-27.059 9.63,11.937 20.11,20.832 31.5,26.766 11.39,5.929 23.83,8.894 37.33,8.894 23.21,0 41.98,-7.265 56.39,-21.723 14.41,-14.457 21.66,-33.285 21.66,-56.488 0,-8.527 -0.5,-17.644 -1.48,-27.207 -0.92,-9.637 -2.32,-19.422 -4.08,-29.207 l -19.82,-108.60534 -43.88,0 24.12,126.39434 c 1.12,5.34 1.9,10.824 2.46,16.387 0.56,5.559 0.84,10.746 0.84,15.492 0,13.789 -3.37,24.461 -10.12,32.172 -6.68,7.637 -16.1,11.492 -28.2,11.492 -17.43,0 -31.28,-6.449 -41.62,-19.347 -10.26,-12.825 -18.07,-33.731 -23.48,-62.497 l -21.8,-120.09334 -41.41,0 22.85,126.39434 c 0.99,5.34 1.69,10.602 2.18,15.867 0.49,5.188 0.7,10.231 0.7,15.196 0,14.308 -3.3,25.351 -9.98,33.211 -6.68,7.785 -16.1,11.714 -28.34,11.714 -17.43,0 -31.56,-6.82 -42.53,-20.386 -10.9,-13.641 -18.84,-34.25 -23.77,-61.903 l -21.44,-120.09334 -40.15,0 z"
         style="fill:#000000;fill-opacity:1;stroke:#000000;stroke-width:4.99749994;stroke-linecap:butt;stroke-linejoin:miter;stroke-miterlimit:2.61310005;stroke-opacity:1;stroke-dasharray:none"
         id="path80"
         inkscape:connector-curvature="0" /><path
         d="m 4537.58,121.492 c 0,-22.6873 6.26,-41.0701 18.71,-55.0076 12.51,-14.0078 28.75,-20.9805 48.86,-20.9805 23.2,0 42.81,9.1914 58.85,27.5039 16.1,18.3125 24.11,40.6992 24.11,67.1642 0,22.312 -6.47,40.328 -19.33,54.117 -12.94,13.715 -29.82,20.609 -50.69,20.609 -22.5,0 -41.55,-8.968 -57.16,-26.91 -15.54,-17.941 -23.35,-40.105 -23.35,-66.496 z m -59.13,-111.64434 58.71,316.25034 39.51,0 -17.71,-100.524 c 8.5,9.637 18.42,16.903 29.67,21.645 11.25,4.82 23.9,7.191 37.89,7.191 29.53,0 54.07,-10.824 73.68,-32.394 19.55,-21.571 29.32,-48.703 29.32,-81.399 0,-18.828 -3.16,-36.695 -9.49,-53.5232 -6.32,-16.9024 -15.32,-32.0235 -27.14,-45.293 -11.32,-12.1602 -24.25,-21.5 -38.88,-28.0235 -14.62,-6.52339 -30.09,-9.78511 -46.4,-9.78511 -18.28,0 -34.31,3.48437 -48.02,10.52731 -13.71,7.043 -24.96,17.4961 -33.75,31.4297 l -6.4,-36.10154 -40.99,0 z"
         style="fill:#000000;fill-opacity:1;stroke:#000000;stroke-width:4.99749994;stroke-linecap:butt;stroke-linejoin:miter;stroke-miterlimit:2.61310005;stroke-opacity:1;stroke-dasharray:none"
         id="path82"
         inkscape:connector-curvature="0" /><path
         d="m 4741.69,9.84766 58.08,316.25034 43.44,0 -24.46,-134.18 121.91,0 24.96,134.18 43.88,0 -58.08,-316.25034 -43.87,0 25.1,137.96134 -121.78,0 -25.31,-137.96134 -43.87,0 z"
         style="fill:#000000;fill-opacity:1;stroke:#000000;stroke-width:4.99749994;stroke-linecap:butt;stroke-linejoin:miter;stroke-miterlimit:2.61310005;stroke-opacity:1;stroke-dasharray:none"
         id="path84"
         inkscape:connector-curvature="0" /><path
         d="m 4929.3799,1246.3006 c 11.0436,-7.3001 21.6964,-15.1681 31.9232,-23.5765 3.9502,-3.2503 7.4406,-7.0232 10.379,-11.2151 2.4818,-3.5357 4.839,-7.1623 7.0644,-10.8722 1.2605,-2.1012 2.3864,-4.2752 3.3732,-6.5168 0.943,-2.145 1.7277,-4.3615 2.3499,-6.6236 0.8502,-3.0878 1.5314,-6.221 2.0453,-9.3835 m -70.2298,42.6099 c 0.5564,-0.8054 1.142,-1.5975 1.7523,-2.3661 1.306,-1.6515 2.6383,-3.2824 3.9957,-4.893 1.2868,-1.5271 2.5401,-3.0791 3.7611,-4.6603 0.697,-0.9048 1.3646,-1.8345 1.9913,-2.7934 3.6646,-5.5563 6.8681,-11.4039 9.578,-17.4844 1.823,-4.0789 3.1379,-8.3702 3.918,-12.7699 m -47.4031,26.0917 c 3.3118,-3.8051 6.6191,-7.619 9.9193,-11.4419 0.1173,-0.129 0.2201,-0.2693 0.3196,-0.4114 1.6486,-2.423 2.9428,-5.0671 3.8433,-7.8548 0.9793,-3.0468 1.552,-6.2093 1.7102,-9.4054 0.1943,-3.997 1.0155,-7.9428 2.4363,-11.6865 1.7715,-4.6778 4.117,-9.1096 6.9879,-13.2061 m 65.8524,-401.95548 -1.0086,0.93848 -1.1991,0.97071 -1.4201,1.04975 -1.568,1.07905 -1.7233,1.12443 -1.9092,1.12867 -2.0541,1.15825 -2.1699,1.1991 -2.3205,1.23277 -2.4275,1.1991 -2.5066,1.23277 -2.6559,1.23277 -2.6939,1.22838 -2.7686,1.23277 -2.8798,1.24156 -2.8799,1.19031 -2.9561,1.1991 -2.9868,1.1625 -2.9925,1.11989 -3.0308,1.1171 -3.0291,1.05415 -3.0293,1.00438 -2.9927,0.97509 -2.9545,0.93409 -2.9545,0.86382 -2.8814,0.82136 -2.8418,0.7423 -2.7685,0.68081 -2.6941,0.55636 -2.5767,0.52268 -2.5066,0.44802 -2.3952,0.33674 -2.2826,0.26939 -2.1288,0.14495 -1.9839,0.0381 -1.9458,0.0366 -1.9427,0.10824 -1.9093,0.11567 -1.9429,0.22841 -1.9092,0.26221 -1.9091,0.29868 -1.9414,0.3732 -1.9092,0.44801 -1.9429,0.48608 -1.9091,0.56369 -1.9092,0.59002 -1.9414,0.68082 -1.9093,0.71008 -1.9048,0.78769 -1.9472,0.85078 -1.9091,0.86382 -1.9414,0.97071 -1.9092,1.01315 -1.9429,1.04536 -1.9092,1.12444 -1.9458,1.19617 -1.9429,1.23569 -1.9458,1.27085 -1.909,1.38943 -1.943,1.37918 -1.9839,1.45971 -1.9413,1.53144 -1.9472,1.56952 -1.984,1.6515 -1.9413,1.68079 -1.9839,1.72179 -1.9795,1.78912 -1.9837,1.87551 -1.984,1.90919 -1.9809,1.97653 -1.9457,2.02046 -1.8713,2.02486 -1.7934,2.0512 -1.6853,2.09513 -1.6426,2.13319 -1.5739,2.13319 -1.4934,2.16687 -1.4231,2.1698 -1.3822,2.20493 -1.3455,2.24886 -1.2737,2.24154 -1.1947,2.27813 -1.2006,2.28253 -1.156,2.27815 -1.1222,2.36158 -1.088,2.3118 -1.0448,2.3982 -1.0448,2.3587 -1.0495,2.3938 -0.972,2.3865 -1.0074,2.4318 -1.0131,2.4319 -0.9711,2.4743 -1.0084,2.4685 -1.0086,2.4612 -1.0131,2.4743 -1.0084,2.5065 -1.0448,2.5021 -1.088,2.5066 -1.0825,2.5109 -1.163,2.5065 -1.1584,2.5402 -1.1946,2.5403 -1.2371,2.5475 -1.3075,2.5402 -1.3073,2.5066 -1.2738,2.4655 -1.2328,2.3617 -1.1993,2.3118 -1.1222,2.2869 -1.1195,2.1698 -1.0883,2.1303 -1.0446,2.0951 -1.0085,2.0248 -1.012,1.9384 -0.9348,1.9093 -0.9335,1.8302 -0.9006,1.7979 -0.8961,1.7216 -0.8598,1.681 -0.8597,1.6061 -0.8257,1.606 -0.7848,1.4978 -0.7847,1.4992 -0.7836,1.4188 -0.7894,1.3821 -0.7462,1.3074 -0.7459,1.2782 -0.7487,1.2694 -0.7133,1.1625 -0.7459,1.1581 -0.7486,1.1199 -0.7086,1.0497 -0.7484,1.0424 -0.7508,0.9708 -0.7087,0.9795 -0.7485,0.9003 -0.7835,0.8552 -0.7508,0.8593 -0.7847,0.7891 -0.8597,0.8623 -1.0085,1.0424 -1.1245,1.1613 -1.2327,1.3074 -1.3866,1.4611 -1.4567,1.5695 -1.5725,1.7175 -1.6807,1.7978 -1.7599,1.9122 -1.8667,2.0131 -1.9472,2.0586 -1.9795,2.1712 -2.0585,2.24 -2.1332,2.3206 -2.1699,2.3529 -2.2049,2.3908 -2.2445,2.432 -2.2825,2.4772 -2.2795,2.5065 -2.3193,2.47 -2.3205,2.5357 -2.3572,2.5066 -2.3148,2.4655 -2.2839,2.5066 -2.3192,2.43188 -2.2416,2.4319 -2.2443,2.3951 -2.208,2.3237 -2.1669,2.2752 -2.0966,2.2034 -2.0585,2.0995 -1.9794,2.0585 -1.9092,1.9795 -1.7964,1.8389 -1.7555,1.751 -1.647,1.76 -1.5695,1.8345 -1.4979,1.9384 -1.3821,2.0249 -1.3074,2.0878 -1.2738,2.1785 -1.1584,2.2036 -1.088,2.2795 -1.0086,2.3192 -0.971,2.3616 -0.8596,2.4318 -0.8258,2.4276 -0.7847,2.4244 -0.6726,2.4774 -0.6722,2.4654 -0.5657,2.4612 -0.5587,2.4773 -0.4861,2.4317 -0.4486,2.432 -0.3735,2.3866 -0.3737,2.3572 -0.2988,2.3204 -0.2623,2.2782 -0.2648,2.2079 -0.1873,2.1668 -0.1862,2.1039 -0.15,1.9795 -0.1173,1.9385 -0.1174,1.8346 -0.07,1.7261 -0.024,1.6442 -0.047,1.5315 -0.024,1.3849 0,1.3076 -0.046,1.1244 0,1.117 0,1.0878 -0.047,1.0819 -0.07,1.0512 -0.046,1.0412 -0.07,1.0541 -0.024,1.0088 -0.07,1.0452 -0.07,1.0046 -0.047,0.9794 -0.07,1.0043 -0.024,0.9752 -0.046,0.9341 -0.024,0.9794 0,0.9253 0,0.9342 0.024,0.9413 0.046,0.9386 0.07,0.8959 0.1174,0.8976 0.1173,0.8914 0.15,0.9049 0.1862,0.8507 0.2237,0.8639 0.2624,0.8622 0.2986,0.8638 0.3783,0.817 0.3737,0.8595 0.4112,0.8257 0.4861,0.8256 0.5225,0.8185 0.5973,0.7877 0.6347,0.8184 0.7132,0.7877 0.7462,0.7891 0.7849,0.8257 0.7471,0.8184 0.7509,0.8624 0.7483,0.896 0.7087,0.9341 0.7098,0.9722 0.6759,1.0073 0.6723,1.0497 0.6734,1.0468 0.6338,1.0791 0.5974,1.1244 0.6019,1.1243 0.5986,1.1626 0.5223,1.1991 0.5611,1.2328 0.5224,1.2326 0.485,1.2695 0.452,1.3074 0.4485,1.3074 0.4498,1.3075 0.4099,1.3864 0.3737,1.3441 0.3374,1.3866 0.3373,1.423 0.2987,1.4276 0.2613,1.4538 0.2669,1.4553 0.2237,1.4993 0.1862,1.4977 0.1875,1.4977 0.1174,1.5315 0.1173,1.4905 0.07,1.5768 0.07,1.5315 0,1.5695 0,1.5724 0.024,1.4935 0.07,1.4992 0.07,1.4523 0.07,1.4231 0.1489,1.3529 0.1498,1.341 0.1862,1.3076 0.2237,1.237 0.2237,1.2402 0.2624,1.1874 0.2987,1.1244 0.3397,1.0834 0.3748,1.0878 0.4099,1.0074 0.4486,0.9793 0.4861,0.8887 0.4861,0.8961 0.5587,0.83 0.602,0.8259 0.6349,0.7057 0.6722,0.7056 0.71,0.64 0.7846,0.6047 0.7884,0.5563 0.8595,0.5228 0.8962,0.4493 0.9382,0.3689 1.0084,0.3733 1.0448,0.2987 1.0882,0.2284 1.1583,0.1903 1.1948,0.1538 1.2738,0.07 1.3075,0.034 1.2709,0 1.2738,0.041 1.1946,0.079 1.1244,0.075 1.122,0.1078 1.0835,0.145 1.0121,0.1536 1.0084,0.1831 0.971,0.1904 0.9382,0.262 0.896,0.2606 0.8598,0.2577 0.8597,0.2986 0.8621,0.3368 0.7847,0.3777 0.821,0.3735 0.7847,0.4186 0.7509,0.4451 0.7484,0.4436 0.7837,0.489 0.7096,0.5271 0.7509,0.527 0.7462,0.5608 0.7484,0.5972 0.7461,0.6266 0.7506,0.6355 0.7463,0.6809 0.7847,0.6721 0.7461,0.7057 0.8212,0.7466 0.7894,0.7892 0.8211,0.7877 0.8597,0.8256 0.9007,0.8552 0.896,0.8974 0.8973,0.8623 0.8959,0.7803 0.8644,0.7513 0.8961,0.6718 0.8959,0.602 0.8634,0.524 0.8959,0.4891 0.8598,0.4071 0.9335,0.3732 0.9008,0.2987 0.9322,0.2621 0.9336,0.2196 0.9757,0.1992 1.0083,0.1449 1.0085,0.1078 1.0881,0.075 1.0835,0.045 1.1197,0.029 1.162,-0.029 1.2327,0 1.2693,-0.079 1.3118,-0.041 1.3441,-0.1078 1.423,-0.07 1.495,-0.1198 1.5358,-0.079 1.6062,-0.1078 1.6851,-0.1114 1.7556,-0.075 1.833,-0.1078 1.9062,-0.079 1.9838,-0.075 2.0585,-0.036 2.1655,-0.042 2.246,0 2.2444,0 2.0923,-0.029 2.0204,-0.045 1.8344,-0.032 1.7556,-0.075 1.6486,-0.1125 1.5314,-0.1078 1.4611,-0.1539 1.3441,-0.145 1.3073,-0.1903 1.1993,-0.2283 1.1196,-0.2577 1.0507,-0.2576 1.046,-0.2987 0.9334,-0.3734 0.9336,-0.382 0.862,-0.4144 0.8598,-0.4479 0.821,-0.4861 0.8211,-0.5183 0.7894,-0.5608 0.7847,-0.6383 0.7848,-0.6689 0.7837,-0.6722 0.8257,-0.7892 0.8234,-0.7877 0.8574,-0.8638 0.902,-0.8959 0.9322,-0.9634 0.9723,-1.0161 1.0072,-1.0469 1.0882,-1.1202 1.1583,-1.2035 1.2371,-1.2328 1.2694,-1.3029 1.3454,-1.2738 1.3486,-1.1949 1.3441,-1.092 1.3863,-0.9664 1.4189,-0.8638 1.4244,-0.7804 1.4189,-0.7144 1.4201,-0.593 1.4597,-0.5608 1.4568,-0.4523 1.4611,-0.41 1.4948,-0.3368 1.4598,-0.2606 1.4947,-0.2284 1.4612,-0.1537 1.4934,-0.1078 1.4979,-0.075 1.4566,0 1.4993,0 1.4568,0.038 1.4568,0.07 1.4598,0.075 1.4566,0.1161 1.4612,0.1494 1.4202,0.1174 1.3849,0.1448 1.4203,0.1539 1.3866,0.1449 1.3441,0.1538 1.3454,0.1113 1.3104,0.1078 1.3074,0.1162 1.2738,0.075 1.2328,0.034 1.2326,0.045 0.4908,0 0.4475,0 0.4485,0 0.4861,0.029 0.4486,0.045 0.485,0.033 0.4496,0.038 0.4522,0.037 0.4486,0.039 0.4848,0.077 0.4487,0.029 0.4498,0.079 0.4486,0.075 0.4475,0.1078 0.452,0.075 0.4486,0.079 0.4861,0.1113 0.4485,0.1078 0.4488,0.1161 0.4486,0.1078 0.4486,0.1198 0.4519,0.145 0.4487,0.1538 0.4486,0.1078 0.4497,0.145 0.4487,0.1536 0.4485,0.1903 0.4487,0.1509 0.4158,0.186 0.4486,0.183 0.4486,0.1903 0.4487,0.1832 0.4485,0.1903 0.4474,0.1874 0.4486,0.2196 6.2092,3.7099 0,0 0.4522,0.3282 0.4861,0.3367 0.4485,0.3438 0.4851,0.3326 0.4496,0.3396 0.485,0.3323 0.486,0.3734 0.4885,0.3819 0.4498,0.3691 0.4849,0.3733 0.486,0.3749 0.485,0.3806 0.486,0.407 0.4908,0.3733 0.4849,0.4071 0.4861,0.4143 0.4861,0.445 0.5223,0.4188 0.485,0.407 0.4861,0.448 0.4907,0.4524 0.5225,0.4523 0.4849,0.4436 0.5234,0.448 0.4851,0.4861 0.5222,0.4816 0.5272,0.4567 0.4859,0.4892 0.5225,0.4772 0.5224,0.5271 0.5225,0.4817 0.5234,0.527 0.5271,0.5271 0.5223,0.527 0.5225,0.5185 c 1.0659,1.0964 2.1243,2.1961 3.1713,3.3088 0.5342,0.568 1.0612,1.1492 1.5766,1.7423 l 0.5272,0.6353 0.5225,0.5974 0.4859,0.6354 0.4849,0.5974 0.4486,0.5929 0.4498,0.6442 0.41,0.5974 0.4159,0.5974 0.3735,0.6018 0.3736,0.5974 0.3737,0.6017 0.3735,0.5974 0.2988,0.5899 0.3373,0.5974 0.2988,0.5608 0.2985,0.6019 0.2987,0.5636 0.2671,0.5608 0.26,0.5608 0.2236,0.5637 0.2239,0.552 0.2236,0.527 0.2238,0.565 0.1874,0.5228 0.1873,0.5184 0.1863,0.527 0.1874,0.5271 0.1499,0.4816 0.15,0.4905 0.1487,0.4889 0.1174,0.4774 0.1488,0.4935 0.1174,0.4407 0.1173,0.4479 c 0.1627,0.7965 0.2916,1.5973 0.3865,2.4026 0.2447,2.0541 0.4522,4.1083 0.6266,6.1712 l 0,0.034 0,0 0,0.037 0,0 0,0 -0.024,0.038 0,0 0,0 1.4934,27.001 -1.2328,18.3276 -0.024,0.07 -0.046,0.1946 -0.1174,0.3324 -0.1173,0.4568 -0.1863,0.5184 -0.1874,0.6764 -0.2236,0.7438 -0.2671,0.8622 -0.2613,0.9341 -0.2986,1.047 -0.2988,1.0862 -0.3371,1.1538 -0.3375,1.1991 -0.3736,1.3118 -0.335,1.3075 -0.3737,1.3528 -0.3734,1.3776 -0.3784,1.4159 -0.3748,1.4655 -0.3737,1.4567 -0.335,1.4598 -0.3735,1.4612 -0.3375,1.4977 -0.3372,1.4158 -0.2988,1.4613 -0.2986,1.3776 -0.2647,1.391 -0.2623,1.3395 -0.2238,1.2782 -0.1862,1.2738 -0.1501,1.1581 -0.151,1.1625 -0.1174,1.0453 -0.046,0.9679 -0.024,0.8916 0.024,0.8344 0.1174,0.817 0.1875,0.8595 0.26,0.855 0.3373,0.871 0.3785,0.8597 0.4098,0.8549 0.4861,0.8593 0.4861,0.8623 0.5598,0.8639 0.5974,0.8505 0.602,0.8303 0.6348,0.8593 0.6361,0.855 0.6723,0.8215 0.6723,0.8258 0.6758,0.8257 0.6735,0.8258 0.6723,0.7802 0.6724,0.8257 0.6359,0.7438 0.6021,0.7921 0.5973,0.7437 0.561,0.7174 0.5225,0.7057 0.4848,0.7058 0.4498,0.6719 0.3771,0.6472 0.3351,0.6266 0.2623,0.6355 0.2238,0.5679 0.1173,0.5564 0.07,0.5609 -0.024,0.489 -0.07,0.4817 -0.6723,2.0966 -0.6759,2.095 -0.6735,2.0586 -0.746,2.0131 -0.7097,2.025 -0.7509,1.9882 -0.7462,1.9795 -0.7847,1.9047 -0.7461,1.9384 -0.7847,1.88 -0.7884,1.8681 -0.7483,1.8257 -0.7836,1.8345 -0.7463,1.7965 -0.7893,1.7189 -0.7099,1.7554 -0.746,1.6897 -0.7098,1.647 -0.6759,1.6428 -0.6723,1.5695 -0.6723,1.5724 -0.5973,1.5315 -0.5985,1.4992 -0.5635,1.4553 -0.5223,1.4201 -0.4861,1.3866 -0.4111,1.3148 -0.4098,1.3073 -0.3738,1.271 -0.2987,1.1947 -0.2623,1.199 -0.191,1.1244 -0.1488,1.079 -0.1174,1.0425 -0.024,1.0159 0.024,0.9387 0.07,0.9253 0.1174,0.9047 0.1523,0.9005 0.1875,0.8887 0.2237,0.8624 0.2238,0.8593 0.2986,0.8258 0.2988,0.8257 0.3371,0.8141 0.3374,0.8301 0.3737,0.8258 0.3736,0.7759 0.3736,0.8303 0.4146,0.7802 0.4112,0.7893 0.4111,0.7877 0.4099,0.7803 0.4112,0.7892 0.4112,0.8169 0.4099,0.7891 0.3736,0.7877 0.3783,0.8213 0.3735,0.823 0.3738,0.8168 0.2998,0.8259 0.2986,0.8593 0.2987,0.8638 0.2612,0.8623 0.1875,0.8552 0.1862,0.9048 0.1511,0.9254 0.1174,0.9003 0.07,0.9794 0.047,0.9678 0,22.5106 0,0.044 0.024,0.1023 0.07,0.2196 0.07,0.265 0.1174,0.3324 0.1487,0.3822 0.1499,0.4816 0.1488,0.489 0.1863,0.5607 0.1872,0.6355 0.1862,0.672 0.2238,0.6719 0.2238,0.7556 0.2247,0.7759 0.2602,0.8257 0.2237,0.8259 0.2624,0.8549 0.2236,0.8595 0.2612,0.9004 0.2284,0.9005 0.2238,0.8974 0.2623,0.9327 0.2238,0.9004 0.1874,0.9341 0.2236,0.8975 0.1863,0.8961 0.1874,0.9003 0.1488,0.8551 0.1498,0.8667 0.15,0.8228 0.1173,0.7833 0.07,0.7483 0.07,0.7129 0.024,0.672 0,0.6735 0,0.5592 0,0.602 -0.024,0.5971 -0.046,0.5902 -0.024,0.6017 -0.07,0.5974 -0.1173,0.5607 -0.1174,0.5636 -0.1487,0.5989 -0.1862,0.5592 -0.1875,0.5271 -0.2612,0.5564 -0.2623,0.5227 -0.3372,0.527 -0.3738,0.4817 -0.4147,0.4906 -0.4485,0.489 -0.5224,0.448 -0.5611,0.4523 -0.5972,0.407 -0.6724,0.4114 -0.7532,0.3691 -0.821,0.344 -0.8598,0.328 -0.937,0.344 -1.0085,0.2622 -1.0834,0.265 -1.1619,0.2532 -1.2313,0.1917 -1.3455,0.1904 -1.4231,0.1464 -1.4948,0.1023 -1.5725,0.073 -1.6807,0.074 -1.7965,0 -1.7936,-0.044 -1.7598,-0.1173 -1.7964,-0.1831 -1.7188,-0.2239 -1.7218,-0.3031 -1.7189,-0.3689 -1.6852,-0.3735 -1.6427,-0.4567 -1.6105,-0.5227 -1.6062,-0.5198 -1.5358,-0.5592 -1.5314,-0.5608 -1.4612,-0.6354 -1.4568,-0.6384 -1.385,-0.6354 -1.3455,-0.6721 -1.3074,-0.6763 -1.2358,-0.6355 -1.1962,-0.6764 -1.1198,-0.6675 -1.088,-0.6356 -1.0448,-0.6353 -0.9335,-0.6428 -0.9007,-0.5563 -0.8598,-0.5593 -0.746,-0.5652 -0.6724,-0.4816 -0.6393,-0.4525 -0.5588,-0.407 -0.4498,-0.3441 -0.3737,-0.2942 -0.2985,-0.224 -0.2238,-0.183 -0.15,-0.1174 -0.024,-0.029 -18.3277,12.6425 -0.047,0 -0.1498,0.1023 -0.1862,0.1537 -0.2988,0.1831 -0.3374,0.2693 -0.4519,0.328 -0.4861,0.344 -0.5974,0.4071 -0.6349,0.448 -0.7461,0.4861 -0.7882,0.527 -0.8598,0.5637 -0.896,0.5989 -1.0084,0.6339 -1.0495,0.6735 -1.1208,0.6676 -1.1586,0.7174 -1.2469,0.742 -1.3077,0.7424 -1.3499,0.751 -1.4186,0.7805 -1.4612,0.8257 -1.4934,0.7891 -1.574,0.817 -1.606,0.8257 -1.6837,0.8257 -1.7188,0.8259 -1.7598,0.7803 -1.7922,0.8258 -1.8346,0.8256 -1.9046,0.7804 -1.9093,0.7804 -1.9838,0.7511 -1.9808,0.7848 -2.0573,0.7144 -2.0586,0.7087 -2.0556,0.6735 -2.0949,0.6339 -2.0966,0.6061 -2.0544,0.552 -2.0949,0.5271 -2.0966,0.5271 -2.1287,0.4435 -2.0953,0.4071 -2.133,0.4202 -2.1305,0.3353 -2.133,0.2987 -2.1334,0.2987 -2.1653,0.2283 -2.1333,0.2196 -2.1711,0.1493 -2.1669,0.1509 -2.1698,0.073 -2.2079,0.029 -2.1668,0.044 -2.2079,-0.044 -2.2078,-0.074 -2.2036,-0.073 -2.2079,-0.1495 -2.2459,-0.1829 -2.2443,-0.2195 -2.2417,-0.2694 -2.2444,-0.2988 -2.2458,-0.3367 -2.2782,-0.41 -2.2826,-0.4157 -2.2825,-0.4818 -2.2827,-0.489 -2.3161,-0.5564 -2.3205,-0.5972 -2.2446,-0.5609 -2.2415,-0.5635 -2.2077,-0.5243 -2.1333,-0.4845 -2.0921,-0.4525 -2.0587,-0.407 -2.0203,-0.4114 -1.9795,-0.3396 -1.9473,-0.3367 -1.8711,-0.3397 -1.8302,-0.2988 -1.7977,-0.2621 -1.7556,-0.2196 -1.6838,-0.2239 -1.6808,-0.2284 -1.5739,-0.183 -1.5681,-0.1494 -1.5358,-0.1493 -1.4568,-0.1494 -1.4231,-0.1173 -1.3454,-0.1174 -1.3075,-0.073 -1.2738,-0.074 -1.2328,-0.074 -1.1632,-0.044 -1.1198,-0.044 -1.0833,-0.029 -1.0119,-0.044 -0.9347,0 -0.9336,-0.029 -0.8597,0 -0.7882,0 -0.7485,0 -0.7088,0 -0.6347,0 -0.6758,-0.044 -0.7847,0 -0.9347,0 -1.0822,-0.044 -1.2005,-0.044 -1.3076,-0.074 -1.4596,-0.073 -1.5696,-0.074 -1.6852,-0.1023 -1.792,-0.1174 -1.9092,-0.1464 -2.022,-0.1537 -2.1287,-0.1786 -2.2444,-0.2285 -2.3572,-0.2239 -2.429,-0.2578 -2.5431,-0.2693 -2.6194,-0.3281 -2.7305,-0.3439 -2.8052,-0.3279 -2.918,-0.4188 -2.9545,-0.4158 -3.0672,-0.4817 -3.1802,-0.4891 -3.2151,-0.5182 -3.2913,-0.5988 -3.366,-0.5974 -3.4406,-0.6428 -3.4787,-0.6646 -3.59,-0.7511 -3.59,-0.7466 -3.7012,-0.8259 -3.7437,-0.8594 -3.7758,-0.9004 -3.8521,-0.9706 -3.8521,-0.9342 -3.9252,-0.896 -3.8932,-0.8638 -3.9266,-0.8595 -3.9632,-0.7848 -3.9254,-0.7422 -4.0057,-0.713 -3.9633,-0.7189 -3.9634,-0.6266 -4,-0.6061 -4.0056,-0.5564 -3.9634,-0.5227 -4.0014,-0.4846 -3.9999,-0.4524 -4.0058,-0.4158 -3.9633,-0.328 -3.9634,-0.344 -3.9632,-0.2534 -3.9677,-0.2283 -3.9252,-0.1831 -3.9269,-0.1523 -3.9253,-0.074 -3.893,-0.044 -3.8521,0 -3.8505,0.044 -3.8154,0.1034 -3.814,0.1464 -3.7802,0.2284 -3.7394,0.2241 -3.7013,0.2986 -3.6645,0.3735 -3.6648,0.4068 -3.5899,0.4525 -3.5534,0.5271 -3.5196,0.5563 -3.5153,0.5974 -3.5154,0.5606 -3.5519,0.5638 -3.5152,0.5271 -3.5521,0.4817 -3.5532,0.4524 -3.552,0.407 -3.5534,0.4187 -3.5196,0.328 -3.552,0.3368 -3.5153,0.2987 -3.5152,0.2985 -3.5154,0.2285 -3.4771,0.224 -3.4407,0.1904 -3.4406,0.1537 -3.4407,0.1034 -3.366,0.1174 -3.3659,0.029 -3.3323,0.044 -3.2913,0 -3.2912,-0.044 -3.2167,-0.074 -3.1786,-0.1034 -3.1419,-0.1174 -3.104,-0.1464 -3.0292,-0.1874 -3.0262,-0.2197 -2.9181,-0.2738 -2.9164,-0.2986 -2.8068,-0.3324 -2.8051,-0.3353 -2.6925,-0.3747 -2.6573,-0.4099 -2.5813,-0.4862 -2.7261,-0.4816 -3.0674,-0.4935 -3.3658,-0.527 -3.7057,-0.5227 -3.9632,-0.5198 -4.2621,-0.5637 -4.4538,-0.5227 -4.71,-0.5607 -4.94,-0.5271 -5.1212,-0.5564 -5.2739,-0.5227 -5.4244,-0.5563 -5.5694,-0.5271 -5.6866,-0.5271 -5.7978,-0.5225 -5.8725,-0.5272 -5.9092,-0.4816 -5.9472,-0.4891 -5.9807,-0.4436 -5.9853,-0.4525 -5.9838,-0.4493 -5.9106,-0.4145 -5.909,-0.407 -5.7978,-0.3352 -5.7232,-0.3748 -5.6075,-0.2987 -5.4612,-0.2988 -5.3497,-0.2649 -5.1596,-0.2621 -4.975,-0.1904 -4.7861,-0.1829 -4.527,-0.1023 -4.3382,-0.1174 -4.038,-0.029 -3.7788,-0.044 -3.852,0.074 -4.224,0.1494 -4.565,0.262 -4.9354,0.3822 -5.2006,0.4436 -5.4976,0.5637 -5.7569,0.5944 -5.9852,0.7174 -6.2078,0.7467 -6.3586,0.7891 -6.5079,0.8506 -6.6192,0.9005 -6.6939,0.9341 -6.7729,0.9795 -6.8446,0.9707 -6.8066,1.0088 -6.8052,1.0043 -6.8067,1.0542 -6.6938,1.0044 -6.5826,1.0088 -6.5078,0.9706 -6.3206,0.9795 -6.1711,0.9341 -5.9473,0.9003 -5.7232,0.8507 -5.4626,0.7892 -5.1579,0.7467 -4.8637,0.7144 -4.5622,0.593 -4.1536,0.5681 -3.7774,0.448 -3.3646,0.3749 -2.8813,0.2605 -2.4319,0.1538 -1.9414,0.073 -1.7979,0 -1.9048,-0.044 -2.0951,0 -2.2079,-0.029 -2.3542,-0.044 -2.4685,-0.029 -2.6193,-0.044 -2.6939,-0.074 -2.8419,-0.1174 -2.9178,-0.074 -2.9928,-0.1023 -3.1418,-0.1174 -3.1786,-0.1538 -3.2533,-0.1536 -3.3659,-0.1831 -3.4041,-0.1904 -3.4406,-0.2239 -3.5153,-0.2196 -3.5519,-0.2621 -3.59,-0.265 -3.628,-0.2943 -3.6647,-0.3411 -3.7055,-0.3324 -3.6647,-0.3733 -3.7013,-0.4069 -3.7027,-0.4189 -3.7013,-0.4523 -3.6646,-0.4818 -3.6691,-0.5182 -3.6645,-0.5271 -3.59,-0.5974 -3.5899,-0.6061 -3.5155,-0.6354 -3.4785,-0.6721 -3.4393,-0.7057 -3.6645,-0.6764 -4.2299,-0.6764 -4.7481,-0.5563 -5.2752,-0.5271 -5.7232,-0.4437 -6.133,-0.4069 -6.5446,-0.3442 -6.9192,-0.2913 -7.2547,-0.2357 -7.5577,-0.2197 -7.7773,-0.1492 -8.0422,-0.1174 -8.2634,-0.074 -8.3791,-0.074 -8.562,0 -8.6412,0 -8.7157,0.044 -8.7145,0.074 -8.7494,0.074 -8.7158,0.074 -8.6396,0.1034 -8.5283,0.1174 -8.4128,0.1464 -8.2677,0.1537 -8.0395,0.1173 -7.8563,0.1538 -7.5533,0.1537 -7.2547,0.1023 -6.9222,0.1173 -6.5826,0.1023 -6.1711,0.1174 -5.7554,0.074 -5.2752,0.074 -4.8271,0.029 -4.2621,0 -3.9266,-0.029 -3.814,-0.074 -3.7055,-0.1493 -3.6267,-0.1904 -3.5153,-0.2239 -3.4041,-0.2914 -3.3278,-0.344 -3.2547,-0.3734 -3.1785,-0.4524 -3.1039,-0.4818 -3.0307,-0.527 -2.9546,-0.5518 -2.918,-0.6473 -2.8418,-0.631 -2.8052,-0.7101 -2.7643,-0.7423 -2.732,-0.7891 -2.6925,-0.8258 -2.6558,-0.855 -2.6194,-0.8668 -2.6557,-0.9296 -2.5783,-0.9795 -2.6179,-0.9663 -2.5811,-1.0469 -2.6193,-1.0541 -2.5813,-1.079 -2.6193,-1.1244 -2.6148,-1.1246 -2.656,-1.1536 -2.6939,-1.1963 -2.6923,-1.2356 -2.7307,-1.2328 -2.8066,-1.2708 -2.8419,-1.2694 -2.8769,-1.3163 -2.8799,-1.344 -2.8799,-1.3118 -2.8813,-1.3074 -2.8419,-1.2738 -2.8051,-1.2694 -2.8068,-1.2709 -2.8051,-1.2327 -2.7687,-1.1948 -2.7627,-1.237 -2.732,-1.2036 -2.7306,-1.1536 -2.7306,-1.1538 -2.7304,-1.1699 -2.694,-1.117 -2.6939,-1.0791 -2.6515,-1.0952 -2.694,-1.0834 -2.6559,-1.0409 -2.6559,-1.0512 -2.6559,-1.0073 -2.6557,-1.0087 -2.6151,-1.0133 -2.6557,-0.9297 -2.6193,-0.9794 -2.6559,-0.9341 -2.6193,-0.8961 -2.6192,-0.9003 -2.6515,-0.8595 -2.6193,-0.855 -2.6178,-0.8258 -2.6559,-0.8257 -2.6193,-0.7804 -2.656,-0.7877 -2.6528,-0.7437 -2.6559,-0.7174 -2.6177,-0.8185 -2.6194,-0.9707 -2.6193,-1.1244 -2.5387,-1.2709 -2.5445,-1.3894 -2.5446,-1.5314 -2.5065,-1.6442 -2.47,-1.7218 -2.464,-1.8345 -2.3954,-1.9385 -2.4318,-2.0248 -2.3573,-2.0878 -2.3526,-2.1787 -2.3207,-2.2034 -2.319,-2.3207 -2.2826,-2.3161 -2.2415,-2.3484 -2.2079,-2.4319 -2.208,-2.4407 -2.1668,-2.4318 -2.1698,-2.4656 -2.0965,-2.4319 -2.0923,-2.4611 -2.0585,-2.4319 -2.0585,-2.4362 -1.9795,-2.3909 -1.9839,-2.3235 -1.9838,-2.3118 -1.9048,-2.2869 -1.9091,-2.1655 -1.8669,-2.1332 -1.8344,-2.0965 -1.8302,-1.9429 -1.7773,-1.9048 -1.7599,-1.7965 -1.7935,-1.7963 -1.7965,-1.8683 -1.7935,-1.9429 -1.833,-2.0292 -1.8683,-2.0542 -1.8726,-2.0921 -1.8711,-2.1699 -1.8681,-2.2034 -1.9079,-2.2415 -1.868,-2.2869 -1.9093,-2.2871 -1.9091,-2.3117 -1.8683,-2.3528 -1.9077,-2.3235 -1.8681,-2.3572 -1.8711,-2.3498 -1.8727,-2.3236 -1.8667,-2.3573 -1.8345,-2.2796 -1.8301,-2.3235 -1.798,-2.2415 -1.7554,-2.2489 -1.7598,-2.2035 -1.7217,-2.1331 -1.719,-2.0922 -1.6851,-2.0542 -1.6062,-1.9882 -1.6091,-1.9385 -1.5695,-1.8331 -1.5358,-1.7979 -1.4934,-1.6851 -1.4202,-1.6427 -1.423,-1.4948 -1.3441,-1.4276 -1.3118,-1.3396 -1.2328,-1.3455 -1.2371,-1.5359 -1.1948,-1.6764 -1.2327,-1.8345 -1.1625,-1.9502 -1.1581,-2.0922 -1.1566,-2.1697 -1.126,-2.2869 -1.082,-2.35 -1.0834,-2.4319 -1.0513,-2.4685 -1.0453,-2.5036 -0.9708,-2.5855 -0.975,-2.5432 -0.9341,-2.5739 -0.8961,-2.5856 -0.8637,-2.5432 -0.8596,-2.5489 -0.7831,-2.4568 -0.7481,-2.4318 -0.7512,-2.3616 -0.6722,-2.2869 -0.6353,-2.2035 -0.5973,-2.0922 -0.5226,-1.9458 -0.5226,-1.8681 -0.4524,-1.6852 -0.4114,-1.5272 -0.3352,-1.3938 -0.3368,-1.1917 -0.2241,-1.0044 -0.224,-0.8257 -0.1493,-0.6018 -0.075,-0.3354 -0.039,-0.1494 1.9795,-23.2586 3.483,-11.4127 0.075,0.036 0.1494,0.1873 0.2988,0.2197 0.4099,0.3821 0.486,0.407 0.5974,0.5272 0.672,0.6353 0.7893,0.672 0.8212,0.7087 0.9341,0.8272 0.9708,0.896 1.0512,0.8962 1.082,0.9706 1.1258,1.0541 1.1947,1.0425 1.2327,1.1244 1.2373,1.1244 1.2693,1.1537 1.3075,1.2006 1.3117,1.1947 1.3441,1.2327 1.3119,1.1992 1.3074,1.2327 1.3119,1.2329 1.3059,1.2371 1.271,1.1947 1.237,1.1991 1.2314,1.1537 1.158,1.158 1.1245,1.1245 1.0833,1.0835 1.0499,1.0496 0.9721,0.975 0.8595,0.968 0.858,0.8961 0.789,0.9457 0.8962,1.0425 0.9721,1.1991 1.0116,1.3074 1.0469,1.4524 1.0817,1.5401 1.1626,1.6063 1.1581,1.6808 1.2328,1.7964 1.2372,1.8388 1.2313,1.8595 1.2708,1.9502 1.2738,1.9428 1.2693,1.9794 1.2752,2.0249 1.2329,1.9839 1.2693,1.9794 1.1991,1.943 1.2328,1.9457 1.1625,1.9092 1.1199,1.8345 1.0834,1.7935 1.0498,1.7263 1.0088,1.6017 0.9341,1.5738 0.8622,1.4597 0.8229,1.3075 0.7087,1.2328 0.6735,1.079 0.5592,0.9428 0.4525,0.8169 0.373,0.6428 0.2987,0.445 0.1493,0.2987 0.076,0.1113 10.8812,-5.9426 -0.038,-0.1198 -0.1859,-0.3324 -0.2988,-0.4818 -0.4115,-0.7175 -0.486,-0.8887 -0.6338,-1.0541 -0.6765,-1.1991 -0.7847,-1.3484 -0.896,-1.4524 -0.9341,-1.6061 -1.0132,-1.6895 -1.0834,-1.8345 -1.1566,-1.9005 -1.2006,-1.9429 -1.2329,-2.0584 -1.3103,-2.0996 -1.3455,-2.1669 -1.3484,-2.1653 -1.4188,-2.2503 -1.4201,-2.2079 -1.4231,-2.2415 -1.4569,-2.2035 -1.4611,-2.2034 -1.4567,-2.1787 -1.4613,-2.1214 -1.4567,-2.0995 -1.4232,-2.0205 -1.4185,-1.9429 -1.3822,-1.8682 -1.3865,-1.7598 -1.3075,-1.6808 -1.3118,-1.5314 -1.2328,-1.4232 -1.1946,-1.3075 -1.1245,-1.1244 -1.1581,-1.1288 -1.2372,-1.1581 -1.2328,-1.1991 -1.3073,-1.2328 -1.3852,-1.262 -1.382,-1.2781 -1.4246,-1.3441 -1.4187,-1.3484 -1.4978,-1.3455 -1.4568,-1.3529 -1.4993,-1.3777 -1.4933,-1.3456 -1.4978,-1.385 -1.4567,-1.3455 -1.4569,-1.3529 -1.4611,-1.303 -1.4202,-1.3074 -1.4231,-1.2781 -1.3441,-1.2327 -1.3117,-1.1992 -1.2694,-1.1537 -1.2328,-1.079 -1.1626,-1.0543 -1.1199,-1.0043 -1.0088,-0.9341 -0.9751,-0.8712 -0.8973,-0.8169 -0.7832,-0.71 -0.7102,-0.6354 -0.6396,-0.5609 -0.5227,-0.4522 -0.41,-0.3734 -0.2987,-0.265 -0.1874,-0.1785 -0.075,-0.045 -0.1493,-0.1833 -0.4862,-0.527 -0.7876,-0.7802 -1.0834,-1.1245 -1.3075,-1.3865 -1.6105,-1.6427 -1.8302,-1.8682 -2.0585,-2.0585 -2.2459,-2.2869 -2.4319,-2.4232 -2.5768,-2.6148 -2.7686,-2.7392 -2.88,-2.839 -2.9925,-2.9136 -3.1039,-2.9955 -3.1786,-3.0307 -3.2545,-3.1082 -3.2913,-3.0584 -3.3276,-3.1128 -3.366,-3.0291 -3.3659,-2.9884 -3.328,-2.9178 -3.2913,-2.839 -3.2166,-2.7349 -3.1786,-2.6104 -3.1053,-2.4319 -2.9911,-2.2869 -2.8814,-2.0586 -2.7306,-1.8712 -2.5812,-1.6397 -2.3953,-1.3821 -2.2401,-1.1245 -2.0219,-0.7802 -1.7963,-0.5272 -1.5696,-0.1903 -1.4187,0.037 -1.3485,0.038 -1.3074,0.07 -1.2737,0.075 -1.1963,0.1198 -1.1581,0.154 -1.1243,0.145 -1.1201,0.1873 -1.0498,0.2196 -1.0468,0.2241 -1.0454,0.2664 -0.9708,0.2607 -1.0131,0.2986 -0.9707,0.3031 -1.0087,0.2986 -0.9752,0.3325 -1.0088,0.3732 -0.9706,0.3732 -1.0131,0.382 -1.0455,0.369 -1.0467,0.4114 -1.0864,0.4147 -1.0835,0.445 -1.1582,0.41 -1.1625,0.4521 -1.2326,0.4479 -1.2359,0.4528 -1.3454,0.4817 -1.344,0.4524 -1.4247,0.4773 -1.4934,0.4902 -1.5723,0.4936 -1.6062,0.4774 -1.7232,0.4931 -1.7921,0.4819 -1.8343,0.5601 -1.9473,0.71 -1.9794,0.8215 -2.0587,1.0161 -2.1697,1.0791 -2.205,1.2371 -2.2444,1.344 -2.3572,1.4948 -2.3529,1.5725 -2.4698,1.6852 -2.47,1.7891 -2.5432,1.8755 -2.6193,1.9795 -2.6148,2.0585 -2.6559,2.1669 -2.7305,2.2034 -2.7306,2.3236 -2.7686,2.3615 -2.8051,2.4657 -2.8053,2.4611 -2.8389,2.5856 -2.8814,2.5855 -2.8798,2.6516 -2.8799,2.6939 -2.9179,2.7305 -2.8799,2.7642 -2.9179,2.8053 -2.9181,2.8023 -2.9164,2.8505 -2.918,2.839 -2.8799,2.8389 -2.8813,2.8798 -2.8755,2.8477 -2.8432,2.8755 -2.8419,2.8477 -2.732,2.7598 -2.4684,2.6559 -2.246,2.5066 -2.0161,2.4025 -1.7599,2.2708 -1.606,2.1743 -1.3865,2.0629 -1.1947,1.9384 -1.0468,1.8711 -0.8624,1.7598 -0.7102,1.6809 -0.5606,1.606 -0.41,1.5316 -0.3001,1.4611 -0.186,1.3865 -0.075,1.3075 0,1.2694 0.1113,1.2327 0.1875,1.1991 0.2621,1.1244 0.2985,1.1172 0.3354,1.0907 0.3733,1.0426 0.4114,1.0497 0.448,1.0542 0.4524,1 0.4114,1.0132 0.41,1.0159 0.4114,1.0425 0.3734,1.0454 0.2986,1.0542 0.2621,1.0789 0.224,1.1244 0.1113,1.1626 0.039,1.1535 0.075,1.2284 0.186,1.2035 0.303,1.2329 0.4114,1.2328 0.5227,1.1991 0.6354,1.2326 0.7101,1.2328 0.7834,1.2328 0.9018,1.2329 0.9707,1.2444 1.0835,1.2282 1.1244,1.2784 1.158,1.2327 1.2738,1.2327 1.2693,1.2695 1.3455,1.2327 1.4231,1.2372 1.4201,1.2708 1.4598,1.2694 1.4948,1.2327 1.5359,1.2694 1.5314,1.2371 1.5343,1.2783 1.5696,1.2239 1.5725,1.2783 1.5315,1.2707 1.5738,1.2357 1.5315,1.271 1.4978,1.2693 1.4933,1.2327 1.4948,1.2782 1.4232,1.2284 1.3821,1.2781 1.3484,1.2328 1.3075,1.2708 1.2737,1.3074 1.1962,1.3148 1.1581,1.3777 1.1244,1.4158 1.0453,1.4641 1.0089,1.4568 0.9751,1.5358 0.934,1.5697 0.8215,1.5679 0.8214,1.6514 0.7143,1.6398 0.7102,1.6809 0.5974,1.7261 0.5606,1.7555 0.4846,1.798 0.4159,1.7965 0.3352,1.8345 0.2987,1.8681 0.1875,1.9049 0.1492,1.9047 0.075,1.9545 -0.037,1.9385 -0.075,1.9795 -0.1874,2.0205 -0.2621,2.0176 -0.3352,2.0248 -0.4158,2.0922 -0.5227,2.0584 -0.5974,2.0996 -0.672,2.1215 -0.7846,2.1332 -0.864,2.1332 -0.9708,2.1742 -1.0454,2.1624 -1.1991,2.1743 -1.1961,2.0877 -1.2693,1.9517 -1.2738,1.7964 -1.3455,1.6428 -1.3119,1.5357 -1.3441,1.4202 -1.3864,1.2694 -1.3441,1.1626 -1.3821,1.0453 -1.3865,0.9706 -1.344,0.8273 -1.3865,0.7878 -1.3456,0.6265 -1.3074,0.6062 -1.3103,0.4772 -1.3075,0.4232 -1.2372,0.3689 -1.2327,0.262 -1.1947,0.2197 -1.1625,0.192 -1.0834,0.1161 -1.0499,0.075 -1.0087,0.07 -0.9341,0 -0.896,-0.037 -0.8257,-0.033 -0.7467,-0.045 -0.6722,-0.075 -0.5987,-0.07 -0.5227,-0.1174 -0.4522,-0.075 -0.3354,-0.075 -0.2619,-0.032 -0.1495,-0.039 -0.036,0 -1.3074,0.262 -1.2005,0.1903 -1.1948,0.075 -1.0834,-0.045 -1.0864,-0.1078 -0.9721,-0.2283 -0.9706,-0.2988 -0.9006,-0.3732 -0.8212,-0.4435 -0.8228,-0.5271 -0.7468,-0.5974 -0.713,-0.6735 -0.6735,-0.7056 -0.5974,-0.7542 -0.5608,-0.7892 -0.5592,-0.8549 -0.486,-0.8595 -0.4524,-0.9341 -0.4114,-0.937 -0.41,-0.9679 -0.3367,-0.9793 -0.2987,-0.975 -0.2987,-1.0044 -0.2621,-1.0088 -0.224,-0.9707 -0.186,-1.0131 -0.1873,-0.9706 -0.1494,-0.9751 -0.1162,-0.9341 -0.1137,-0.896 -0.075,-0.9006 -0.037,-0.8213 -0.039,-0.8183 -0.037,-0.7556 0,-0.7056 -0.075,-0.7508 -0.1493,-0.7848 -0.2621,-0.858 -0.3353,-0.9006 -0.4494,-0.9723 -0.5594,-1.0043 -0.5973,-1.0907 -0.7146,-1.0878 -0.7466,-1.1156 -0.8594,-1.1626 -0.8961,-1.1946 -0.9751,-1.1963 -1.0087,-1.237 -1.0468,-1.2315 -1.1245,-1.2372 -1.1947,-1.2326 -1.1967,-1.23 -1.2356,-1.2329 -1.2709,-1.2328 -1.2737,-1.1991 -1.3076,-1.1946 -1.344,-1.1961 -1.3499,-1.1201 -1.344,-1.1244 -1.3483,-1.0877 -1.3456,-1.0088 -1.3485,-1.0044 -1.344,-0.937 -1.3075,-0.8591 -1.3118,-0.8305 -1.3074,-0.7759 -1.2372,-0.6809 -1.2328,-0.6267 -1.1947,-0.5724 -1.1245,-0.4433 -1.1581,-0.4158 -1.1946,-0.448 -1.2752,-0.4437 -1.306,-0.4451 -1.3865,-0.489 -1.3822,-0.527 -1.4611,-0.5608 -1.4568,-0.602 -1.4978,-0.6676 -1.5315,-0.7103 -1.5738,-0.8256 -1.6062,-0.8596 -1.5723,-0.9749 -1.6429,-1.0835 -1.6105,-1.1537 -1.6441,-1.2783 -1.6471,-1.382 -1.6443,-1.5316 -1.647,-1.6514 -1.6443,-1.7891 -1.6089,-1.9502 -1.6442,-2.0877 -1.5725,-2.249 -1.6061,-2.4274 -1.5738,-2.6194 -1.5316,-2.764 -1.4977,-2.9971 -1.4569,-3.1831 -1.4611,-3.4025 -1.382,-3.59 -1.3807,-3.814 -1.3119,-4.0716 -1.2709,-4.3044 -1.1991,-4.527 -1.158,-4.7848 -1.0089,-4.931 -0.7876,-4.7978 -0.5227,-4.7101 -0.3733,-4.6354 -0.1494,-4.5284 0.075,-4.4069 0.2242,-4.3381 0.4098,-4.2284 0.5651,-4.1463 0.7102,-4.013 0.896,-3.918 1.0088,-3.8184 1.161,-3.7012 1.2708,-3.5944 1.385,-3.4743 1.4569,-3.4113 1.6105,-3.2489 1.6441,-3.1463 1.7598,-3.0263 1.7921,-2.8798 1.8727,-2.8054 1.9413,-2.6514 1.9473,-2.549 1.9838,-2.3865 2.0161,-2.3235 2.0586,-2.1287 2.0219,-2.063 2.0161,-1.9048 2.0219,-1.7599 2.0175,-1.6398 1.9458,-1.4978 1.9458,-1.3455 1.8681,-1.24 1.8346,-1.0791 1.7553,-0.9341 1.7219,-0.9006 1.6808,-0.934 1.6485,-0.9341 1.6062,-1.0162 1.5725,-1.0424 1.5695,-1.0453 1.4978,-1.1244 1.4933,-1.1172 1.4611,-1.1611 1.4568,-1.1625 1.4232,-1.2328 1.4202,-1.2328 1.3864,-1.2371 1.3441,-1.3031 1.382,-1.3191 1.3485,-1.3031 1.3075,-1.3455 1.3484,-1.3851 1.3074,-1.3454 1.3119,-1.4232 1.3074,-1.4157 1.344,-1.4232 1.312,-1.4275 1.3073,-1.4611 1.3118,-1.4567 1.3441,-1.4526 1.3455,-1.461 1.3484,-1.4979 1.3441,-1.4933 1.3865,-1.4539 1.3821,-1.4977 1.423,-1.4979 1.4202,-1.4992 1.4232,-1.4934 1.4949,-1.4975 1.5724,-1.4949 1.7555,-1.6471 1.9457,-1.7599 2.0922,-1.8301 2.2459,-1.9429 2.4319,-2.0248 2.5066,-2.0585 2.6149,-2.1289 2.7305,-2.1625 2.8052,-2.2487 2.8432,-2.2504 2.9181,-2.2782 2.9545,-2.2781 2.9926,-2.2869 2.9912,-2.2738 2.956,-2.2503 2.9546,-2.2414 2.9546,-2.1699 2.8768,-2.1331 2.8053,-2.0922 2.7305,-2.0162 2.6193,-1.9883 2.5432,-1.8344 2.4319,-1.7848 2.2796,-1.6515 2.133,-1.5695 1.9459,-1.4275 1.7936,-1.303 1.6105,-1.1244 1.3806,-1.009 1.158,-0.8593 0.9384,-0.6721 0.7101,-0.4817 0.41,-0.2986 0.1494,-0.1198 0.075,0 0.1492,-0.079 0.3,-0.1078 0.41,-0.186 0.527,-0.1875 0.6355,-0.2195 0.7101,-0.2987 0.8215,-0.3074 0.9004,-0.2987 0.9707,-0.3734 1.0469,-0.3733 1.1244,-0.369 1.1946,-0.4113 1.2709,-0.4525 1.3105,-0.4069 1.382,-0.4523 1.4245,-0.4481 1.4568,-0.4524 1.4978,-0.4435 1.5681,-0.407 1.5358,-0.4569 1.6062,-0.407 1.6105,-0.4186 1.606,-0.4071 1.6471,-0.3734 1.6442,-0.3352 1.6472,-0.3369 1.6441,-0.2985 1.6105,-0.262 1.6061,-0.2284 1.6091,-0.2242 1.5314,-0.1449 1.574,-0.1198 1.4934,-0.075 1.4611,-0.033 1.4187,0 1.3821,0.033 1.3118,0.041 1.2329,0.079 1.1625,0.075 1.1201,0.07 1.0834,0.1078 0.975,0.075 0.9707,0.1537 0.8976,0.1162 0.8213,0.1078 0.7892,0.1494 0.7466,0.1538 0.7086,0.1448 0.6355,0.1538 0.6017,0.1903 0.561,0.1464 0.5224,0.145 0.4861,0.1538 0.41,0.145 0.4116,0.1903 0.3367,0.154 0.3397,0.1449 0.2988,0.1078 0.2621,0.1537 0.2239,0.1125 0.1859,0.1067 0.1494,0.1174 0.1493,0.1113 0.1125,0.079 0.1113,0.075 0.039,0.07 0.075,0.038 0,0 0.039,0.036 221.189,119.1193 6.1711,-10.6528 -0.5271,-0.2621 -1.5314,-0.8257 -2.4698,-1.3075 -3.3281,-1.7963 -4.1872,-2.2036 -4.9017,-2.6237 -5.6443,-3.0219 -6.2838,-3.3279 -6.8477,-3.6646 -7.3659,-3.9384 -7.8153,-4.183 -8.2297,-4.3748 -8.5284,-4.5987 -8.8607,-4.7187 -9.0145,-4.8184 -9.2019,-4.9428 -9.3117,-4.972 -9.3131,-5.0176 -9.2764,-4.9721 -9.2385,-4.9383 -9.0512,-4.852 -8.827,-4.7891 -8.5621,-4.6031 -8.2678,-4.4524 -7.8519,-4.2663 -7.3703,-4.0015 -6.8813,-3.7392 -6.3205,-3.4363 -5.6865,-3.1039 -4.972,-2.773 -4.1874,-2.3147 -3.4026,-1.9518 -2.5447,-1.4523 -1.5724,-0.971 -0.5989,-0.407 -0.2239,-0.4978 -0.2239,-0.4817 -0.2241,-0.448 -0.2606,-0.4526 -0.2239,-0.4069 -0.2622,-0.4071 -0.2239,-0.4187 -0.2651,-0.3732 -0.2621,-0.3777 -0.224,-0.3733 -0.262,-0.3368 -0.2607,-0.328 -0.2986,-0.3441 -0.2625,-0.2986 -0.2985,-0.2987 -0.2622,-0.2621 -0.3352,-0.2532 -0.2987,-0.274 -0.303,-0.2196 -0.3369,-0.2284 -0.3352,-0.224 -0.3368,-0.183 -0.3733,-0.1449 -0.3367,-0.1903 -0.41,-0.1538 -0.3747,-0.145 -0.41,-0.1173 -0.4158,-0.1067 -0.448,-0.075 -0.41,-0.072 -0.4861,-0.075 -0.448,-0.045 -0.4861,-0.034 -0.5227,-0.036 -0.5271,0 -1.0835,-0.039 -1.1576,-0.145 -1.1612,-0.1903 -1.2327,-0.262 -1.2328,-0.3441 -1.2737,-0.4026 -1.2709,-0.4905 -1.3119,-0.5226 -1.344,-0.5637 -1.3483,-0.6354 -1.3456,-0.6721 -1.3441,-0.751 -1.3865,-0.7438 -1.382,-0.7832 -1.3866,-0.8685 -1.3441,-0.855 -1.3863,-0.89598 -1.3441,-0.9004 -1.3455,-0.934 -1.3485,-0.9341 -1.3075,-0.9708 -1.3117,-0.9794 -1.2694,-0.9634 -1.2328,-0.9708 -1.2373,-0.9794 -1.1566,-0.9341 -1.1624,-0.9708 -1.1216,-0.934 -1.0817,-0.9341 -1.0133,-0.9006 -1.0087,-0.8579 -0.934,-0.8638 -0.8962,-0.8259 -0.8257,-0.7437 -0.7466,-0.7423 -0.8596,-0.7554 -1.087,-0.7466 -1.2694,-0.7511 -1.4948,-0.7803 -1.6838,-0.7805 -1.8726,-0.8344 -2.0161,-0.817 -2.2093,-0.8212 -2.319,-0.8638 -2.4275,-0.8551 -2.5447,-0.8596 -2.6558,-0.9002 -2.7306,-0.9007 -2.8067,-0.9295 -2.8417,-0.9006 -2.9181,-0.934 -2.9136,-0.9341 -2.9545,-0.9707 -2.9559,-0.9341 -2.9166,-0.9795 -2.9179,-0.9752 -2.8799,-0.9662 -2.8067,-1.0175 -2.7671,-1.0001 -2.6939,-0.9795 -2.5813,-1.0043 -2.4655,-1.0088 -2.3572,-1.0541 -2.2444,-1.0044 -2.0922,-1.0088 -1.9093,-1.0496 -1.7598,-1.0455 -1.568,-1.0088 -1.3456,-1.0496 -1.1624,-1.0454 -1.0455,-1.126 -1.0878,-1.2693 -1.1566,-1.4231 -1.1963,-1.5696 -1.237,-1.7262 -1.2694,-1.8594 -1.2694,-1.9501 -1.35,-2.0584 -1.344,-2.1669 -1.3864,-2.2446 -1.3822,-2.3206 -1.4231,-2.3572 -1.4187,-2.4318 -1.4202,-2.4247 -1.4231,-2.5064 -1.4202,-2.4773 -1.423,-2.4978 -1.3822,-2.508 -1.3864,-2.4685 -1.3822,-2.4655 -1.3485,-2.3953 -1.3439,-2.3527 -1.3075,-2.2871 -1.2738,-2.2487 -1.2327,-2.1215 -1.1624,-2.0616 -1.1582,-1.9062 -1.1201,-1.8301 -1.0498,-1.6881 -0.9721,-1.5696 -0.9327,-1.4275 -0.8594,-1.2327 -0.8256,-1.041 -0.7101,-0.9006 -0.6721,-0.7144 -0.5973,-0.6267 -0.6399,-0.6807 -0.6721,-0.672 -0.672,-0.7511 -0.71,-0.7847 -0.7467,-0.8214 -0.7511,-0.8184 -0.7847,-0.9004 -0.7849,-0.9341 -0.8213,-0.9327 -0.8257,-1.0174 -0.8228,-1.0412 -0.858,-1.0876 -0.8975,-1.1538 -0.8623,-1.1625 -0.8975,-1.1991 -0.8961,-1.2693 -0.9004,-1.3119 -0.9341,-1.344 -0.8959,-1.3792 -0.9342,-1.4231 -0.9371,-1.5022 -0.8973,-1.5314 -0.9342,-1.5681 -0.937,-1.6061 -0.896,-1.6895 -0.9341,-1.7145 -0.9006,-1.7598 -0.8974,-1.8302 -0.896,-1.8711 -0.896,-1.94284 -0.8638,-1.98386 -0.8594,-2.02484 -0.8581,-2.08782 -0.8594,-2.13319 -0.9004,-2.21226 -1.0834,-2.27813 -1.1947,-2.28692 -1.3119,-2.34842 -1.4567,-2.39527 -1.5358,-2.43188 -1.6061,-2.46554 -1.7219,-2.50653 -1.7935,-2.51094 -1.8345,-2.54021 -1.9093,-2.54314 -1.9047,-2.57828 -1.9838,-2.58121 -1.9795,-2.58121 -2.0205,-2.5856 -1.9839,-2.61048 -2.0175,-2.58561 -1.9458,-2.54022 -1.9472,-2.58559 -1.9048,-2.54022 -1.8711,-2.54313 -1.7935,-2.46556 -1.7218,-2.50653 -1.6442,-2.43187 -1.5725,-2.43187 -1.4568,-2.3572 -1.3484,-2.32061 -1.1962,-2.27813 -1.1199,-2.24153 -0.9385,-2.21226 -0.8215,-2.08781 -0.6354,-2.09951 -0.448,-1.98387 -0.2987,-1.9414 -0.1125,-1.87257 0.075,-1.79207 0.1494,-1.83451 0.2255,-1.83012 0.3353,-1.83452 0.4479,-1.86819 0.4861,-1.83452 0.5974,-1.87112 0.672,-1.8682 0.7511,-1.83012 0.7847,-1.86819 0.8595,-1.84184 0.9341,-1.83451 0.975,-1.82574 1.0088,-1.83891 1.0835,-1.78913 1.1244,-1.79645 1.1199,-1.75985 1.1991,-1.75984 1.1963,-1.71446 1.2694,-1.72618 1.2372,-1.68518 1.2694,-1.6354 1.3117,-1.61344 1.2694,-1.60612 1.3074,-1.56951 1.3119,-1.49777 1.2694,-1.49485 1.2753,-1.4641 1.2693,-1.37771 1.2694,-1.34991 1.2371,-1.34404 1.1962,-1.23278 1.1566,-1.23277 1.1625,-1.16103 1.0835,-1.12603 1.1991,-1.08344 1.3455,-1.04083 1.4934,-1.01609 1.6852,-0.97216 1.7963,-0.97084 1.9429,-0.90481 2.0205,-0.8931 2.1303,-0.82136 2.2444,-0.82576 2.3206,-0.78051 2.3571,-0.74669 2.391,-0.71448 2.4684,-0.67188 2.4699,-0.63834 2.5066,-0.63543 2.5065,-0.56089 2.4656,-0.56354 2.4684,-0.51536 2.4334,-0.489 2.3572,-0.4568 2.3148,-0.44377 2.2079,-0.37028 2.1712,-0.37334 2.0176,-0.34406 1.9458,-0.29868 1.7964,-0.29868 1.6808,-0.21669 1.5358,-0.22693 1.3455,-0.19165 1.1946,-0.15388 1.0133,-0.10681 0.7832,-0.11277 0.5989,-0.0747 0.3353,-0.0337 0.1125,0 132.5493,0 -0.039,0.0337 0,0.1874 0,0.26062 -0.037,0.37334 0,0.48609 -0.039,0.56353 -0.037,0.67348 -0.039,0.7423 -0.037,0.79208 -0.039,0.89749 -0.037,0.9341 -0.038,1.04976 -0.075,1.04537 -0.037,1.12443 -0.075,1.15371 -0.038,1.23277 -0.039,1.23277 -0.075,1.27816 -0.037,1.30744 -0.075,1.30744 -0.039,1.35283 -0.037,1.34112 -0.075,1.34404 -0.039,1.35283 -0.037,1.34551 -0.039,1.31036 -0.036,1.30745 -0.038,1.30744 -0.037,1.27084 -0.039,1.23569 0,1.19618 -0.036,1.16102 0,1.11712 -0.039,1.08782 0,1.00731 -0.1161,0.93408 -0.3367,0.9341 -0.5974,0.94143 -0.7848,0.86381 -0.9706,0.85079 -1.1626,0.86382 -1.3821,0.81697 -1.5343,0.79646 -1.6808,0.78037 -1.8345,0.74815 -1.9795,0.7423 -2.0967,0.75108 -2.2458,0.71741 -2.3148,0.74377 -2.4319,0.71009 -2.5064,0.67934 -2.6193,0.70569 -2.656,0.67349 -2.7305,0.70863 -2.7642,0.67641 -2.8068,0.67217 -2.8051,0.70994 -2.8433,0.67216 -2.8799,0.71449 -2.8432,0.67202 -2.8053,0.70569 -2.8052,0.75548 -2.7687,0.7057 -2.7261,0.74669 -2.6557,0.75108 -2.6194,0.74669 -2.5065,0.78915 -2.4318,0.77597 -2.3164,0.83015 -2.2444,0.85943 -2.0965,0.81697 -1.8668,0.86382 -1.7599,0.86234 -1.5313,0.85929 -1.3866,0.85503 -1.2327,0.87129 -1.0834,0.85929 -0.9371,0.85503 -0.8229,0.85943 -0.6721,0.86382 -0.5607,0.89602 -0.4523,0.89164 -0.3733,0.90482 -0.2605,0.90041 -0.1494,0.88871 -0.075,0.94142 0,0.93848 0.037,0.92531 0.1125,0.9341 0.1859,0.97085 0.2241,0.97933 0.2238,0.97217 0.3033,1.01183 0.2986,1.00863 0.3001,1.00876 0.2986,1.04976 0.3352,1.08343 0.2987,1.04976 0.2988,1.0789 0.262,1.12882 0.224,1.11711 0.1875,1.12003 0.1493,1.1625 0.1113,1.19031 0.039,1.20789 0.186,1.30305 0.527,1.53144 0.8228,1.72618 1.1566,1.90479 1.4613,2.05853 1.6808,2.16248 1.9472,2.36598 2.1331,2.45676 2.3529,2.55192 2.5447,2.64856 2.6924,2.73055 2.8433,2.76861 2.9546,2.8506 3.0306,2.83889 3.1039,2.88428 3.1785,2.86817 3.18,2.88428 3.2153,2.83889 3.18,2.77594 3.1786,2.76861 3.1039,2.65148 3.0307,2.58561 2.9545,2.49482 2.8008,2.3572 2.6939,2.24886 2.5446,2.09659 2.3573,1.94285 2.1654,1.7584 1.9472,1.56951 1.6852,1.38211 1.4188,1.1625 1.158,0.89603 0.8639,0.67201 0.5224,0.4524 0.186,0.1128 0.1874,0.078 0.5607,0.183 0.896,0.2622 1.2372,0.41 1.5681,0.486 1.8344,0.6018 2.0966,0.672 2.3149,0.7511 2.5811,0.8184 2.7687,0.8961 2.9545,0.975 3.1096,1.0502 3.2533,1.0791 3.4026,1.1625 3.4406,1.1581 3.5533,1.2283 3.6266,1.2782 3.6281,1.2694 3.669,1.3162 3.6647,1.344 3.6265,1.3412 3.5901,1.3528 3.5152,1.3411 3.4406,1.3441 3.2913,1.3528 3.1786,1.3074 3.0672,1.3031 2.8433,1.3074 2.6925,1.2372 2.4319,1.1947 2.2415,1.1625 1.9839,1.1244 1.6852,1.0791 1.382,1.0088 1.0834,0.9414 0.9752,0.8972 1.1199,0.8919 1.2329,0.8258 1.3483,0.8594 1.4949,0.7921 1.5724,0.7801 1.6808,0.7894 1.7599,0.7508 1.8682,0.7467 1.9837,0.7438 2.0205,0.7174 2.0922,0.7057 2.2079,0.7056 2.2445,0.7175 2.2825,0.7015 2.3543,0.7145 2.3938,0.6718 2.4319,0.7513 2.4698,0.7101 2.4657,0.7174 2.5065,0.7438 2.5446,0.7423 2.5431,0.7467 2.5446,0.7892 2.5402,0.7876 2.5431,0.7892 2.5067,0.8506 2.5079,0.8302 2.5066,0.896 2.4274,0.9006 2.4319,0.9341 2.3953,0.9721 2.3191,0.9663 2.2782,1.0542 2.2077,1.0454 2.2461,1.158 2.3162,1.2327 2.4318,1.3528 2.5065,1.4158 2.6193,1.4978 2.656,1.6062 2.6895,1.6514 2.767,1.7145 2.8434,1.7964 2.8433,1.8682 2.918,1.9048 2.9164,1.9547 2.9181,1.9765 2.9544,2.0205 2.956,2.054 2.9165,2.0586 2.9561,2.0965 2.9134,2.0952 2.88,2.1332 2.8432,2.0877 2.8053,2.104 2.7672,2.0834 2.7318,2.0996 2.6179,2.0219 2.5813,2.0174 2.5036,2.0204 2.4319,1.9386 2.3191,1.9165 2.205,1.8345 2.1331,1.7847 2.0205,1.7263 1.8682,1.6852 1.7598,1.5694 1.6062,1.5271 1.4976,1.4231 1.4935,1.4245 1.7233,1.4231 1.9091,1.4978 2.1289,1.4861 2.2444,1.4977 2.4319,1.5358 2.5402,1.5316 2.6939,1.5314 2.7687,1.5358 2.8798,1.5315 2.918,1.5431 2.9911,1.4906 3.0672,1.4978 3.0674,1.4948 3.1039,1.4232 3.0672,1.4186 3.0674,1.3866 3.0292,1.3411 2.9926,1.31168 2.918,1.2694 2.8432,1.2036 2.7627,1.1536 2.6575,1.0878 2.5064,1.0412 2.394,0.9838 2.2048,0.896 2.0571,0.7804 1.8726,0.7467 1.6806,0.6809 1.4613,0.5607 1.2328,0.4435 0.9707,0.3734 0.7146,0.2621 0.4479,0.1903 0.1493,0.029 5.6852,-1.224 0.044,0.034 0,0.037 0.029,0.075 0.044,0.079 0.044,0.1078 0.044,0.145 0.044,0.1903 0.074,0.183 0.074,0.2241 0.073,0.2284 0.074,0.262 0.074,0.2648 0.074,0.2988 0.074,0.2986 0.074,0.3369 0.074,0.3367 0.074,0.3353 0.074,0.3734 0.074,0.3776 0.073,0.4027 0.029,0.3778 0.074,0.407 0.044,0.423 0.074,0.4437 0.029,0.407 0,0.4523 0.044,0.4481 0,0.4525 0,0.445 0,0.4526 0,0.4435 -0.044,0.4523 -0.073,0.4437 -0.029,0.448 -0.074,0.4522 0,0.561 -0.1495,0.6716 -0.3367,0.8639 -0.4479,0.971 -0.6018,1.0876 -0.7467,1.1902 -0.8594,1.3485 -1.0089,1.4201 -1.0877,1.5023 -1.158,1.6061 -1.2694,1.6807 -1.3484,1.7233 -1.4202,1.7877 -1.4611,1.8389 -1.5315,1.8711 -1.5343,1.9385 -1.6063,1.9091 -1.5737,1.984 -1.6429,1.9472 -1.6105,1.9458 -1.606,1.9428 -1.5726,1.9414 -1.5694,1.9137 -1.4978,1.8711 -1.4948,1.7891 -1.3851,1.7979 -1.3455,1.6837 -1.2694,1.6398 -1.199,1.5812 -1.0834,1.4524 -1.0133,1.3864 -0.8594,1.2694 -0.7466,1.1919 -0.6355,1.0497 -0.4847,0.9005 -0.4115,0.8256 -0.4141,0.7804 -0.3749,0.7891 -0.3732,0.7426 -0.3352,0.7555 -0.3368,0.7057 -0.3353,0.7175 -0.3001,0.7056 -0.2987,0.6734 -0.2986,0.7088 -0.2649,0.6804 -0.2622,0.6677 -0.2241,0.6736 -0.2239,0.6722 -0.224,0.6721 -0.1874,0.6806 -0.186,0.6723 -0.1493,0.7056 -0.1875,0.7057 -0.1173,0.7174 -0.1494,0.7438 -0.1174,0.7467 -0.1173,0.7509 -0.074,0.7806 -0.1174,0.8257 -0.029,0.8258 -0.074,0.855 -0.044,0.8593 -0.029,0.9458 0,0.9341 -0.044,0.9706 0.044,1.0088 0,1.0499 0.029,1.079 0.044,1.1244 0,0.9341 0.029,0.9341 0.074,1.0088 0.074,1.0161 0.1174,1.0088 0.1173,1.047 0.1494,1.0408 0.1493,1.05 0.1874,1.0876 0.186,1.0791 0.1875,1.0454 0.1873,1.0875 0.2241,1.0455 0.2239,1.0498 0.224,1.0542 0.2241,1.0088 0.2283,1.0044 0.2606,0.9751 0.224,0.934 0.2241,0.8961 0.2255,0.8975 0.2239,0.8258 0.2242,0.8169 0.186,0.7509 0.1873,0.7103 0.186,0.6428 0.1875,0.5899 0.1493,0.5638 0.1493,0.4816 0.1174,0.4159 0.1174,0.3351 0.074,0.2621 0.074,0.2196 0.044,0.1198 0,0.033 10.9222,-5.4538 -0.029,-0.045 -0.044,-0.1078 -0.073,-0.2241 -0.074,-0.2649 -0.1174,-0.3734 -0.1174,-0.4523 -0.1493,-0.5199 -0.1493,-0.5592 -0.1861,-0.672 -0.1916,-0.7146 -0.1862,-0.7466 -0.1873,-0.8214 -0.2241,-0.8931 -0.1873,-0.9458 -0.2242,-1.0043 -0.186,-1.0091 -0.1873,-1.079 -0.1859,-1.1333 -0.1875,-1.1874 -0.1861,-1.1991 -0.1494,-1.2328 -0.1507,-1.278 -0.1173,-1.2738 -0.1174,-1.3412 -0.1174,-1.3441 -0.074,-1.3864 -0.044,-1.3821 0,-1.3851 0,-1.4246 0.074,-1.4523 0.074,-1.4231 0.1174,-1.4656 0.1493,-1.4113 0.1874,-1.4686 0.224,-1.4523 0.2607,-1.1172 0.3367,-1.1991 0.41,-1.2328 0.5241,-1.2783 0.5636,-1.344 0.672,-1.3411 0.7103,-1.4275 0.7467,-1.4187 0.8638,-1.4203 0.8592,-1.461 0.8961,-1.4598 0.9708,-1.4568 0.9751,-1.4656 0.9722,-1.4523 1.0453,-1.4231 1.0132,-1.4245 1.0087,-1.4143 1.0454,-1.3456 1.0117,-1.3484 1.0088,-1.3074 0.9722,-1.2328 0.937,-1.1991 0.9341,-1.1626 0.896,-1.079 0.8228,-1.016 0.7877,-0.9341 0.7101,-0.8595 0.6722,-0.7847 0.5974,-0.7174 0.5224,-0.5974 0.4526,-0.5154 0.3368,-0.4188 0.262,-0.2986 0.1861,-0.1829 0.044,-0.037 0.044,-0.033 0.1174,-0.1198 0.1493,-0.145 0.2607,-0.1917 0.262,-0.2534 0.3733,-0.3441 0.3733,-0.3733 0.448,-0.4071 0.4906,-0.489 0.5225,-0.5241 0.561,-0.5635 0.6337,-0.5903 0.5988,-0.6792 0.6764,-0.6736 0.6721,-0.7509 0.6721,-0.7467 0.7102,-0.8259 0.7467,-0.814 0.7144,-0.9005 0.7467,-0.8959 0.7467,-0.9385 0.7101,-0.9342 0.7131,-0.9706 0.7481,-1.0117 0.6722,-1.0468 0.7085,-1.0498 0.6354,-1.0454 0.6398,-1.0878 0.634,-1.0834 0.5607,-1.1245 0.5607,-1.1127 0.4846,-1.1244 0.486,-1.1288 0.416,-1.1581 0.3353,-1.1156 0.1174,-0.3821 0.1174,-0.4072 0.074,-0.448 0.074,-0.4861 0.073,-0.5635 0.074,-0.5564 0.074,-0.6062 0.074,-0.6267 0.044,-0.6353 0.029,-0.6721 0.044,-0.6764 0.029,-0.7102 0.044,-0.6721 0.029,-0.7174 0.044,-0.7437 0,-0.7129 0.029,-0.7103 0,-0.6719 0.044,-0.7057 0,-0.6809 0,-0.6355 0,-0.6383 0,-0.593 0,-0.5944 0.029,-0.568 -0.029,-0.4818 0,-0.4889 0,-0.4114 0,-0.4069 0,-0.3443 0,-0.2576 0,-0.2241 0,-0.183 0,-0.079 0,-0.036 0,-57.96958 -0.044,-1.6851 -0.1861,-1.6061 -0.2239,-1.5359 -0.3733,-1.5315 -0.4482,-1.4611 -0.527,-1.4231 -0.5987,-1.3455 -0.7087,-1.3441 -0.7481,-1.3117 -0.858,-1.2738 -0.9004,-1.2328 -0.9722,-1.1991 -1.0454,-1.1582 -1.0878,-1.1991 -1.158,-1.1172 -1.1947,-1.1243 -1.237,-1.1245 -1.2696,-1.1172 -1.3483,-1.079 -1.3456,-1.0908 -1.3865,-1.0877 -1.4187,-1.0791 -1.4202,-1.1244 -1.4596,-1.079 -1.4949,-1.1244 -1.4611,-1.1246 -1.4935,-1.1623 -1.4976,-1.1538 -1.495,-1.2035 -1.4978,-1.1919 -1.4567,-1.2327 -1.4978,-1.2694 -1.4567,-1.3074 -1.4246,-1.3528 -1.4187,-1.3865 -1.4202,-1.4524 -1.4979,-1.5315 -1.606,-1.6895 -1.6471,-1.7511 -1.7555,-1.8799 -1.798,-1.9385 -1.8344,-2.0585 -1.9048,-2.0996 -1.9458,-2.158 -1.9794,-2.2123 -2.0219,-2.2869 -2.0587,-2.3148 -2.0908,-2.3206 -2.0584,-2.3864 -2.1332,-2.3953 -2.0922,-2.3982 -2.0966,-2.3909 -2.0951,-2.3982 -2.0922,-2.3952 -2.0951,-2.3528 -2.0586,-2.3572 -2.0174,-2.3119 -1.9839,-2.2532 -1.9458,-2.2005 -1.9048,-2.1698 -1.8345,-2.0629 -1.7936,-2.0088 -1.7598,-1.9546 -1.6427,-1.8345 -1.6106,-1.75542 -1.4947,-1.64272 -1.4231,-1.53145 -1.3441,-1.42018 -1.2372,-1.27815 -1.12,-1.15373 -1.0469,-1.15795 -0.9003,-1.27376 -0.7467,-1.42311 -0.6356,-1.49484 -0.5227,-1.60612 -0.3732,-1.68078 -0.2623,-1.75986 -0.1492,-1.87551 -0.074,-1.90918 0.074,-1.97507 0.1492,-2.05853 0.2256,-2.06291 0.3352,-2.12148 0.4115,-2.17858 0.5226,-2.16541 0.5608,-2.20933 0.6339,-2.24007 0.7146,-2.21225 0.7846,-2.20348 0.8213,-2.24153 0.8959,-2.17126 0.9387,-2.20347 0.9706,-2.1288 1.0089,-2.09952 1.0495,-2.05853 1.0835,-2.01313 1.1201,-1.95019 1.1245,-1.90918 1.1214,-1.79352 1.1611,-1.75986 1.1961,-1.64271 1.1581,-1.53585 1.1611,-1.46117 1.158,-1.34844 1.1582,-1.22838 1.1991,-1.15824 1.3456,-1.23277 1.4611,-1.30744 1.568,-1.38651 1.6471,-1.41871 1.7569,-1.46117 1.833,-1.49777 1.9064,-1.53146 2.0204,-1.6149 2.0205,-1.60612 2.0921,-1.64272 2.1714,-1.63979 2.1697,-1.68956 2.2034,-1.6764 2.246,-1.72618 2.2445,-1.72177 2.2796,-1.68226 2.2444,-1.72178 2.246,-1.71446 2.2445,-1.68811 2.2048,-1.68517 2.17,-1.6442 2.133,-1.60611 2.0542,-1.60612 2.0219,-1.57684 1.9839,-1.52705 1.8667,-1.49777 1.8346,-1.46117 1.7187,-1.38651 1.6105,-1.34405 1.5301,-1.31182 1.3865,-1.22838 1.3074,-1.15796 1.158,-1.08344 1.0131,-1.01183 1.0454,-1.01741 1.1202,-1.08344 1.2005,-1.1947 1.3075,-1.23717 1.3485,-1.33964 1.4186,-1.3909 1.4993,-1.4114 1.5313,-1.50655 1.5726,-1.52706 1.6426,-1.57683 1.6487,-1.56073 1.6428,-1.6149 1.685,-1.64273 1.6808,-1.6149 1.6852,-1.63979 1.6808,-1.60905 1.6852,-1.60318 1.606,-1.57245 1.6106,-1.53145 1.5681,-1.53584 1.4992,-1.46117 1.4934,-1.37772 1.3865,-1.35282 1.344,-1.30305 1.2329,-1.1991 1.1991,-1.12443 1.0467,-1.04244 1.0073,-0.94581 0.8638,-0.85503 0.7467,-0.70571 0.6355,-0.64273 0.5227,-0.48154 0.3732,-0.38228 0.2285,-0.18301 0.073,-0.0703 210.3033,0 0,0.0337 0.044,0.21961 0,0.34407 0.029,0.49061 0.044,0.55636 0.074,0.71288 0.044,0.7805 0.044,0.90043 0.029,1.00876 0.044,1.04961 0.029,1.16251 0.044,1.18738 0,1.31475 0,1.30745 -0.044,1.38211 -0.029,1.42456 -0.044,1.45971 -0.1174,1.49485 -0.1173,1.49778 -0.1174,1.53144 -0.1875,1.52706 -0.1857,1.54024 -0.2309,1.49616 -0.3032,1.48606 -0.3001,1.50217 -0.3353,1.45677 -0.4114,1.42751 -0.448,1.37771 -0.4861,1.35283 -0.5227,1.26645 -0.6017,1.23716 -0.6339,1.11564 -0.6734,1.08784 -0.7832,0.97069 -0.823,0.90043 -0.8621,0.82575 -0.9342,0.81404 -1.0088,0.79208 -1.0498,0.74375 -1.0834,0.71302 -1.1581,0.71009 -1.1991,0.67203 -1.2694,0.63541 -1.2752,0.64274 -1.344,0.59003 -1.3821,0.56369 -1.3867,0.56074 -1.4567,0.49047 -1.4597,0.48902 -1.4949,0.48169 -1.5359,0.44362 -1.568,0.41141 -1.5739,0.37774 -1.6061,0.37334 -1.6091,0.33674 -1.6061,0.33528 -1.6486,0.29868 -1.6427,0.26208 -1.6852,0.265 -1.6442,0.22839 -1.6852,0.22402 -1.6808,0.14494 -1.6836,0.18301 -1.6442,0.11713 -1.6852,0.15226 -1.6426,0.0747 -1.6487,0.0717 -1.6426,0.0747 -1.6105,0 -1.6063,0.0366 -1.6852,0 -1.8711,0 -2.0555,0.0337 -2.2078,0.0453 -2.394,0.0747 -2.5064,0.0337 -2.653,0.0747 -2.8052,0.11568 -2.8433,0.10824 -2.9911,0.11132 -3.0308,0.15388 -3.1038,0.15373 -3.1421,0.18169 -3.1785,0.19033 -3.2165,0.17862 -3.2167,0.2284 -3.2167,0.26501 -3.1785,0.26207 -3.142,0.25329 -3.1419,0.29868 -3.0292,0.34406 -2.9926,0.32796 -2.88,0.33675 -2.8052,0.38212 -2.6558,0.40995 -2.5402,0.45241 -2.3953,0.44508 -2.2825,0.44362 -2.0541,0.48902 -1.9093,0.52707 -1.7217,0.56061 -1.4949,0.55636 -1.2693,0.59735 -1.0499,0.59734 -0.7847,0.68096 -0.6354,0.63543 -0.6721,0.71008 -0.6763,0.71302 -0.6723,0.74669 -0.6721,0.74376 -0.6734,0.78768 -0.6721,0.78037 -0.6764,0.78916 -0.6721,0.78767 -0.6721,0.81829 -0.6353,0.78769 -0.64,0.81843 -0.6338,0.78769 -0.6355,0.789 -0.5973,0.78051 -0.5973,0.79208 -0.5609,0.74377 -0.5651,0.75122 -0.5593,0.71009 -0.4861,0.70862 -0.5224,0.63103 -0.4481,0.68081 -0.4481,0.60175 -0.4158,0.55195 -0.4098,0.56515 -0.3368,0.48901 -0.3367,0.44363 -0.2987,0.45225 -0.2606,0.33674 -0.2239,0.33675 -0.1875,0.26061 -0.1494,0.2284 -0.1173,0.14495 -0.029,0.10835 -0.044,0 -1.4978,9.91488 -12.6045,27.00532 0.1875,0.14495 0.6017,0.37774 0.971,0.63542 1.3074,0.86235 1.6472,1.08343 1.9808,1.26645 2.208,1.46118 2.5064,1.6881 2.7672,1.78913 2.956,1.95018 3.1786,2.1332 3.3279,2.20494 3.5153,2.31913 3.628,2.43186 3.7392,2.54022 3.8507,2.58121 3.9312,2.65587 3.9252,2.69395 4.0014,2.68516 4.0014,2.77593 3.9677,2.72322 3.9253,2.73056 3.8885,2.73933 3.7774,2.68519 3.7013,2.6148 3.5944,2.5856 3.4025,2.5022 3.2546,2.3996 3.0674,2.3192 2.8755,2.2078 2.6193,2.0586 2.3572,1.9384 2.095,1.7555 1.7936,1.6105 1.4978,1.4641 1.382,1.4114 1.4972,1.6903 1.6061,1.9048 1.6852,2.1332 1.7555,2.3235 1.8345,2.5036 1.9047,2.6471 1.984,2.8433 2.0584,2.9546 2.0542,3.0673 2.1331,3.1873 2.1714,3.2825 2.2034,3.366 2.2079,3.4113 2.2078,3.4407 2.2416,3.5109 2.2444,3.5196 2.246,3.4772 2.2459,3.5198 2.2035,3.4362 2.1698,3.4407 2.1713,3.3658 2.1287,3.2577 2.0585,3.2122 2.0205,3.1009 1.9794,2.959 1.9093,2.8389 1.8316,2.6969 1.7584,2.5109 1.6441,2.3499 1.5725,2.1332 1.4949,1.9502 1.3849,1.7144 1.2328,1.4612 1.1626,1.2313 1.1198,1.1172 1.1215,1.199 1.1991,1.2329 1.1946,1.3162 1.233,1.3074 1.2372,1.385 1.2694,1.4158 1.3117,1.4612 1.3456,1.4641 1.3483,1.5314 1.3823,1.4904 1.4187,1.5769 1.4246,1.5315 1.4933,1.5695 1.4978,1.5723 1.4948,1.6019 1.5725,1.5812 1.5695,1.5607 1.609,1.5768 1.6062,1.5271 1.6852,1.5402 1.6808,1.4978 1.7232,1.4905 1.7174,1.4568 1.7599,1.41858 1.7978,1.3866 1.8302,1.3528 1.871,1.3073 1.8682,1.2695 1.9092,1.1962 1.9415,1.1625 1.9472,1.0863 1.9838,1.0087 2.0161,0.9709 2.0586,0.8549 2.1712,0.8258 2.5021,0.6808 2.7686,0.5974 3.0674,0.4817 3.2897,0.4068 3.5535,0.3442 3.8183,0.2534 3.9999,0.1918 4.1888,0.1113 4.4158,0.034 4.5606,0 4.7525,-0.034 4.8959,-0.075 5.0512,-0.1536 5.1214,-0.145 5.2751,-0.1538 5.3865,-0.2197 5.42,-0.183 5.5373,-0.224 5.5738,-0.2284 5.6104,-0.224 5.6076,-0.2285 5.6851,-0.1815 5.6485,-0.1916 5.6485,-0.145 5.6485,-0.1078 5.5695,-0.079 5.5372,-0.041 5.461,0 5.3834,0.075 5.3118,0.1538 5.1626,0.1903 5.0847,0.2534 4.9383,0.3368 4.7848,0.4186 4.117,0.4438 4.0762,0.527 4.0379,0.5607 3.9632,0.6017 3.9298,0.6677 3.8886,0.7101 3.814,0.7056 3.7774,0.7936 3.7027,0.7877 3.6675,0.8184 3.59,0.858 3.5154,0.9003 3.4786,0.8596 3.4027,0.9341 3.3278,0.9004 3.2547,0.9341 3.1785,0.8959 3.1039,0.9341 3.0307,0.9386 2.9546,0.8959 2.8799,0.9006 2.8066,0.8959 2.6924,0.8551 2.6531,0.8594 2.5066,0.8258 2.4684,0.7891 2.3572,0.7467 2.2415,0.7057 2.1714,0.7175 2.095,0.6265 1.9795,0.5726 1.8726,0.5606 1.7598,0.4817 1.6808,0.4437 1.5344,0.3821 0.6353,0.5183 0.672,0.5606 0.7103,0.5652 0.7099,0.5593 0.7877,0.5607 0.7848,0.5928 0.8216,0.6062 0.8228,0.6018 0.8624,0.631 0.8959,0.6018 0.8975,0.6266 0.937,0.5974 0.9341,0.6442 0.9707,0.6338 0.9722,0.6019 1.0117,0.6309 1.0088,0.6354 1.0087,0.602 1.0498,0.6353 1.0088,0.5973 1.0454,0.6354 1.0511,0.5974 1.082,0.6017 1.0469,0.5594 1.0495,0.6019 1.0835,0.5605 1.0454,0.5522 1.0498,0.5271 1.0835,0.5271 1.0452,0.5271 1.0513,0.5182 1.0073,0.4861 1.0468,0.448 1.0117,0.4525 1.0088,0.445 1.2708,0.489 1.2738,0.527 1.2327,0.4817 1.2357,0.4891 1.2708,0.445 1.2328,0.4892 1.2358,0.4479 1.1962,0.4525 1.2371,0.4452 1.2313,0.4142 1.1963,0.4437 1.199,0.407 1.2327,0.4187 1.1947,0.3661 1.2007,0.4187 1.2313,0.3777 1.2007,0.3731 1.1946,0.3691 1.2329,0.3748 1.1988,0.3689 1.2328,0.3398 1.1993,0.3322 1.2327,0.3442 1.2328,0.3367 1.2369,0.2986 1.2329,0.3368 1.2328,0.2987 1.2738,0.2987 1.2327,0.2943 1.2737,0.2988 1.2694,0.2619 1.2711,0.2988 1.3102,0.2649 1.3075,0.2621 1.3118,0.2651 1.2691,0.2619 1.271,0.2607 1.2737,0.2576 1.2329,0.2329 1.2373,0.2533 1.2328,0.2651 1.2327,0.2618 1.2358,0.2197 1.2326,0.2694 1.2372,0.2576 1.2694,0.224 1.2708,0.2284 1.2738,0.2621 1.3073,0.2196 1.3119,0.2242 1.344,0.1904 1.3822,0.2282 1.423,0.1787 1.4201,0.1948 1.498,0.183 1.4935,0.1875 1.5736,0.1904 1.6064,0.1448 1.6469,0.154 1.6808,0.1448 1.7598,0.1078 1.8302,0.1198 1.8726,0.1078 1.9457,0.07 2.0176,0.1198 2.0585,0.029 2.1333,0.079 2.24,0.045 2.2825,0 2.3953,0.029 0,-0.029 0,-0.1238 0,-0.1067 0,-0.1873 -0.047,-0.262 0,-0.2607 0,-0.3367 0,-0.3353 0,-0.4158 0,-0.4027 0,-0.4524 -0.035,-0.489 0,-0.4904 0,-0.4818 0,-0.5226 0,-0.5271 0,-0.5563 0,-0.5271 0,-0.5227 0,-0.5271 0,-0.5182 0,-0.5272 0.035,-0.4818 0,-0.4862 0,-0.4479 0.047,-0.4523 0,-0.4099 0.024,-0.3704 0,-0.2987 0.046,-0.2986 0.047,-0.265 0,-0.2285 0.035,-0.1493 0.047,-0.1078 0.024,-0.041 -0.07,0 -0.2623,-0.033 -0.4476,0 -0.602,-0.036 -0.7459,-0.039 -0.8599,-0.034 -1.0459,-0.087 -1.162,-0.07 -1.3074,-0.078 -1.3851,-0.075 -1.5316,-0.1078 -1.6105,-0.1078 -1.7188,-0.1198 -1.8344,-0.1449 -1.8669,-0.1538 -1.9838,-0.145 -2.022,-0.1832 -2.0906,-0.1536 -2.1714,-0.2242 -2.1697,-0.1903 -2.2416,-0.2196 -2.2824,-0.2241 -2.2825,-0.2665 -2.3163,-0.224 -2.3204,-0.2987 -2.3574,-0.2577 -2.319,-0.2987 -2.3162,-0.3442 -2.2826,-0.2913 -2.2825,-0.344 -2.2459,-0.3732 -2.2035,-0.3734 -2.1699,-0.3689 -2.0965,-0.4159 -2.0541,-0.41 -2.6559,-0.5985 -2.6194,-0.6341 -2.5429,-0.71 -2.5404,-0.7057 -2.4318,-0.7555 -2.4318,-0.7805 -2.3588,-0.8258 -2.2781,-0.8593 -2.2444,-0.8624 -2.2079,-0.8638 -2.0966,-0.8962 -2.0541,-0.8885 -1.9839,-0.9005 -1.9048,-0.9049 -1.8711,-0.8915 -1.7599,-0.8976 -1.6808,-0.9003 -1.6484,-0.858 -1.5316,-0.8638 -1.4612,-0.8257 -1.344,-0.8186 -1.3074,-0.7423 -1.1991,-0.751 -1.1201,-0.7102 -1.0087,-0.6721 -0.9385,-0.6354 -0.8214,-0.5681 -0.7466,-0.5182 -0.6355,-0.4904 -0.5271,-0.407 -0.4114,-0.3397 -0.3353,-0.2986 -0.2241,-0.1875 -0.1173,-0.145 0.044,-0.075 0.5227,-0.3367 0.5226,-0.3777 0.5271,-0.3732 0.5226,-0.3733 0.5228,-0.3778 0.486,-0.3734 0.4861,-0.3732 0.448,-0.3733 0.489,-0.3777 0.4481,-0.3733 0.448,-0.3689 0.4494,-0.3413 0.4482,-0.3777 0.4099,-0.328 0.4494,-0.344 0.4146,-0.328 0.4111,-0.3368 0.41,-0.2986 0.4115,-0.2986 0.4113,-0.2988 0.41,-0.265 0.4114,-0.262 0.41,-0.2605 0.3777,-0.2284 0.4114,-0.2241 0.4114,-0.2212 0.3733,-0.1903 0.4099,-0.1538 0.4113,-0.145 0.4116,-0.1078 0.41,-0.1198 0.4158,-0.075 0.4099,-0.07 0.4114,-0.038 0.4114,0 0.5973,-0.07 0.5975,-0.2284 0.6017,-0.3322 0.6353,-0.4482 0.5974,-0.568 0.6355,-0.6721 0.5973,-0.7892 0.6355,-0.8549 0.6383,-0.9341 0.6355,-1.0496 0.6339,-1.1203 0.6354,-1.1623 0.6354,-1.2329 0.6384,-1.2693 0.6734,-1.3163 0.6339,-1.3396 0.6354,-1.4245 0.6764,-1.3822 0.6354,-1.4232 0.6721,-1.4523 0.6354,-1.4231 0.6722,-1.4612 0.6759,-1.4157 0.635,-1.3894 0.6722,-1.3866 0.6723,-1.3455 0.636,-1.30308 0.6759,-1.2356 0.6723,-1.1962 0.6722,-1.161 0.6349,-1.0468 0.6723,-1.0161 0.6771,-0.9341 0.6348,-0.8141 0.6722,-0.7175 0.6349,-0.7099 0.5973,-0.8257 0.5634,-0.8961 0.5235,-0.9707 0.485,-1.0878 0.4475,-1.1536 0.411,-1.2328 0.3736,-1.3076 0.3737,-1.3863 0.3035,-1.4276 0.2986,-1.4978 0.2987,-1.5315 0.2248,-1.5695 0.2238,-1.6061 0.1862,-1.6514 0.1873,-1.713 0.1489,-1.6896 0.1173,-1.751 0.1174,-1.76 0.1174,-1.7598 0.07,-1.7599 0.07,-1.7511 0.047,-1.7978 0.07,-1.7554 0,-1.7555 0.024,-1.7305 0.047,-1.6808 0,-1.6852 0,-1.6355 0,-1.6134 0,-1.5694 0,-1.536 -0.047,-1.4568 0,-1.4187 0,-1.3528 0,-1.3411 -0.1174,-1.3074 -0.1174,-1.3149 -0.1862,-1.341 -0.2237,-1.3074 -0.2624,-1.3075 -0.2986,-1.3148 -0.3362,-1.3074 -0.3737,-1.3074 -0.4146,-1.2782 -0.4487,-1.3074 -0.4859,-1.3075 -0.4862,-1.303 -0.5224,-1.3163 -0.5599,-1.3059 -0.5609,-1.3455 -0.6022,-1.3119 -0.5971,-1.344 -0.5975,-1.3528 -0.6349,-1.3412 -0.6348,-1.3527 -0.6384,-1.3398 -0.6348,-1.3909 -0.6361,-1.382 -0.6347,-1.4114 -0.6338,-1.3894 -0.6394,-1.4158 -0.6337,-1.4612 -0.5984,-1.4612 -0.5974,-1.4596 -0.5973,-1.4949 -0.5647,-1.5021 -0.5586,-1.5315 -0.5228,-1.5358 -0.4861,-1.5637 -0.448,-1.9092 -0.3732,-2.6236 -0.3367,-3.2459 -0.2285,-3.8916 -0.1859,-4.4084 -0.1174,-4.9472 -0.074,-5.3776 0,-5.8359 0.074,-6.2503 0.074,-6.5445 0.1875,-6.87686 0.1903,-7.11407 0.262,-7.36149 0.2988,-7.47863 0.3733,-7.67041 0.3733,-7.70264 0.4481,-7.78168 0.448,-7.7407 0.5224,-7.73923 0.527,-7.63236 0.5611,-7.48301 0.5974,-7.33368 0.6348,-7.10089 0.6359,-6.87687 0.6759,-6.55331 0.6723,-6.20486 0.7099,-5.83443 0.7461,-5.38643 0.7461,-4.90181 0.7507,-4.4084 0.7462,-3.81691 0.7848,-3.25031 0.7848,-2.58559 0.7894,-1.8682 0.7834,-1.1991 0.7849,-0.74669 0.8596,-0.78475 0.9008,-0.70863 0.9347,-0.71025 0.971,-0.71447 1.0132,-0.67202 1.0458,-0.63543 1.0835,-0.63395 1.0882,-0.59866 1.1196,-0.6019 1.1198,-0.56352 1.1619,-0.51536 1.1584,-0.52708 1.1947,-0.48901 1.1619,-0.48185 1.1948,-0.45225 1.199,-0.45241 1.1963,-0.40262 1.1946,-0.37774 1.199,-0.3732 1.1584,-0.33542 1.1584,-0.3 1.163,-0.29868 1.1199,-0.265 1.1243,-0.25328 1.0834,-0.2328 1.0472,-0.21961 1.0495,-0.15374 1.0083,-0.18315 0.9711,-0.12003 0.896,-0.10824 0.9008,-0.0703 0.8597,-0.0747 0.7848,-0.0454 0.746,0 0.7508,-0.0337 0.7099,-0.0747 0.746,-0.0703 0.7461,-0.15374 0.7145,-0.19033 0.7098,-0.21961 0.7087,-0.26208 0.7098,-0.26061 0.7097,-0.34113 0.6758,-0.29867 0.6723,-0.37336 0.6362,-0.3322 0.6335,-0.41873 0.6396,-0.36895 0.5972,-0.41141 0.5974,-0.40703 0.5611,-0.41873 0.5223,-0.40701 0.5225,-0.41435 0.5271,-0.41156 180.7168,0.0146 0.1174,0.55197 0.1174,0.66909 0.1173,0.71741 0.1174,0.78037 0.1174,0.78036 0.1173,0.87129 0.1174,0.85503 0.1488,0.89749 0.1174,0.89604 0.1485,0.93702 0.1174,0.96791 0.1173,0.9707 0.1489,0.98387 0.1173,0.96631 0.1174,0.97217 0.1174,0.97069 0.1174,0.97949 0.1173,0.92531 0.07,0.93848 0.07,0.89603 0.07,0.90057 0.07,0.85929 0.07,0.78915 0.046,0.78767 0.024,0.7467 0,0.7057 0.047,0.63542 -0.047,0.59735 -0.024,0.67641 -0.07,0.67641 -0.07,0.74377 -0.1488,0.74669 -0.1485,0.75108 -0.15,0.82576 -0.2238,0.81858 -0.2248,0.82574 -0.2601,0.81697 -0.2623,0.85928 -0.3351,0.86251 -0.2987,0.86382 -0.3782,0.85927 -0.3736,0.8625 -0.4112,0.81829 -0.4486,0.8625 -0.4474,0.82282 -0.4861,0.78315 -0.4861,0.78915 -0.527,0.75109 -0.56,0.7057 -0.5984,0.71023 -0.5973,0.63381 -0.5974,0.60175 -0.6384,0.59881 -0.6734,0.52268 -0.7087,0.48462 -0.7097,0.40702 -0.7099,0.38228 -0.7509,0.29867 -0.7847,0.25329 -0.7836,0.19912 -0.8232,0.0747 -0.8622,0.0337 -0.8597,0.0366 -0.896,0.0381 -0.9382,0.0703 -0.9711,0.12003 -1.0084,0.14495 -1.0084,0.15372 -1.0497,0.17862 -1.0445,0.22841 -1.0835,0.26207 -1.1244,0.265 -1.1209,0.29867 -1.1246,0.32797 -1.1584,0.37774 -1.1583,0.37334 -1.1608,0.41141 -1.1583,0.41435 -1.1585,0.44801 -1.162,0.48607 -1.1583,0.48184 -1.1584,0.52707 -1.1245,0.52708 -1.1583,0.56354 -1.1244,0.56075 -1.0835,0.59735 -1.1197,0.63542 -1.0494,0.62663 -1.0835,0.64275 -1.0085,0.67348 -1.0131,0.70862 -0.971,0.67349 -0.971,0.75123 -0.8961,0.70862 -0.9019,0.75109 -0.8209,0.78051 -0.8211,0.78901 -0.8211,0.74669 -0.8644,0.63117 -0.8961,0.59735 -0.9709,0.52708 -1.0133,0.448 -1.0447,0.38199 -1.121,0.29868 -1.1244,0.25343 -1.1583,0.19166 -1.1946,0.15227 -1.2373,0.10824 -1.2694,0.0747 -1.3118,0 -1.3075,-0.0366 -1.3074,-0.0382 -1.3485,-0.10824 -1.382,-0.12003 -1.3866,-0.14495 -1.382,-0.15388 -1.3866,-0.17862 -1.4186,-0.19033 -1.4202,-0.2284 -1.3852,-0.18301 -1.4201,-0.22402 -1.3864,-0.22839 -1.4188,-0.21961 -1.3865,-0.18741 -1.3821,-0.19488 -1.3484,-0.17862 -1.344,-0.15372 -1.3456,-0.14495 -1.2738,-0.12003 -1.3073,-0.0703 -1.2373,-0.0747 -1.2328,0 -1.1947,0 -1.1991,0 -1.1583,0.0366 -1.1584,0.0382 -1.1244,0.0365 -1.1197,0.0337 -1.0882,0.0747 -1.0834,0.11568 -1.046,0.0747 -1.0132,0.15388 -1.0085,0.14641 -0.9347,0.15226 -0.9708,0.183 -0.9007,0.18741 -0.8599,0.21962 -0.8597,0.265 -0.8257,0.30746 -0.7836,0.29868 -0.7484,0.32796 -0.6723,0.37774 -0.6724,0.37334 -0.6395,0.4524 -0.5974,0.44802 -0.5599,0.48184 -0.5235,0.5606 -0.4486,0.56368 -0.41,0.59882 -0.3782,0.63395 -0.3375,0.7057 -0.2986,0.71887 -0.2237,0.78769 -0.1874,0.81829 -0.15,0.81696 -0.07,0.94156 0,0.9341 0,1.00861 0.07,1.08798 0.15,1.11564 0.1874,1.23277 0.2237,1.28256 0.2624,1.34112 0.335,1.4231 0.3784,1.41872 0.4111,1.49484 0.4485,1.53584 0.4861,1.56805 0.5225,1.60611 0.5585,1.65151 0.6022,1.63979 0.6347,1.68958 0.6724,1.67639 0.6735,1.68958 0.7085,1.67639 0.7509,1.6881 0.7847,1.68225 0.7847,1.68372 0.8211,1.64419 0.8645,1.6515 0.8585,1.60612 0.8598,1.60612 0.8971,1.53144 0.9371,1.49778 0.9334,1.46116 0.9348,1.41579 0.9369,1.34405 0.9348,1.31622 0.9709,1.23278 0.9769,1.16102 0.9711,1.11712 0.9708,1.01608 0.9347,1.0789 0.9008,1.31622 0.8961,1.56073 0.8233,1.76718 0.8258,1.97653 0.7847,2.16979 0.7837,2.36159 0.7483,2.50215 0.7086,2.69395 0.676,2.80522 0.6734,2.91355 0.6723,3.0629 0.6336,3.14196 0.6396,3.22102 0.5975,3.3279 0.5971,3.36597 0.5987,3.40255 0.5599,3.4406 0.5609,3.4831 0.5635,3.4729 0.561,3.486 0.5224,3.4362 0.561,3.4407 0.5225,3.3659 0.5224,3.3294 0.5644,3.2488 0.5225,3.1829 0.5609,3.0673 0.5588,2.959 0.561,2.8389 0.5635,2.6939 0.5609,2.5768 0.5974,2.3953 0.5986,2.2079 0.5973,2.0204 0.5598,1.9429 0.5645,1.9048 0.4862,1.8711 0.4849,1.8682 0.4487,1.8799 0.4473,1.8594 0.4111,1.8389 0.4112,1.8711 0.3783,1.8301 0.4099,1.8345 0.3736,1.8347 0.3748,1.8681 0.41,1.8667 0.4112,1.8681 0.4098,1.8712 0.4498,1.9136 0.4522,1.9048 0.4848,1.9429 0.5225,1.9794 0.561,1.9838 0.5974,1.9794 0.6348,2.0587 0.676,2.0585 0.7096,2.1331 0.7837,2.1333 0.8233,2.1669 0.9007,2.2444 0.971,2.287 1.046,2.3117 1.0881,2.3571 1.1964,2.3954 1.2311,2.4685 1.3499,2.5401 1.4188,2.5857 1.5358,2.6514 1.4934,2.4319 1.574,2.3954 1.6427,2.3116 1.6486,2.287 1.7553,2.2034 1.7598,2.1333 1.8301,2.0966 1.8348,2.0205 1.871,1.9794 1.9047,1.9048 1.9092,1.8345 1.9431,1.7979 1.9455,1.7584 1.9473,1.68518 1.9413,1.606 1.9474,1.5697 1.9459,1.5358 1.9046,1.4597 1.8728,1.4158 1.8665,1.3527 1.8348,1.3076 1.7933,1.2693 1.7598,1.1961 1.6837,1.1625 1.6444,1.1158 1.6105,1.0541 1.4934,1.0043 1.4947,0.9341 1.385,0.9371 1.3076,0.8594 1.2006,0.8258 1.1571,0.748 1.0472,0.7424 0.9371,0.6764 0.8221,0.6398 0,0 -0.1173,0.075 -0.1174,0.077 -0.1875,0.1465 -0.2236,0.1449 -0.2987,0.1903 -0.3373,0.224 -0.3772,0.3032 -0.4485,0.2986 -0.485,0.3322 -0.561,0.4115 -0.5612,0.4187 -0.6335,0.4436 -0.7145,0.5271 -0.7097,0.5153 -0.7849,0.5637 -0.8209,0.631 -0.8622,0.6765 -0.9346,0.6764 -0.9349,0.7482 -1.0131,0.7877 -1.0447,0.8258 -1.1197,0.855 -1.1257,0.8961 -1.1947,0.9341 -1.2328,1.0088 -1.2371,1.0131 -1.3441,1.0834 -1.3484,1.12 -1.382,1.1626 -1.4202,1.1902 -1.4979,1.2416 -1.4934,1.3074 -1.5738,1.3148 -1.5681,1.3777 -1.4231,1.1917 -1.3821,1.1244 -1.3499,1.0498 -1.3441,1.0089 -1.2737,0.9341 -1.2709,0.9004 -1.2327,0.8256 -1.1991,0.7805 -1.1584,0.7511 -1.1197,0.6721 -1.1244,0.6353 -1.0472,0.5974 -1.0073,0.5652 -0.9769,0.5183 -0.9709,0.4522 -0.8959,0.4437 -0.8646,0.4159 -0.8212,0.3353 -0.7846,0.3367 -0.7087,0.2986 -0.7144,0.2987 -0.6348,0.2283 -0.5973,0.2197 -0.5611,0.2285 -0.5224,0.1492 -0.4487,0.1493 -0.4146,0.154 -0.3735,0.1078 -0.3,0.1162 -0.2599,0.075 -0.2238,0.07 -0.1488,0.075 -0.07,0.033 -0.047,0.075 0,0.045 4.2254,11.6293 0.024,0 0.15,-0.079 0.2236,-0.075 0.3409,-0.1078 0.4112,-0.145 0.4848,-0.1903 0.561,-0.2285 0.635,-0.262 0.7086,-0.2988 0.7895,-0.335 0.8596,-0.3706 0.8961,-0.4188 0.9757,-0.4433 1.0086,-0.445 1.0833,-0.5272 1.1244,-0.5636 1.1585,-0.5972 1.1946,-0.5974 1.237,-0.6736 1.2695,-0.7057 1.3119,-0.7539 1.3441,-0.7439 1.3453,-0.8256 1.3865,-0.8594 1.4187,-0.9004 1.3867,-0.9341 1.4185,-0.9752 1.4613,-1.0043 1.4201,-1.0542 1.4232,-1.0794 1.4568,-1.1624 1.4186,-1.1612 1.4247,-1.2327 1.3821,-1.2327 1.4231,-1.3076 0.6359,-0.5973 0.6723,-0.6017 0.7463,-0.6765 0.8256,-0.6646 0.8212,-0.6722 0.8971,-0.7511 0.8961,-0.7554 0.9381,-0.7422 0.9712,-0.7438 0.9708,-0.792 1.0131,-0.751 1.046,-0.7804 1.0085,-0.7805 1.0494,-0.7889 1.046,-0.7512 1.0471,-0.7467 1.0495,-0.7511 1.0085,-0.7467 1.0449,-0.7144 0.9755,-0.6722 0.9722,-0.672 0.971,-0.6354 0.937,-0.5974 0.8972,-0.5609 0.8211,-0.527 0.8211,-0.4817 0.7894,-0.4436 0.7098,-0.4188 0.6722,-0.3367 0.6339,-0.2986 0.5247,-0.2535 0.4885,-0.199 0.4484,-0.1078 0.3373,-0.041 0.2601,0 0.5986,0.1198 0.5585,0.1537 0.5987,0.1078 0.6382,0.1113 0.5974,0.1538 0.6349,0.1078 0.6359,0.1137 0.6337,0.1067 0.6396,0.1174 0.6723,0.07 0.6723,0.075 0.7098,0.1162 0.6722,0.039 0.7509,0.07 0.7097,0.041 0.7474,0.033 0.7483,0 0.7509,0 0.7835,0 0.7848,-0.033 0.8211,-0.075 0.8257,-0.036 0.8236,-0.1078 0.8585,-0.1198 0.8596,-0.142 0.8645,-0.1523 0.8961,-0.1919 0.9345,-0.183 0.9007,-0.2196 0.9711,-0.2739 0.9334,-0.2987 1.0086,-0.2987 0.9744,-0.369 1.0085,-0.3731 1.046,-0.4159 1.7979,-0.7467 1.7598,-0.7891 1.7174,-0.8507 1.6472,-0.9003 1.644,-0.9706 1.6105,-1.0177 1.5683,-1.0791 1.5356,-1.0791 1.5315,-1.1696 1.4978,-1.2328 1.4567,-1.2372 1.4992,-1.3031 1.457,-1.344 1.4186,-1.3909 1.4611,-1.4113 1.4569,-1.4641 1.4232,-1.4949 1.4566,-1.5725 1.4611,-1.5652 1.457,-1.6133 1.4976,-1.6442 1.4949,-1.7262 1.5344,-1.7145 1.5316,-1.75978 1.5737,-1.7511 1.6063,-1.8388 1.6469,-1.8346 1.6808,-1.9048 1.7235,-1.8712 1.7552,-1.9384 1.7967,-1.9546 1.8681,-1.9838 1.9093,-2.0132 1.9823,-2.0248 2.0176,-2.0541 1.9836,-1.9766 1.8302,-1.8418 1.6852,-1.7145 1.5697,-1.5768 1.4595,-1.4524 1.3821,-1.3456 1.2738,-1.24 1.1583,-1.1172 1.122,-1.0497 1.0859,-1.0087 1.0084,-0.9004 1.0085,-0.8257 0.9745,-0.7805 0.9337,-0.751 0.9708,-0.7057 0.9744,-0.6384 0.9723,-0.6691 1.0448,-0.6384 1.088,-0.5974 1.1198,-0.6353 1.1947,-0.6355 1.3119,-0.6721 1.3457,-0.6807 1.4975,-0.7058 1.6064,-0.751 1.7217,-0.8214 1.8682,-0.8593 2.0204,-0.9341 2.1712,-1.0162 2.3529,-1.117 2.5065,-1.158 2.7304,-1.3104 2.9561,-1.3865 3.142,-1.4905 3.4026,-1.6516 3.6264,-1.83 3.9267,-2.1331 4.1538,-2.3572 4.4128,-2.6149 4.6016,-2.8054 4.8227,-3.0715 4.9767,-3.2123 5.1579,-3.4407 5.2752,-3.59 5.4244,-3.7392 5.533,-3.8551 5.6104,-4.0013 5.6866,-4.1127 5.7229,-4.1917 5.7557,-4.2664 5.7977,-4.2956 5.7979,-4.3733 5.761,-4.4128 5.7233,-4.4157 5.6485,-4.4113 5.606,-4.3747 5.4991,-4.3821 5.3879,-4.3367 5.2708,-4.262 5.1243,-4.1843 4.9399,-4.0834 4.7847,-4.00139 4.5608,-3.85498 4.3408,-3.73931 4.1128,-3.58997 3.852,-3.39525 3.59,-3.25762 3.2959,-3.02922 2.988,-2.84767 2.6558,-2.57683 2.5066,-2.58559 2.6178,-2.65149 2.6575,-2.76861 2.7304,-2.83889 2.801,-2.99263 2.8052,-3.02921 2.8813,-3.14196 2.9165,-3.21664 2.956,-3.25322 2.9925,-3.32936 2.9913,-3.3733 2.9926,-3.44063 2.9927,-3.43624 2.9926,-3.47431 2.991,-3.51823 2.9562,-3.5153 2.9545,-3.51971 2.9178,-3.5109 2.8755,-3.5197 2.8433,-3.47431 2.8051,-3.48602 2.7308,-3.43625 2.6558,-3.40696 2.6192,-3.32057 2.5446,-3.33669 2.4275,-3.21224 2.3572,-3.18295 2.2827,-3.09657 2.1288,-2.99993 2.0585,-2.91356 1.9472,-2.83889 1.792,-2.73056 1.7233,-2.58559 1.5313,-2.49922 1.4232,-2.3572 1.3075,-2.24887 1.3483,-2.0878 1.3456,-1.98825 1.3441,-1.83012 1.3483,-1.68079 1.3822,-1.60612 1.3866,-1.50656 1.4186,-1.33965 1.4246,-1.31622 1.4567,-1.15372 1.4598,-1.07889 1.4947,-1.01609 1.4934,-0.9341 1.536,-0.86382 1.5696,-0.7805 1.5723,-0.75108 1.6061,-0.67202 1.6472,-0.63543 1.644,-0.59734 1.7219,-0.55636 1.7233,-0.52708 1.7554,-0.48901 1.7964,-0.49033 1.7936,-0.44362 1.8711,-0.45241 1.9049,-0.44363 1.9091,-0.49046 1.9839,-0.44802 1.0001,-0.22401 137.3472,-0.0585 -12.6834,12.49316 8.6792,8.90173 21.3098,-21.31143 17.6894,-0.025 0.1173,0.19033 0.2988,0.40702 0.2985,0.4934 0.3409,0.48169 0.3351,0.52269 0.3372,0.56074 0.3736,0.55636 0.3738,0.59736 0.411,0.60174 0.41,0.63541 0.4487,0.64275 0.452,0.67202 0.4498,0.66895 0.4486,0.71741 0.4848,0.7057 0.4861,0.71023 0.4861,0.74229 0.5224,0.75548 0.527,0.75108 0.5225,0.74669 0.5224,0.78052 0.5224,0.789 0.561,0.78051 0.5611,0.78769 -10.9192,10.88704 8.6776,8.67334 10.1346,-9.69088 0.1488,0.19165 0.1174,0.14495 0.1487,0.19033 0.1173,0.15373 0.1174,0.14494 0.1174,0.1918 0.1499,0.14495 0.1174,0.15373 0.1174,0.14494 0.1173,0.15373 0.1174,0.14495 0.1499,0.14934 0.1174,0.11713 0.1174,0.15226 0.1173,0.14641 0.1174,0.11132 0.1174,0.15373 0.1173,0.14495 0.1174,0.10824 0.1488,0.15358 0.1174,0.11568 0.1174,0.10835 0.1174,0.14495 0.1173,0.12003 0.1174,0.10835 0.1497,0.11277 0.1174,0.10681 0.1173,0.15374 0.1174,0.10835 0.1174,0.11567 0.1499,0.12003 0.1174,0.10835 0.1174,0.0747 0.15,0.10824 0.1174,0.11568 0.7508,0.82575 0.6722,0.85503 0.561,0.8975 0.485,0.97069 0.4496,0.97084 0.3351,1.05415 0.2623,1.04962 0.1863,1.11725 0.15,1.12443 0.07,1.15371 0,1.15811 -0.07,1.1991 -0.1174,1.23277 -0.1874,1.23717 -0.2601,1.24008 -0.2623,1.26206 -0.3736,1.27816 -0.3737,1.27377 -0.4486,1.26644 -0.4861,1.27376 -0.5223,1.27085 -0.5646,1.26937 -0.5975,1.27816 -0.6722,1.22399 -0.6723,1.23716 -0.7098,1.23278 -0.7508,1.1947 -0.7473,1.1625 -0.8209,1.12442 -0.8236,1.12882 -0.8258,1.07905 -0.8596,1.07904 -0.8961,1.01316 -0.9007,0.97069 -0.896,0.9341 0,0 z m -94.8488,622.42688 1.7964,0.265 1.7556,0.1787 1.6486,0.1493 1.606,0.045 1.5344,0 1.4569,-0.075 1.3863,-0.077 1.3076,-0.1917 1.2738,-0.1833 1.1959,-0.2648 1.1199,-0.2534 1.088,-0.3439 1.0074,-0.3369 0.9721,-0.3732 0.9007,-0.3777 0.8597,-0.4071 0.7838,-0.4481 0.7483,-0.4069 0.6759,-0.4524 0.6336,-0.4435 0.5985,-0.4524 0.5225,-0.4481 0.4847,-0.4142 0.4498,-0.4115 0.4147,-0.4071 0.3374,-0.3733 0.2988,-0.3821 0.2985,-0.2987 0.2237,-0.2987 0.1863,-0.2532 0.1499,-0.2284 0.1174,-0.1903 0.07,-0.1539 0.07,-0.075 0,-0.034 0,0 0,-0.036 -0.024,0 0,-0.075 -0.046,-0.033 -0.024,-0.075 -0.07,-0.1162 -0.07,-0.1173 -0.07,-0.1067 -0.07,-0.1508 -0.1174,-0.145 -0.1174,-0.1538 -0.1173,-0.1903 -0.15,-0.224 -0.15,-0.2196 -0.1875,-0.2285 -0.1861,-0.262 -0.1874,-0.2532 -0.2236,-0.2987 -0.2647,-0.3074 -0.2625,-0.3397 -0.2623,-0.3325 -0.2988,-0.3397 -0.335,-0.407 -0.3372,-0.3778 -0.3737,-0.4071 -0.4111,-0.4479 -0.41,-0.4524 -0.452,-0.4817 -0.4486,-0.527 -0.4861,-0.4892 -0.5225,-0.5606 -0.5609,-0.5563 -0.5611,-0.5973 -0.602,-0.602 -0.5974,-0.5605 -0.6336,-0.5227 -0.6734,-0.4847 -0.6725,-0.4157 -0.7133,-0.4071 -0.7098,-0.3396 -0.7461,-0.3325 -0.7483,-0.265 -0.7885,-0.2285 -0.7846,-0.1874 -0.7849,-0.1815 -0.7836,-0.1174 -0.7894,-0.075 -0.8211,-0.075 -0.7846,-0.033 -0.8212,0.033 -0.7893,0.041 -0.7849,0.033 -0.7834,0.1162 -0.7849,0.1078 -0.7461,0.1494 -0.7509,0.1536 -0.7483,0.1831 -0.7086,0.2241 -0.6735,0.2239 -0.6758,0.2649 -0.6724,0.2622 -0.5974,0.3031 -0.5973,0.2986 -0.561,0.2987 -0.527,0.3367 -0.5225,0.3354 -0.4486,0.3733 -0.4112,0.3778 -0.3736,0.366 -0.411,0.344 -0.4486,0.3367 -0.4885,0.2607 -0.5224,0.262 -0.561,0.2197 -0.636,0.2241 -0.6348,0.1946 -0.6723,0.142 -0.676,0.1198 -0.746,0.145 -0.7098,0.075 -0.7836,0.079 -0.7532,0.075 -0.7835,0.034 -0.7485,0.036 -0.7834,0 -0.7509,0.034 -0.7848,-0.034 -0.7462,0 -0.7097,-0.036 -0.7144,0 -0.7087,-0.034 -0.6349,-0.045 -0.6348,-0.075 -0.5974,-0.033 -0.5632,-0.041 -0.4861,-0.07 -0.4861,-0.038 -0.41,-0.041 -0.3747,-0.029 -0.2987,-0.045 -0.2613,-0.034 -0.1499,-0.041 -0.1173,0 -0.024,0 0.024,0.041 0.07,0.1078 0.1874,0.1492 0.2238,0.2285 0.2986,0.2986 0.3736,0.3353 0.3735,0.3749 0.4862,0.41 0.4861,0.486 0.5633,0.4889 0.5974,0.5564 0.6347,0.5609 0.7099,0.5972 0.7087,0.602 0.7507,0.6354 0.7848,0.6426 0.7847,0.6266 0.8598,0.6809 0.8256,0.672 0.8961,0.6354 0.8961,0.6722 0.9006,0.6309 0.8972,0.6354 0.9349,0.6019 0.9321,0.5973 0.9383,0.5651 0.9335,0.5226 0.9336,0.4848 0.9369,0.4861 0.896,0.4188 0.9348,0.3733 0.8971,0.3368 0.8621,0.2532 0.8598,0.2242 0.8597,0.1538 z"
         style="fill:#000000;fill-opacity:1;stroke:#000000;stroke-width:6.22535324;stroke-linecap:round;stroke-linejoin:round;stroke-miterlimit:22.92558479;stroke-opacity:1;stroke-dasharray:none"
         id="path3022"
         inkscape:connector-curvature="0" /></g></g></svg>
